<svg id="Layer_1" data-name="Layer 1" xmlns="http://www.w3.org/2000/svg" viewBox="0 0 19.8 31.03"><defs><style>.cls-1{fill:#ffffff;}</style></defs><title>HealthFiles_Expenses_Small</title><path class="cls-1" d="M7.08,27.32C3.2,26.48.64,24,0,20.24H7.56a2.61,2.61,0,0,0,2.72,1.56c1.08,0,2-.52,2-1.36,0-1-.68-1.2-1.88-1.48L6.4,18c-3.4-.8-6-2.56-6-6.84,0-3.92,2.72-6.68,6.72-7.56V0h6V3.72a8.19,8.19,0,0,1,6.4,6.92H12.32A2.57,2.57,0,0,0,9.84,9.2c-1.2,0-2,.52-2,1.28s.52,1,1.28,1.2l4.56,1.16c4.12,1.08,6.12,3.28,6.12,7.08,0,4-2.8,6.64-6.72,7.44V31h-6Z"/></svg>