<svg id="Layer_1" data-name="Layer 1" xmlns="http://www.w3.org/2000/svg" viewBox="0 0 100.11 60.75"><defs><style>.cls-1{fill:#fff;}</style></defs><title>HealthFiles_Notes</title><path class="cls-1" d="M94.68,10.87h-63A5.44,5.44,0,0,1,31.68,0h63a5.44,5.44,0,0,1,0,10.87ZM31.68,3a2.44,2.44,0,0,0,0,4.88h63a2.44,2.44,0,0,0,0-4.87Z"/><path class="cls-1" d="M15.94,10.87H5.44A5.44,5.44,0,1,1,5.44,0h10.5a5.44,5.44,0,0,1,0,10.87ZM5.44,3a2.44,2.44,0,0,0,0,4.88h10.5a2.44,2.44,0,0,0,0-4.87Z"/><path class="cls-1" d="M94.68,36.62h-63a5.44,5.44,0,0,1,0-10.88h63a5.44,5.44,0,0,1,0,10.88Zm-63-7.88a2.44,2.44,0,0,0,0,4.88h63a2.44,2.44,0,0,0,0-4.88Z"/><path class="cls-1" d="M15.94,36.62H5.44a5.44,5.44,0,1,1,0-10.88h10.5a5.44,5.44,0,0,1,0,10.88ZM5.44,28.74a2.44,2.44,0,1,0,0,4.88h10.5a2.44,2.44,0,0,0,0-4.88Z"/><path class="cls-1" d="M94.68,60.74h-63a5.44,5.44,0,0,1,0-10.87h63a5.44,5.44,0,0,1,0,10.88Zm-63-7.87a2.44,2.44,0,0,0,0,4.88h63a2.44,2.44,0,0,0,0-4.87Z"/><path class="cls-1" d="M15.94,60.74H5.44a5.44,5.44,0,1,1,0-10.87h10.5a5.44,5.44,0,0,1,0,10.88ZM5.44,52.87a2.44,2.44,0,0,0,0,4.88h10.5a2.44,2.44,0,0,0,0-4.87Z"/></svg>