<?xml version="1.0" encoding="UTF-8" standalone="no"?>
<svg width="27px" height="26px" viewBox="0 0 27 26" version="1.1" xmlns="http://www.w3.org/2000/svg" xmlns:xlink="http://www.w3.org/1999/xlink">
    <!-- Generator: Sketch 41.2 (35397) - http://www.bohemiancoding.com/sketch -->
    <title>HealthFiles_LabResults_Small</title>
    <desc>Created with Sketch.</desc>
    <defs>
        <path d="M23.3684211,18.3663158 L16.2315789,7.38315789 L16.2315789,1.56631579 L16.9578947,1.56631579 C17.3904209,1.56631579 17.7410526,1.21568406 17.7410526,0.783157895 C17.7410526,0.350631733 17.3904209,2.6484589e-17 16.9578947,0 L7.72421053,0 C7.29168436,-2.6484589e-17 6.94105263,0.350631733 6.94105263,0.783157895 C6.94105263,1.21568406 7.29168436,1.56631579 7.72421053,1.56631579 L8.43157895,1.56631579 L8.43157895,7.38315789 L1.30736842,18.3663158 C0.562015812,19.3028447 0.419477039,20.5837207 0.940706534,21.6611977 C1.46193603,22.7386747 2.55465474,23.4219949 3.75157895,23.4189474 L20.9178947,23.4189474 C22.1125266,23.4169792 23.2011544,22.7330378 23.7213846,21.6576264 C24.2416149,20.582215 24.1021025,19.3041608 23.3621053,18.3663158 L23.3684211,18.3663158 Z M13.1115789,3.12 L11.5515789,3.12 L11.5515789,4.71157895 L13.1115789,4.71157895 L13.1115789,6.27157895 L11.5515789,6.27157895 L11.5515789,7.82526316 L13.1115789,7.82526316 L13.1115789,9.38526316 L11.5515789,9.38526316 L11.5515789,10.9263158 L13.1115789,10.9263158 L13.1115789,12.4863158 L11.5515789,12.4863158 L11.5515789,14.0652632 L13.1115789,14.0652632 L13.1115789,15.6252632 L6.87789474,15.6252632 L2.98736842,21.6 C2.53644254,21.3189806 2.26381398,20.8239445 2.26736842,20.2926316 C2.26696937,19.9870268 2.35707286,19.6881469 2.52631579,19.4336842 L9.99157895,7.94526316 L9.99157895,1.56631579 L13.1115789,1.56631579 L13.1115789,3.12 Z" id="path-1"></path>
        <mask id="mask-2" maskContentUnits="userSpaceOnUse" maskUnits="objectBoundingBox" x="-1" y="-1" width="25.4028425" height="25.4189575">
            <rect x="-0.370061176" y="-1" width="25.4028425" height="25.4189575" fill="white"></rect>
            <use xlink:href="#path-1" fill="black"></use>
        </mask>
    </defs>
    <g id="Page-1" stroke="none" stroke-width="1" fill="none" fill-rule="evenodd">
        <g id="Health-Files" transform="translate(-21.000000, -279.000000)">
            <g id="HealthFiles_LabResults_Small" transform="translate(22.000000, 280.000000)">
                <g id="Layer_1">
                    <g id="Shape">
                        <use fill="#27314D" fill-rule="evenodd" xlink:href="#path-1"></use>
                        <use stroke="#FFFFFF" mask="url(#mask-2)" stroke-width="2" xlink:href="#path-1"></use>
                    </g>
                </g>
            </g>
        </g>
    </g>
</svg>