<svg id="Layer_1" data-name="Layer 1" xmlns="http://www.w3.org/2000/svg" viewBox="0 0 37 22"><defs><style>.cls-1{fill:#ffffff;}</style></defs><title>HealthFiles_Notes_Small</title><path class="cls-1" d="M35.5,3h-24a1.5,1.5,0,0,1,0-3h24a1.5,1.5,0,0,1,0,3Z"/><path class="cls-1" d="M5.5,3h-4a1.5,1.5,0,0,1,0-3h4a1.5,1.5,0,0,1,0,3Z"/><path class="cls-1" d="M35.5,12.81h-24a1.5,1.5,0,0,1,0-3h24a1.5,1.5,0,0,1,0,3Z"/><path class="cls-1" d="M5.5,12.81h-4a1.5,1.5,0,0,1,0-3h4a1.5,1.5,0,0,1,0,3Z"/><path class="cls-1" d="M35.5,22h-24a1.5,1.5,0,0,1,0-3h24a1.5,1.5,0,0,1,0,3Z"/><path class="cls-1" d="M5.5,22h-4a1.5,1.5,0,0,1,0-3h4a1.5,1.5,0,0,1,0,3Z"/></svg>