<svg id="Layer_1" data-name="Layer 1" xmlns="http://www.w3.org/2000/svg" viewBox="0 0 27.79 35.82"><defs><style>.cls-1{fill:#ffffff;}</style></defs><title>HealthFiles_Recording_Small</title><path class="cls-1" d="M20.27,31.41a1.5,1.5,0,0,1-1.5-1.5v-24a1.5,1.5,0,0,1,3,0v24A1.5,1.5,0,0,1,20.27,31.41Z"/><path class="cls-1" d="M26.29,26.63a1.5,1.5,0,0,1-1.5-1.5V10.69a1.5,1.5,0,0,1,3,0V25.13A1.5,1.5,0,0,1,26.29,26.63Z"/><path class="cls-1" d="M1.5,26.63A1.5,1.5,0,0,1,0,25.13V10.69a1.5,1.5,0,0,1,3,0V25.13A1.5,1.5,0,0,1,1.5,26.63Z"/><path class="cls-1" d="M7.16,24.29a1.5,1.5,0,0,1-1.5-1.5V13a1.5,1.5,0,0,1,3,0v9.75A1.5,1.5,0,0,1,7.16,24.29Z"/><path class="cls-1" d="M13.55,35.82a1.5,1.5,0,0,1-1.5-1.5V1.5a1.5,1.5,0,0,1,3,0V34.32A1.5,1.5,0,0,1,13.55,35.82Z"/></svg>