<svg id="Layer_1" data-name="Layer 1" xmlns="http://www.w3.org/2000/svg" viewBox="0 0 57.14 87.66"><defs><style>.cls-1{fill:#fff;}</style></defs><title>HealthFiles_Expenses</title><path class="cls-1" d="M38.75,87.65H19.63V77.2C8.9,74.52,2,67.38.27,57L0,55.4H23.24l.32.89c1,2.79,3.91,3.38,6.17,3.38,2,0,4-.82,4-2.37s-.58-1.91-4.1-2.74L18.81,52C7,49.26,1.24,42.7,1.24,32s7-18.87,18.39-21.76V0H38.75V10.49c9.53,2.72,15.72,9.69,17.5,19.74l.28,1.58h-22l-.37-.75a5.67,5.67,0,0,0-5.58-3.2c-2.43,0-4.12.89-4.12,2.15,0,.92.24,1.38,2.5,2l12.47,3.17c12.12,3.18,17.77,9.75,17.77,20.69,0,10.76-6.85,18.71-18.39,21.45ZM22.33,85H36V75.13l1.08-.22c10.84-2.21,17.31-9.33,17.31-19S49.59,40.65,38.7,37.8L26.23,34.63c-1.59-.42-4.52-1.19-4.52-4.59,0-2.9,2.74-4.85,6.82-4.85a8.38,8.38,0,0,1,7.58,3.94H53.26c-1.48-6.28-5.55-13.65-16.19-16.28l-1-.25V2.7H22.33v9.7l-1.06.23C10.41,15,3.93,22.26,3.93,32c0,9.52,4.78,14.89,15.49,17.41l10.83,2.52c3,.71,6.19,1.45,6.19,5.37,0,2.94-2.82,5.07-6.71,5.07s-6.92-1.54-8.33-4.27H3.25c2.05,8.72,8.39,14.63,18,16.71l1.06.23Z"/></svg>