<svg id="Layer_1" data-name="Layer 1" xmlns="http://www.w3.org/2000/svg" viewBox="0 0 78.86 100.88"><defs><style>.cls-1{fill:#fff;}</style></defs><title>HealthFiles_Recording</title><path class="cls-1" d="M56.89,88.79a5.47,5.47,0,0,1-5.46-5.46V17.55a5.46,5.46,0,1,1,10.92,0V83.33A5.47,5.47,0,0,1,56.89,88.79Zm0-74a2.76,2.76,0,0,0-2.76,2.76V83.33a2.76,2.76,0,1,0,5.52,0V17.55A2.76,2.76,0,0,0,56.89,14.79Z"/><path class="cls-1" d="M73.4,75.68a5.47,5.47,0,0,1-5.46-5.46V30.65a5.46,5.46,0,1,1,10.92,0V70.22A5.47,5.47,0,0,1,73.4,75.68Zm0-47.79a2.77,2.77,0,0,0-2.76,2.76V70.22a2.76,2.76,0,0,0,5.52,0V30.65A2.76,2.76,0,0,0,73.4,27.89Z"/><path class="cls-1" d="M5.46,75.68A5.47,5.47,0,0,1,0,70.22V30.65a5.46,5.46,0,1,1,10.92,0V70.22A5.47,5.47,0,0,1,5.46,75.68Zm0-47.79A2.77,2.77,0,0,0,2.7,30.65V70.22a2.76,2.76,0,0,0,5.52,0V30.65A2.76,2.76,0,0,0,5.46,27.89Z"/><path class="cls-1" d="M21,69.26a5.47,5.47,0,0,1-5.46-5.46V37.08a5.46,5.46,0,1,1,10.92,0V63.8A5.47,5.47,0,0,1,21,69.26Zm0-34.94a2.76,2.76,0,0,0-2.76,2.76V63.8a2.76,2.76,0,1,0,5.52,0V37.08A2.77,2.77,0,0,0,21,34.32Z"/><path class="cls-1" d="M38.5,100.88A5.47,5.47,0,0,1,33,95.42v-90A5.46,5.46,0,0,1,44,5.46v90A5.47,5.47,0,0,1,38.5,100.88Zm0-98.18a2.76,2.76,0,0,0-2.76,2.76v90a2.76,2.76,0,0,0,5.52,0v-90A2.76,2.76,0,0,0,38.5,2.7Z"/></svg>