<?xml version="1.0" encoding="UTF-8" standalone="no"?>
<svg width="21px" height="26px" viewBox="0 0 21 26" version="1.1" xmlns="http://www.w3.org/2000/svg" xmlns:xlink="http://www.w3.org/1999/xlink">
    <!-- Generator: Sketch 41.2 (35397) - http://www.bohemiancoding.com/sketch -->
    <title>HealthFiles_Recording_Small</title>
    <desc>Created with Sketch.</desc>
    <defs>
        <path d="M13.5133333,20.94 C12.9610486,20.94 12.5133333,20.4922847 12.5133333,19.94 L12.5133333,3.94 C12.5133333,3.38771525 12.9610486,2.94 13.5133333,2.94 C14.0656181,2.94 14.5133333,3.38771525 14.5133333,3.94 L14.5133333,19.94 C14.5133333,20.4922847 14.0656181,20.94 13.5133333,20.94 L13.5133333,20.94 Z" id="path-1"></path>
        <mask id="mask-2" maskContentUnits="userSpaceOnUse" maskUnits="objectBoundingBox" x="-1" y="-1" width="4" height="20">
            <rect x="11.5133333" y="1.94" width="4" height="20" fill="white"></rect>
            <use xlink:href="#path-1" fill="black"></use>
        </mask>
        <path d="M17.5266667,17.7533333 C16.9743819,17.7533333 16.5266667,17.3056181 16.5266667,16.7533333 L16.5266667,7.12666667 C16.5266667,6.57438192 16.9743819,6.12666667 17.5266667,6.12666667 C18.0789514,6.12666667 18.5266667,6.57438192 18.5266667,7.12666667 L18.5266667,16.7533333 C18.5266667,17.3056181 18.0789514,17.7533333 17.5266667,17.7533333 L17.5266667,17.7533333 Z" id="path-3"></path>
        <mask id="mask-4" maskContentUnits="userSpaceOnUse" maskUnits="objectBoundingBox" x="-1" y="-1" width="4" height="13.6266667">
            <rect x="15.5266667" y="5.12666667" width="4" height="13.6266667" fill="white"></rect>
            <use xlink:href="#path-3" fill="black"></use>
        </mask>
        <path d="M1,17.7533333 C0.44771525,17.7533333 6.76353751e-17,17.3056181 0,16.7533333 L0,7.12666667 C-6.76353751e-17,6.57438192 0.44771525,6.12666667 1,6.12666667 C1.55228475,6.12666667 2,6.57438192 2,7.12666667 L2,16.7533333 C2,17.3056181 1.55228475,17.7533333 1,17.7533333 Z" id="path-5"></path>
        <mask id="mask-6" maskContentUnits="userSpaceOnUse" maskUnits="objectBoundingBox" x="-1" y="-1" width="4" height="13.6266667">
            <rect x="-1" y="5.12666667" width="4" height="13.6266667" fill="white"></rect>
            <use xlink:href="#path-5" fill="black"></use>
        </mask>
        <path d="M4.77333333,16.1933333 C4.22104858,16.1933333 3.77333333,15.7456181 3.77333333,15.1933333 L3.77333333,8.66666667 C3.77333333,8.11438192 4.22104858,7.66666667 4.77333333,7.66666667 C5.32561808,7.66666667 5.77333333,8.11438192 5.77333333,8.66666667 L5.77333333,15.1666667 C5.78053074,15.4364728 5.6783599,15.6977317 5.49003776,15.8910757 C5.30171562,16.0844198 5.04323544,16.1934293 4.77333333,16.1933333 Z" id="path-7"></path>
        <mask id="mask-8" maskContentUnits="userSpaceOnUse" maskUnits="objectBoundingBox" x="-1" y="-1" width="4.00035607" height="10.5266667">
            <rect x="2.77333333" y="6.66666667" width="4.00035607" height="10.5266667" fill="white"></rect>
            <use xlink:href="#path-7" fill="black"></use>
        </mask>
        <path d="M9.03333333,23.88 C8.48104858,23.88 8.03333333,23.4322847 8.03333333,22.88 L8.03333333,1 C8.03333333,0.44771525 8.48104858,1.01453063e-16 9.03333333,0 C9.58561808,-1.01453063e-16 10.0333333,0.44771525 10.0333333,1 L10.0333333,22.88 C10.0333333,23.4322847 9.58561808,23.88 9.03333333,23.88 Z" id="path-9"></path>
        <mask id="mask-10" maskContentUnits="userSpaceOnUse" maskUnits="objectBoundingBox" x="-1" y="-1" width="4" height="25.88">
            <rect x="7.03333333" y="-1" width="4" height="25.88" fill="white"></rect>
            <use xlink:href="#path-9" fill="black"></use>
        </mask>
    </defs>
    <g id="Page-1" stroke="none" stroke-width="1" fill="none" fill-rule="evenodd">
        <g id="Health-Files" transform="translate(-24.000000, -411.000000)">
            <g id="HealthFiles_Recording_Small" transform="translate(25.000000, 412.000000)">
                <g id="Layer_1">
                    <g id="Shape">
                        <use fill="#27314D" fill-rule="evenodd" xlink:href="#path-1"></use>
                        <use stroke="#FFFFFF" mask="url(#mask-2)" stroke-width="2" xlink:href="#path-1"></use>
                    </g>
                    <g id="Shape">
                        <use fill="#27314D" fill-rule="evenodd" xlink:href="#path-3"></use>
                        <use stroke="#FFFFFF" mask="url(#mask-4)" stroke-width="2" xlink:href="#path-3"></use>
                    </g>
                    <g id="Shape">
                        <use fill="#27314D" fill-rule="evenodd" xlink:href="#path-5"></use>
                        <use stroke="#FFFFFF" mask="url(#mask-6)" stroke-width="2" xlink:href="#path-5"></use>
                    </g>
                    <g id="Shape">
                        <use fill="#27314D" fill-rule="evenodd" xlink:href="#path-7"></use>
                        <use stroke="#FFFFFF" mask="url(#mask-8)" stroke-width="2" xlink:href="#path-7"></use>
                    </g>
                    <g id="Shape">
                        <use fill="#27314D" fill-rule="evenodd" xlink:href="#path-9"></use>
                        <use stroke="#FFFFFF" mask="url(#mask-10)" stroke-width="2" xlink:href="#path-9"></use>
                    </g>
                </g>
            </g>
        </g>
    </g>
</svg>