<svg id="Layer_1" data-name="Layer 1" xmlns="http://www.w3.org/2000/svg" viewBox="0 0 83.4 83.47"><defs><style>.cls-1{fill:#fff;}</style></defs><title>HealthFiles_LabResults</title><path class="cls-1" d="M71.49,83.47H11.91A11.93,11.93,0,0,1,0,71.56,11.79,11.79,0,0,1,2.55,64.2L27.08,26.4V7.62H25.72a3.81,3.81,0,1,1,0-7.62h32a3.81,3.81,0,0,1,0,7.62H56.33V26.4L80.86,64.2a11.81,11.81,0,0,1,2.54,7.36A11.93,11.93,0,0,1,71.49,83.47ZM25.72,2.19a1.62,1.62,0,0,0,0,3.24h3.54V27l-25,38.48a9.62,9.62,0,0,0-2.11,6,9.74,9.74,0,0,0,9.72,9.72H71.49a9.73,9.73,0,0,0,7.62-15.77l-.06-.08L54.14,27V5.43h3.62a1.62,1.62,0,0,0,0-3.24ZM9.61,77.54,8.71,77a6.48,6.48,0,0,1-1.95-9.05l25.72-39.6V5.43h13V13H40.09v3.32h5.42v7.6H40.09v3.2h5.42v7.6H40.09v3.18h5.42v7.6H40.09V48.8h5.42V56.4H23.36ZM34.67,7.62V29L8.59,69.13A4.31,4.31,0,0,0,9,74.44L22.18,54.21H43.32V51H37.9V43.33h5.42V40.1H37.9V32.55h5.42V29.33H37.9V21.76h5.42V18.54H37.9v-7.7h5.42V7.62Z"/></svg>