<svg id="Layer_1" data-name="Layer 1" xmlns="http://www.w3.org/2000/svg" viewBox="0 0 37.05 37.08"><defs><style>.cls-1{fill:#ffffff;}</style></defs><title>HealthFiles_LabResults_Small</title><path class="cls-1" d="M36,29.08,24.7,11.69V2.48h1.15a1.24,1.24,0,0,0,0-2.48H11.23a1.24,1.24,0,0,0,0,2.48h1.12v9.21L1.07,29.08a4.93,4.93,0,0,0,3.87,8H32.12a4.94,4.94,0,0,0,3.87-8ZM19.76,4.94H17.29V7.46h2.47V9.93H17.29v2.46h2.47v2.47H17.29V17.3h2.47v2.47H17.29v2.5h2.47v2.47H9.89L3.73,34.2a2.42,2.42,0,0,1-1.14-2.07A2.45,2.45,0,0,1,3,30.77L14.82,12.58V2.48h4.94V4.94Z"/></svg>