<svg id="Layer_1" data-name="Layer 1" xmlns="http://www.w3.org/2000/svg" viewBox="0 0 48.74 48.74"><defs><style>.cls-1{fill:#84cdb1;}</style></defs><title>Appointments_Calendar_Green</title><rect class="cls-1" x="7.9" y="21.08" width="7.9" height="2.63"/><rect class="cls-1" x="7.9" y="36.88" width="7.9" height="2.63"/><rect class="cls-1" x="7.9" y="28.98" width="7.9" height="2.63"/><rect class="cls-1" x="19.76" y="21.08" width="7.9" height="2.63"/><rect class="cls-1" x="19.76" y="36.88" width="7.9" height="2.63"/><rect class="cls-1" x="19.76" y="28.98" width="7.9" height="2.63"/><rect class="cls-1" x="31.61" y="21.08" width="7.9" height="2.63"/><rect class="cls-1" x="31.61" y="36.88" width="7.9" height="2.63"/><rect class="cls-1" x="31.61" y="28.98" width="7.9" height="2.63"/><path class="cls-1" d="M39.52,0h-4V5.27H25V0H22.39V5.27H11.85V0h-4V5.27H0V48.74H48.74V5.27H39.52Zm5.27,9.22V44.79H2.63V9.22H7.9v4h4v-4H22.39v4H25v-4H35.56v4h4v-4Z"/></svg>