<svg id="Layer_1" data-name="Layer 1" xmlns="http://www.w3.org/2000/svg" viewBox="0 0 71.43 74.55"><defs><style>.cls-1{fill:#21293d;}.cls-2{fill:none;stroke:#fff;stroke-miterlimit:10;stroke-width:2.12px;}</style></defs><title>Thumbs Up_Transport-01</title><path class="cls-1" d="M61.81,54.48c3,.1,4.94-2.25,4.87-5.25a5.33,5.33,0,0,0-5.13-5.55l-1,0,.25-.46A4.1,4.1,0,0,0,62.6,41.5c2.21-3.71.09-8.31-4.16-8.65-4.59-.37-9.19-.59-13.78-.75l.31-.56c1.4-2.51,3-4.92,4.15-7.54,1.49-3.4,2.19-7,.9-10.71-.77-2.23-2.16-4-4.56-4.33s-3.62,1.45-4.71,3.25c-2.53,4.15-4.93,8.45-8.67,11.66C27.59,27.71,23,31.39,18.34,35.09a3,3,0,0,1-1.76.41c-4.2,0-8.4,0-12.6-.05-.55,0-1.1.06-1.63.09V63.9H4c3.15,0,6.3.07,9.45,0a1.92,1.92,0,0,1,2,1.14c3.41,6.2,9.13,8.76,16,9.12,4.88.25,9.77.22,14.65.19,2.77.16,5.56.21,8.32.14,3.39-.09,5.5-2.2,5.51-4.76a4.73,4.73,0,0,0-2.6-4.17L58.2,65a5.06,5.06,0,0,0,5.34-5,5.34,5.34,0,0,0-1.89-4.22,6.85,6.85,0,0,0-.93-.93l.63-.36Z"/><path class="cls-2" d="M48.8,66.66c-6.35,0-12.33,0-18.67-.32-6.9-.35-12.62-2.91-16-9.12a1.92,1.92,0,0,0-2-1.14c-3.15,0-6.3,0-9.45,0H1.06V27.68c.54,0,1.08-.09,1.63-.09,4.2,0,8.4.06,12.6.05a3,3,0,0,0,1.76-.41c4.61-3.7,9.24-7.37,13.72-11.22,3.74-3.21,6.14-7.51,8.67-11.66,1.1-1.8,2.3-3.6,4.71-3.25S48,3.2,48.72,5.43c1.29,3.71.59,7.31-.9,10.71-1.15,2.62-3.34,5.51-4.73,8-.15.26.27-.48,0,0,3.24,0,7.24.32,10.21.52"/><path class="cls-2" d="M47.16,56.76c3.24.12,6.48.27,9.72.35a5.06,5.06,0,0,0,5.37-5,5.31,5.31,0,0,0-5.06-5.46q-9.51-.43-19-.7a5.23,5.23,0,0,0-.31,10.46C41,56.57,44.06,56.65,47.16,56.76Z"/><path class="cls-2" d="M41.41,56.49c-3.35.13-5.49,2-5.67,4.65s1.59,4.77,4.8,5.08a102.54,102.54,0,0,0,12.58.45c3.39-.09,5.5-2.2,5.51-4.76s-2.19-4.72-5.56-5.06Z"/><path class="cls-2" d="M48.69,35.25c-3.86-.19-7.71-.4-11.57-.57a4.85,4.85,0,0,0-5.4,5.05c-.11,3,1.72,5.47,4.75,5.68q12,.82,24,1.22c3,.1,4.94-2.25,4.87-5.25a5.33,5.33,0,0,0-5.13-5.55C56.4,35.62,52.54,35.44,48.69,35.25Z"/><path class="cls-2" d="M48.71,35.35l8.08.4h.37a4.26,4.26,0,0,0,4.14-2.11c2.21-3.71.09-8.31-4.16-8.66-5.51-.45-11-.67-16.54-.84-3.13-.1-5.24,2.22-5.21,5.37a5.28,5.28,0,0,0,5.22,5.41C43.32,35.12,46,35.21,48.71,35.35Z"/></svg>