<?xml version="1.0" encoding="UTF-8" standalone="no"?>
<svg width="100px" height="21px" viewBox="0 0 100 21" version="1.1" xmlns="http://www.w3.org/2000/svg" xmlns:xlink="http://www.w3.org/1999/xlink">
    <!-- Generator: Sketch 41.2 (35397) - http://www.bohemiancoding.com/sketch -->
    <title>Uber_Logo_Black</title>
    <desc>Created with Sketch.</desc>
    <defs></defs>
    <g id="Page-1" stroke="none" stroke-width="1" fill="none" fill-rule="evenodd">
        <g id="Travel" transform="translate(-138.000000, -222.000000)" fill="#000000">
            <g id="Uber_Logo_Black" transform="translate(138.000000, 222.000000)">
                <g id="Layer_1">
                    <path d="M15.9220033,0.816261204 L15.9220033,12.1158771 C15.9220033,15.8930858 14.2333083,17.4535851 10.2660871,17.4535851 C6.29886588,17.4535851 4.61017091,15.853073 4.61017091,12.1158771 L4.61017091,0.320102433 L0.828786951,0.320102433 C0.690968684,0.301272612 0.552200377,0.347453964 0.453825275,0.444887677 C0.355450173,0.542321391 0.308822624,0.679761772 0.327834376,0.816261204 L0.327834376,12.3239437 C0.327834376,18.6379641 4.3677745,20.8386684 10.2822468,20.8386684 C16.1967192,20.8386684 20.2366593,18.6139565 20.2366593,12.3239437 L20.2366593,0.320102433 L16.4229558,0.320102433 C16.2851376,0.301272612 16.1463693,0.347453964 16.0479942,0.444887677 C15.9496191,0.542321391 15.9029915,0.679761772 15.9220033,0.816261204 L15.9220033,0.816261204 Z" id="Shape"></path>
                    <path d="M71.1641445,3.60115237 C71.4069042,3.6360252 71.641704,3.49981566 71.7297361,3.27304738 L72.8285998,0.568181818 C72.8932389,0.400128041 72.8285998,0.320102433 72.6589224,0.320102433 L57.3071499,0.320102433 C55.8689312,0.320102433 55.3275792,0.752240717 55.3275792,1.72055058 L55.3275792,19.2701665 C55.3275792,20.0704225 55.7396531,20.462548 56.8465967,20.462548 L71.1479847,20.462548 C71.3907445,20.4974209 71.6255442,20.3612113 71.7135764,20.134443 L72.82052,17.4295775 C72.885159,17.2615237 72.82052,17.1814981 72.6508425,17.1814981 L59.5695164,17.1814981 L59.5695164,13.6203585 C59.5695164,12.3799616 60.2563062,11.8277849 62.1065987,11.8277849 L67.7625149,11.8277849 C68.0052746,11.8626577 68.2400744,11.7264482 68.3281065,11.4996799 L69.3865709,8.89884763 C69.4512099,8.73079385 69.3865709,8.65076825 69.2168934,8.65076825 L59.5210371,8.65076825 L59.5210371,3.60115237 L71.1641445,3.60115237 Z" id="Shape"></path>
                    <path d="M44.145025,9.85115237 C45.8094803,8.9868758 46.4962701,7.35435339 46.4962701,5.44174136 C46.50435,0.97631242 42.8360844,0.320102433 39.0466205,0.320102433 L30.3849889,0.320102433 C28.9467702,0.320102433 28.4054182,0.752240717 28.4054182,1.72055058 L28.4054182,19.2701665 C28.4054182,20.0704225 28.825572,20.462548 29.9244357,20.462548 L40.5898776,20.462548 C44.6298178,20.462548 47.4820155,18.9180538 47.4820155,14.8607554 C47.4820155,12.4919974 46.4397109,10.4433419 44.145025,9.85115237 Z M32.6473554,3.52112676 L39.3778956,3.52112676 C41.6241023,3.52112676 42.254333,4.32138284 42.254333,6.09795134 C42.254333,7.87451985 41.6321822,8.67477593 39.3778956,8.67477593 L32.6473554,8.67477593 L32.6473554,3.52112676 Z M40.1697239,17.1975032 L32.6473554,17.1975032 L32.6473554,13.5403329 C32.6473554,12.299936 33.3341452,11.7477593 35.1844378,11.7477593 L40.161644,11.7477593 C42.5856081,11.7477593 43.2239186,12.6520487 43.2239186,14.5086428 C43.2239186,16.3652369 42.5452087,17.2295134 40.1535641,17.2295134 L40.1697239,17.1975032 Z" id="Shape"></path>
                    <path d="M99.4275656,20.1184379 L94.8624333,12.3639565 C97.1328796,11.7877721 98.9670124,10.2992958 98.9670124,6.53008963 C98.9750923,1.64052497 95.9128177,0.320102433 90.8224931,0.320102433 L82.1447018,0.320102433 C80.7064831,0.320102433 80.1651311,0.752240717 80.1651311,1.72055058 L80.1651311,19.9743918 C80.1461194,20.1108912 80.1927469,20.2483316 80.291122,20.3457653 C80.3894971,20.443199 80.5282654,20.4893804 80.6660837,20.4705506 L84.358589,20.4705506 L84.358589,14.5886684 C84.358589,13.3482714 85.0453788,12.7960948 86.8956713,12.7960948 L90.6447358,12.7960948 L94.7654747,20.134443 C94.8642815,20.3518913 95.0912439,20.4835543 95.3310663,20.462548 L99.201329,20.462548 C99.5164443,20.4705506 99.5164443,20.2464789 99.4275656,20.1184379 Z M91.4769634,9.65909091 L84.358589,9.65909091 L84.358589,3.52112676 L91.436564,3.52112676 C94.0786849,3.52112676 94.6685161,4.52944942 94.6685161,6.57010243 C94.6685161,8.61075544 94.1190843,9.65909091 91.4769634,9.65909091 L91.4769634,9.65909091 Z" id="Shape"></path>
                </g>
            </g>
        </g>
    </g>
</svg>