<svg id="Layer_1" data-name="Layer 1" xmlns="http://www.w3.org/2000/svg" viewBox="0 0 122.72 25.62"><defs><style>.cls-1{fill:#fff;}</style></defs><title>Uber_Logo_White</title><path class="cls-1" d="M19.3.62V14.74c0,4.72-2.09,6.67-7,6.67s-7-2-7-6.67V0H.62A.55.55,0,0,0,0,.62V15c0,7.89,5,10.64,12.32,10.64S24.64,22.86,24.64,15V0H19.92A.55.55,0,0,0,19.3.62Z"/><path class="cls-1" d="M87.67,4.1a.65.65,0,0,0,.7-.41L89.73.31c.08-.21,0-.31-.21-.31h-19c-1.78,0-2.45.54-2.45,1.75V23.68c0,1,.51,1.49,1.88,1.49h17.7a.65.65,0,0,0,.7-.41l1.37-3.38c.08-.21,0-.31-.21-.31H73.32V16.62c0-1.55.85-2.24,3.14-2.24h7a.65.65,0,0,0,.7-.41l1.31-3.25c.08-.21,0-.31-.21-.31h-12V4.1Z"/><path class="cls-1" d="M54.23,11.91c2.06-1.08,2.91-3.12,2.91-5.51C57.15.82,52.61,0,47.92,0H37.2c-1.78,0-2.45.54-2.45,1.75V23.68c0,1,.52,1.49,1.88,1.49h13.2c5,0,8.53-1.93,8.53-7C58.36,15.21,57.07,12.65,54.23,11.91ZM40,4h8.33c2.78,0,3.56,1,3.56,3.22s-.77,3.22-3.56,3.22H40Zm9.31,17.09H40V16.52c0-1.55.85-2.24,3.14-2.24h6.16c3,0,3.79,1.13,3.79,3.45S52.25,21.13,49.29,21.13Z"/><path class="cls-1" d="M122.65,24.74,117,15.05c2.81-.72,5.08-2.58,5.08-7.29C122.09,1.65,118.3,0,112,0H101.26c-1.78,0-2.45.54-2.45,1.75V24.56a.55.55,0,0,0,.62.62H104V17.83c0-1.55.85-2.24,3.14-2.24h4.64l5.1,9.17a.7.7,0,0,0,.7.41h4.79C122.76,25.18,122.76,24.9,122.65,24.74Zm-9.84-13.07H104V4h8.76c3.27,0,4,1.26,4,3.81S116.08,11.67,112.81,11.67Z"/></svg>