<?xml version="1.0" encoding="UTF-8" standalone="no"?>
<svg
   xmlns:dc="http://purl.org/dc/elements/1.1/"
   xmlns:cc="http://creativecommons.org/ns#"
   xmlns:rdf="http://www.w3.org/1999/02/22-rdf-syntax-ns#"
   xmlns:svg="http://www.w3.org/2000/svg"
   xmlns="http://www.w3.org/2000/svg"
   version="1.1"
   id="svg2"
   viewBox="0 0 696.73887 151.89158"
   height="42.86718mm"
   width="196.63519mm">
  <defs
     id="defs4">
    <clipPath
       clipPathUnits="userSpaceOnUse"
       id="clipPath4150">
      <path
         d="m 0,294.8 720,0 L 720,0 0,0 0,294.8 Z"
         id="path4152" />
    </clipPath>
  </defs>
  <metadata
     id="metadata7">
    <rdf:RDF>
      <cc:Work
         rdf:about="">
        <dc:format>image/svg+xml</dc:format>
        <dc:type
           rdf:resource="http://purl.org/dc/dcmitype/StillImage" />
        <dc:title></dc:title>
      </cc:Work>
    </rdf:RDF>
  </metadata>
  <g
     transform="translate(-45.201991,-204.98784)"
     id="layer1">
    <g
       style="fill:#ff144f;fill-opacity:1"
       id="g4144"
       transform="matrix(1.25,0,0,-1.25,-58.450134,464.89959)">
      <g
         style="fill:#ff144f;fill-opacity:1"
         id="g4146">
        <g
           style="fill:#ff144f;fill-opacity:1"
           id="g4148"
           clip-path="url(#clipPath4150)">
          <g
             style="fill:#ff144f;fill-opacity:1"
             id="g4154"
             transform="translate(199.0292,166.2724)">
            <path
               d="m 0,0 c 8.694,5.576 18.37,10.004 29.522,10.004 20.173,0 28.044,-12.464 24.437,-32.308 l -9.841,-55.599 -33.786,0 9.35,51.99 c 1.147,6.069 0.49,10.168 -5.412,10.168 -5.576,0 -12.793,-3.279 -18.534,-8.036 l -9.512,-54.122 -33.622,0 21.157,119.56 33.622,0 L 0,0 Z"
               style="fill:#ff144f;fill-opacity:1;fill-rule:nonzero;stroke:none"
               id="path4156" />
          </g>
          <g
             style="fill:#ff144f;fill-opacity:1"
             id="g4158"
             transform="translate(296.4001,156.9245)">
            <path
               d="M 0,0 C 3.279,5.74 13.94,20.008 34.769,18.533 L 29.52,-12.956 c -28.373,0 -36.737,-31.161 -36.737,-31.161 l -4.92,-24.438 -33.622,0 15.252,86.103 33.622,0 L 0,0 Z"
               style="fill:#ff144f;fill-opacity:1;fill-rule:nonzero;stroke:none"
               id="path4160" />
          </g>
          <g
             style="fill:#ff144f;fill-opacity:1"
             id="g4162"
             transform="translate(343.3038,207.4386)">
            <path
               d="m 0,0 34.606,0 -4.099,-25.093 -34.771,0 L 0,0 Z m -20.501,-119.069 15.253,86.103 33.622,0 -15.253,-86.103 -33.622,0 z"
               style="fill:#ff144f;fill-opacity:1;fill-rule:nonzero;stroke:none"
               id="path4164" />
          </g>
          <g
             style="fill:#ff144f;fill-opacity:1"
             id="g4166"
             transform="translate(393.9791,88.3697)">
            <path
               d="m 0,0 -18.204,86.103 34.769,0 5.412,-48.217 22.47,48.217 37.393,0 L 33.13,0 0,0 Z"
               style="fill:#ff144f;fill-opacity:1;fill-rule:nonzero;stroke:none"
               id="path4168" />
          </g>
          <g
             style="fill:#ff144f;fill-opacity:1"
             id="g4170"
             transform="translate(528.7897,136.8778)">
            <path
               d="m 0,0 c 0,9.676 -4.592,14.528 -13.776,14.064 -11.809,-0.596 -17.057,-13.325 -17.057,-24.97 0,-9.676 4.592,-14.528 13.778,-14.064 C -5.248,-24.374 0,-11.645 0,0 m 33.786,1.378 c 0,-26.077 -15.744,-49.997 -50.023,-51.728 -29.52,-1.491 -48.38,11.989 -48.38,38.066 0,26.077 15.744,49.997 50.021,51.728 29.52,1.491 48.382,-11.989 48.382,-38.066"
               style="fill:#ff144f;fill-opacity:1;fill-rule:nonzero;stroke:none"
               id="path4172" />
          </g>
          <g
             style="fill:#ff144f;fill-opacity:1"
             id="g4174"
             transform="translate(605.5438,156.9245)">
            <path
               d="M 0,0 C 3.279,5.74 13.94,20.008 34.769,18.533 L 29.52,-12.956 c -28.373,0 -36.737,-31.161 -36.737,-31.161 l -4.92,-24.438 -33.622,0 15.252,86.103 33.622,0 L 0,0 Z"
               style="fill:#ff144f;fill-opacity:1;fill-rule:nonzero;stroke:none"
               id="path4176" />
          </g>
          <g
             style="fill:#ff144f;fill-opacity:1"
             id="g4178"
             transform="translate(91.4007,124.4631)">
            <path
               d="m 0,0 c -4.69,-26.791 10.838,-36.093 24.974,-36.093 l 0.35,0 27.27,0 5.001,27.799 -17.673,0 c -3.462,0 -7.234,2.278 -6.086,8.839 l 4.937,26.995 23.288,0 4.376,24.273 -23.4,0 4.592,24.93 L 12.44,67.55 9.579,51.813 l -13.682,0 -4.376,-24.273 13.63,0 L 0,-0.01 0,0 Z"
               style="fill:#ff144f;fill-opacity:1;fill-rule:nonzero;stroke:none"
               id="path4180" />
          </g>
        </g>
      </g>
    </g>
  </g>
</svg>
