<svg id="Layer_1" data-name="Layer 1" xmlns="http://www.w3.org/2000/svg" viewBox="0 0 116.2 122.87"><defs><style>.cls-1{fill:#2a344d;}.cls-2{fill:#fff;}</style></defs><title>Jobs_Cleaning</title><path class="cls-1" d="M115.26,15.44a14.18,14.18,0,0,0-2.94-2.94,4.66,4.66,0,0,0-6.12.44L62.27,56.86a3.92,3.92,0,0,0-3.63,1l-4.41,4.41a8.4,8.4,0,0,0-7.82.56l-.19.13C38.91,68.9,17.62,83.92,7.12,82.7a1.85,1.85,0,0,0-2,1.27c-.3.93-2.48,9.5,13.33,25.31,11.86,11.86,19.65,13.6,23.19,13.6a7.08,7.08,0,0,0,2.12-.27,1.85,1.85,0,0,0,1.27-2c-.59-5.12,2.58-13.46,9.17-24.11a168.67,168.67,0,0,1,10.52-15l.13-.19a8.4,8.4,0,0,0,.56-7.82l4.41-4.41a3.92,3.92,0,0,0,1-3.62l43.92-43.92A4.67,4.67,0,0,0,115.26,15.44Z"/><path class="cls-2" d="M6,89.13a1.5,1.5,0,0,1-.16-3c5.79-.65,15.69-3,17.6-6.48A1.5,1.5,0,1,1,26.1,81.1c-3.28,6-18.21,7.83-19.9,8Z"/><path class="cls-2" d="M38.3,114.32c-3.81,0-12-1.82-24.25-14C-2.06,84.18-.19,75.11.35,73.45a3.37,3.37,0,0,1,3.56-2.29c8.86,1,28-11.34,38-19.37a3.58,3.58,0,0,1,.35-.25,9.89,9.89,0,0,1,8.23-1l3.72-3.72a5.41,5.41,0,0,1,4.15-1.57l43.4-43.4a6.16,6.16,0,0,1,8.08-.58,15.7,15.7,0,0,1,3.25,3.25h0a6.16,6.16,0,0,1-.58,8.08L69.11,56a5.39,5.39,0,0,1-1.57,4.15l-3.72,3.72a9.91,9.91,0,0,1-1,8.24,3.53,3.53,0,0,1-.25.34A166.08,166.08,0,0,0,52.13,87.26c-6.32,10.21-9.5,18.43-9,23.15A3.36,3.36,0,0,1,40.88,114,8.45,8.45,0,0,1,38.3,114.32ZM3.54,74.14a.35.35,0,0,0-.33.24c-.11.33-2.48,8.34,13,23.78C27.62,109.61,35,111.32,38.3,111.32a5.64,5.64,0,0,0,1.65-.19.35.35,0,0,0,.24-.37c-.64-5.54,2.52-14,9.39-25.07A169.79,169.79,0,0,1,60.21,70.53a6.9,6.9,0,0,0,.49-6.46l-.42-.94L65.42,58a2.42,2.42,0,0,0,.64-2.24l-.18-.8,44.5-44.5a3.18,3.18,0,0,0,.29-4.17A12.72,12.72,0,0,0,108,3.65a3.18,3.18,0,0,0-4.17.29l-44.5,44.5-.8-.18a2.4,2.4,0,0,0-2.24.64L51.2,54l-.94-.42a6.88,6.88,0,0,0-6.42.47c-.3.24-27,21.55-40.26,20Z"/><path class="cls-2" d="M66.45,56.47c-3.11-3.21-7.77-8-8.41-8.44l1.7-2.47c.85.57,6.48,6.36,8.86,8.83Z"/><path class="cls-2" d="M61.13,65.76c-1.77-9.34-12.2-12.51-12.3-12.54l.85-2.88c.5.15,12.29,3.73,14.4,14.85Z"/><path class="cls-2" d="M26.54,109.63a1.5,1.5,0,0,1-1.4-1c-2.5-6.39,5.56-16.39,6.49-17.5a1.5,1.5,0,0,1,2.31,1.91c-2.21,2.67-7.59,10.46-6,14.5a1.5,1.5,0,0,1-1.4,2Z"/><path class="cls-2" d="M15,99.63a1.5,1.5,0,0,1-.79-2.77l7.25-4.5a1.5,1.5,0,0,1,1.58,2.55l-7.25,4.5A1.49,1.49,0,0,1,15,99.63Z"/></svg>