<svg id="Layer_1" data-name="Layer 1" xmlns="http://www.w3.org/2000/svg" viewBox="0 0 122.16 91.67"><defs><style>.cls-1{fill:#232b40;}.cls-2{fill:#fff;}</style></defs><title>Jobs_Family</title><polygon class="cls-1" points="105.3 43.56 105.3 21.41 92.18 21.41 92.18 30.18 75.32 12.98 28.48 60.76 39.72 60.76 39.72 91.67 68.76 91.67 68.76 66.38 81.88 66.38 81.88 91.67 110.92 91.67 110.92 60.76 122.16 60.76 105.3 43.56"/><path class="cls-2" d="M104.33,82.33h-32V57H62.18V82.33h-32V51.42H16.82L67.23,0,82.6,15.67V9.07H98.71v23l18.93,19.31H104.33Zm-29-3h26V48.42h9.17L95.71,33.33V12.07H85.6V23L67.23,4.29,24,48.42h9.17V79.33h26V54H75.29Z"/></svg>