<svg id="Layer_1" data-name="Layer 1" xmlns="http://www.w3.org/2000/svg" viewBox="0 0 146.32 86.07"><defs><style>.cls-1{fill:#2a344d;}.cls-2{fill:#fff;}</style></defs><title>Jobs_Gardening</title><path class="cls-1" d="M145.13,22.92a5.11,5.11,0,0,0-3.5-1.8h0c-25.89-2.14-34.41,7.32-41.11,15.11L111.29,8.81,9.54,20.12l40.54,32c-1.47.51-2.94,1-4.39,1.58a19.89,19.89,0,1,0,4.11,9.46C60.17,59.31,69.54,56.89,77.68,56,80.44,58.62,87.85,65.7,92,68.69c2.66,1.94,5,2.36,7.19,1.26,3.26-1.66,3.25-5.7,3.25-6.5v-.63l-3.58-11.1a41.12,41.12,0,0,0,9.12-8.47c5.76-6.7,11.76-13.63,32.79-11.89a5.17,5.17,0,0,0,5.56-4.7A5.09,5.09,0,0,0,145.13,22.92Z"/><path class="cls-2" d="M21.27,77.92A20.27,20.27,0,1,1,37,44.89c1.22-.46,2.45-.9,3.68-1.33L0,11.44,103,0,92.66,26.25c6.6-7.54,15.62-15.93,40.21-13.89h0A5.44,5.44,0,0,1,132,23.2C111.1,21.47,105.46,28,99.49,35a41.39,41.39,0,0,1-8.9,8.4l3.7,10.92V55c0,.82-.17,5-3.59,6.77-2.26,1.15-4.94.72-7.69-1.28-4.09-3-11.38-9.92-14.22-12.66A121.29,121.29,0,0,0,41.35,54.9a20.27,20.27,0,0,1-20.08,23Zm0-37.54A17.27,17.27,0,1,0,38.2,54.23L37.95,53l1.19-.45c11.2-4.23,21.3-6.84,30-7.78l.7-.08.5.49C72,46.77,80.46,54.91,84.78,58c1.8,1.32,3.3,1.68,4.56,1,1.9-1,2-3.77,2-4.09V54.8L87,42,88,41.43c3.86-2.21,6.56-5.36,9.17-8.4,5.91-6.88,12.61-14.67,35-12.82a2.44,2.44,0,0,0,.4-4.86c-24.88-2.06-32.78,7.12-39.12,14.5a58.9,58.9,0,0,1-4.22,4.59L84.43,39,98.36,3.53,7.6,13.62l39.3,31-2.65.87c-2.4.79-4.83,1.66-7.22,2.57l-1.08.41-.67-.93A17.34,17.34,0,0,0,21.27,40.38Zm0,29.67a12.4,12.4,0,1,1,8.58-21.33l1.63,1.57-2.07.89a32.22,32.22,0,0,0-4.86,2.35,2.41,2.41,0,0,1-.45.3,2.44,2.44,0,0,0-1,3.28,1.88,1.88,0,0,0,1.88,1.15A2.42,2.42,0,0,0,26,58c.13-.07.37-.21,5.5-2.4l1.95-.83.14,2.11c0,.26,0,.52,0,.78A12.41,12.41,0,0,1,21.27,70Zm0-21.79a9.4,9.4,0,1,0,9.25,11c-2.43,1-2.93,1.28-3,1.33a5.53,5.53,0,0,1-2.56.65,4.86,4.86,0,0,1-4.55-2.77,5.44,5.44,0,0,1,2.27-7.3,14.38,14.38,0,0,1,3.21-1.74A9.32,9.32,0,0,0,21.27,48.25Zm67.5,9.58-2-1.17c-.18-.11-.4-.25-.64-.42A138.34,138.34,0,0,1,75.5,47l-2.68-2.53,3.69-.06a26.4,26.4,0,0,0,7-1L84.9,43l4.17,12.3-.08.34ZM80.07,47.12c1.46,1.35,3,2.73,4.41,3.95L83,46.6A27.76,27.76,0,0,1,80.07,47.12Z"/></svg>