<?xml version="1.0" encoding="UTF-8" standalone="no"?>
<svg width="30px" height="33px" viewBox="0 0 30 33" version="1.1" xmlns="http://www.w3.org/2000/svg" xmlns:xlink="http://www.w3.org/1999/xlink">
    <!-- Generator: Sketch 41.2 (35397) - http://www.bohemiancoding.com/sketch -->
    <title>Jobs_Family</title>
    <desc>Created with Sketch.</desc>
    <defs>
        <path d="M36.65,233.2 C34.9182,233.2 33.5,234.6182 33.5,236.35 C33.5,237.841 34.5518667,239.0898 35.95,239.412267 L35.95,243.7658 C34.6503333,243.9534 33.5182,244.645933 32.7561333,245.646933 L29.1030667,243.393867 C29.2309333,243.052733 29.3,242.684533 29.3,242.3 C29.3,240.5682 27.8818,239.15 26.15,239.15 C24.4182,239.15 23,240.5682 23,242.3 C23,244.0318 24.4182,245.45 26.15,245.45 C26.9942,245.45 27.7595333,245.110733 28.3265333,244.564267 L32.0780667,246.871933 C31.8741333,247.409533 31.75,247.991 31.75,248.6 C31.75,249.205267 31.876,249.781133 32.0780667,250.317333 L28.3158,252.625 C27.7488,252.085533 26.9886,251.75 26.15,251.75 C24.4182,251.75 23,253.1682 23,254.9 C23,256.6318 24.4182,258.05 26.15,258.05 C27.8818,258.05 29.3,256.6318 29.3,254.9 C29.3,254.511733 29.2234667,254.1398 29.0923333,253.7954 L32.7561333,251.542333 C33.5182,252.5466 34.6484667,253.2466 35.95,253.4342 L35.95,257.787733 C34.5518667,258.1102 33.5,259.359 33.5,260.85 C33.5,262.5818 34.9182,264 36.65,264 C38.3818,264 39.8,262.5818 39.8,260.85 C39.8,259.359 38.7481333,258.1102 37.35,257.787733 L37.35,253.4342 C38.6515333,253.2466 39.7818,252.5466 40.5438667,251.542333 L44.2076667,253.7954 C44.0765333,254.1398 44,254.511733 44,254.9 C44,256.6318 45.4182,258.05 47.15,258.05 C48.8818,258.05 50.3,256.6318 50.3,254.9 C50.3,253.1682 48.8818,251.75 47.15,251.75 C46.3114,251.75 45.5512,252.085533 44.9842,252.625 L41.2219333,250.317333 C41.424,249.781133 41.55,249.205267 41.55,248.6 C41.55,247.991 41.4258667,247.409533 41.2219333,246.871933 L44.9734667,244.564267 C45.5404667,245.110733 46.3058,245.45 47.15,245.45 C48.8818,245.45 50.3,244.0318 50.3,242.3 C50.3,240.5682 48.8818,239.15 47.15,239.15 C45.4182,239.15 44,240.5682 44,242.3 C44,242.684533 44.0690667,243.052733 44.1969333,243.393867 L40.5438667,245.646933 C39.7818,244.645933 38.6496667,243.9534 37.35,243.7658 L37.35,239.412267 C38.7481333,239.0898 39.8,237.841 39.8,236.35 C39.8,234.6182 38.3818,233.2 36.65,233.2 Z" id="path-1"></path>
        <mask id="mask-2" maskContentUnits="userSpaceOnUse" maskUnits="objectBoundingBox" x="-1" y="-1" width="37" height="37">
            <rect x="22" y="228" width="37" height="37" fill="white"></rect>
            <use xlink:href="#path-1" fill="black"></use>
        </mask>
    </defs>
    <g id="Page-1" stroke="none" stroke-width="1" fill="none" fill-rule="evenodd">
        <g id="0301_Jobs" transform="translate(-22.000000, -232.000000)">
            <g id="Jobs_Family">
                <use fill="#2A334D" fill-rule="evenodd" xlink:href="#path-1"></use>
                <use stroke="#FFFFFF" mask="url(#mask-2)" stroke-width="2" xlink:href="#path-1"></use>
            </g>
        </g>
    </g>
</svg>