<?xml version="1.0" encoding="UTF-8" standalone="no"?>
<svg width="42px" height="24px" viewBox="0 0 42 24" version="1.1" xmlns="http://www.w3.org/2000/svg" xmlns:xlink="http://www.w3.org/1999/xlink">
    <!-- Generator: Sketch 41.2 (35397) - http://www.bohemiancoding.com/sketch -->
    <title>Jobs_Gardening</title>
    <desc>Created with Sketch.</desc>
    <defs></defs>
    <g id="Page-1" stroke="none" stroke-width="1" fill="none" fill-rule="evenodd">
        <g id="0301_Jobs" transform="translate(-19.000000, -281.000000)">
            <g id="Jobs_Gardening" transform="translate(19.000000, 281.000000)">
                <g id="Layer_1">
                    <path d="M41.3559494,4.53265823 C41.0887462,4.21572469 40.7058837,4.018824 40.2926582,3.98582278 L40.2926582,3.98582278 C32.4273418,3.3356962 29.8389873,6.20962025 27.8035443,8.57620253 L31.075443,0.246075949 L0.164050633,3.68202532 L12.48,13.4035443 C12.0334177,13.558481 11.5868354,13.7073418 11.1463291,13.8835443 C9.25856586,11.5111964 5.90507108,10.9050075 3.30624193,12.466344 C0.707412784,14.0276806 -0.332087201,17.273113 0.876009881,20.0537939 C2.08410696,22.8344748 5.16574356,24.2894346 8.08052373,23.4553236 C10.9953039,22.6212125 12.8407376,19.7562925 12.3949367,16.7574684 C15.5453165,15.5878481 18.3918987,14.8526582 20.8648101,14.5822785 C21.7032911,15.3782278 23.9544304,17.5291139 25.2151899,18.4374684 C26.0232911,19.0268354 26.7341772,19.1544304 27.3994937,18.8202532 C28.3898734,18.3159494 28.3868354,17.0886076 28.3868354,16.8455696 L28.3868354,16.6541772 L27.2992405,13.2820253 C28.3479976,12.5698546 29.2822416,11.7021959 30.0698734,10.7088608 C31.8197468,8.67341772 33.6425316,6.56810127 40.0313924,7.09670886 C40.8909072,7.16507815 41.6448367,6.52776361 41.7205063,5.66886076 C41.7558958,5.25660562 41.6245884,4.84736413 41.3559494,4.53265823 L41.3559494,4.53265823 Z" id="Shape" fill="#2A344D"></path>
                    <path d="M6.46177215,23.9756962 C3.59392326,23.9784924 1.10379193,22.0012121 0.456631872,19.2073351 C-0.190528187,16.413458 1.17662601,13.542695 3.75362777,12.2842725 C6.33062952,11.0258501 9.43518828,11.7129499 11.2405063,13.9412658 C11.6111392,13.801519 11.9848101,13.6678481 12.358481,13.5372152 L0,3.77924051 L31.2911392,0.303797468 L28.1498734,8.27848101 C30.1549367,5.9878481 32.8951899,3.43898734 40.3655696,4.05873418 L40.3655696,4.05873418 C41.2530443,4.15750427 41.9015666,4.94337397 41.8301293,5.83346582 C41.7586921,6.72355767 40.9931333,7.39593561 40.1012658,7.35189873 C33.7518987,6.82632911 32.038481,8.81012658 30.2248101,10.9367089 C29.4549743,11.9166201 28.5437502,12.7766518 27.5210127,13.4886076 L28.6450633,16.8060759 L28.6450633,17.0126582 C28.6450633,17.2617722 28.5934177,18.5316456 27.5544304,19.0693671 C26.8678481,19.4187342 26.0536709,19.2881013 25.2182278,18.6805063 C23.9756962,17.7691139 21.7610127,15.6668354 20.8982278,14.8344304 C18.0451194,15.2222173 15.2472969,15.9430848 12.5620253,16.9822785 C12.8014289,18.7436322 12.2680396,20.522518 11.0989998,21.8615576 C9.92996003,23.2005972 8.23932124,23.9691539 6.46177215,23.9696203 L6.46177215,23.9756962 Z M6.46177215,12.5711392 C4.24423929,12.5713986 2.26633398,13.9658095 1.52101874,16.0543394 C0.775703493,18.1428693 1.42394686,20.4744507 3.14031295,21.8785659 C4.85667904,23.2826811 7.27047781,23.4560781 9.1699163,22.3117069 C11.0693548,21.1673357 12.0442041,18.9523504 11.6050633,16.7787342 L11.5291139,16.4050633 L11.8906329,16.2683544 C15.2931646,14.9832911 18.361519,14.1903797 21.004557,13.9048101 L21.2172152,13.8805063 L21.3691139,14.0293671 C21.8734177,14.5124051 24.4435443,16.9853165 25.7559494,17.9240506 C26.3027848,18.3250633 26.758481,18.4344304 27.1412658,18.2278481 C27.718481,17.9240506 27.7488608,17.0825316 27.7488608,16.9853165 L27.7488608,16.9518987 L26.4303797,13.0632911 L26.7341772,12.8901266 C27.9068354,12.2187342 28.7270886,11.2617722 29.52,10.3382278 C31.315443,8.24810127 33.3508861,5.88151899 40.1529114,6.4435443 C40.5508923,6.46102018 40.8915212,6.16081799 40.9241979,5.76379604 C40.9568746,5.36677409 40.669913,5.01491837 40.2744304,4.96708861 C32.7159494,4.34126582 30.3159494,7.13012658 28.3898734,9.3721519 C27.9874508,9.8592709 27.5595096,10.324733 27.1078481,10.7665823 L25.6496203,12.1518987 L29.881519,1.37620253 L2.30886076,4.44151899 L14.2481013,13.8592405 L13.443038,14.1235443 C12.7139241,14.3635443 11.9756962,14.6278481 11.2496203,14.9043038 L10.921519,15.0288608 L10.7179747,14.7463291 C9.7287638,13.3823013 8.14673597,12.5737846 6.46177215,12.5711392 L6.46177215,12.5711392 Z M6.46177215,21.5848101 C4.76459376,21.5879828 3.2748547,20.4558665 2.82337576,18.8198374 C2.37189683,17.1838082 3.0701717,15.4478871 4.52877561,14.5801895 C5.98737952,13.7124919 7.84610715,13.9272974 9.06835443,15.1048101 L9.5635443,15.5817722 L8.93468354,15.8521519 C8.42342717,16.0484059 7.92954224,16.2872186 7.45822785,16.5660759 C7.41622216,16.6014888 7.37036385,16.6320611 7.32151899,16.6572152 C6.96458707,16.8502293 6.82918295,17.2943548 7.01772152,17.6536709 C7.11272824,17.8812028 7.34302627,18.0220766 7.58886076,18.003038 C7.69669623,17.9997639 7.80248967,17.972797 7.89873418,17.9240506 C7.93822785,17.9027848 8.01113924,17.8602532 9.56962025,17.1949367 L10.1620253,16.9427848 L10.204557,17.5837975 L10.204557,17.8207595 C10.1929728,19.8840146 8.5250058,21.5546894 6.46177215,21.5696203 L6.46177215,21.5848101 Z M6.46177215,14.9650633 C4.94733044,14.9629967 3.69464403,16.1435293 3.60696858,17.6554324 C3.51929312,19.1673355 4.62712297,20.4847548 6.13165201,20.6577586 C7.63618105,20.8307625 9.01411977,19.7991786 9.27189873,18.3068354 C8.53367089,18.6106329 8.38177215,18.6956962 8.36050633,18.7108861 C8.12102108,18.8385605 7.85416973,18.9063157 7.58278481,18.9083544 C6.99564146,18.9278249 6.45281818,18.5973589 6.20050633,18.0668354 C5.7846689,17.2634436 6.09202758,16.2750214 6.89012658,15.8491139 C7.1914085,15.6321907 7.51911278,15.4545566 7.86531646,15.3205063 C7.43646833,15.0813289 6.9527901,14.9577921 6.46177215,14.9620253 L6.46177215,14.9650633 Z M26.9681013,17.875443 L26.3605063,17.52 C26.3058228,17.4865823 26.2389873,17.4440506 26.1660759,17.3924051 C25.0425823,16.5111631 23.9647288,15.5732378 22.9367089,14.5822785 L22.1225316,13.8136709 L23.2435443,13.795443 C23.9628209,13.7899968 24.6780961,13.6878146 25.3701266,13.4916456 L25.7924051,13.3670886 L27.0592405,17.1037975 L27.0349367,17.2070886 L26.9681013,17.875443 Z M24.3250633,14.6187342 C24.7686076,15.0288608 25.2364557,15.4481013 25.6648101,15.8187342 L25.2151899,14.4607595 C24.9215188,14.5292944 24.6243832,14.5820284 24.3250633,14.6187342 L24.3250633,14.6187342 Z" id="Shape" fill="#FFFFFF"></path>
                </g>
            </g>
        </g>
    </g>
</svg>