<?xml version="1.0" encoding="UTF-8" standalone="no"?>
<svg width="29px" height="30px" viewBox="0 0 29 30" version="1.1" xmlns="http://www.w3.org/2000/svg" xmlns:xlink="http://www.w3.org/1999/xlink">
    <!-- Generator: Sketch 41.2 (35397) - http://www.bohemiancoding.com/sketch -->
    <title>Jobs_Laundry</title>
    <desc>Created with Sketch.</desc>
    <defs></defs>
    <g id="Page-1" stroke="none" stroke-width="1" fill="none" fill-rule="evenodd">
        <g id="0301_Jobs" transform="translate(-23.000000, -324.000000)">
            <g id="Jobs_Laundry" transform="translate(23.000000, 324.000000)">
                <g id="Layer_1">
                    <path d="M28.2404494,15.8022472 C27.9775281,14.6426966 27.6404494,2.89550562 27.6404494,2.84831461 L27.6404494,2.49438202 L21.9101124,2.68651685 L21.8662921,2.80449438 L15.7651685,0.141573034 L15.4280899,0.876404494 C13.7561798,4.68539326 10.8640449,11.1910112 10.4494382,12.0235955 L10.4494382,12.0539326 C10.1123596,12.6303371 5.68651685,15.1685393 4.78314607,15.6202247 C3.37752809,16.3179775 1.7494382,17.0932584 1.29775281,18.8224719 C0.805617978,20.7707865 2.49438202,22.3483146 3.16853933,22.7797753 L3.16853933,22.7797753 C3.16853933,22.8573034 5.55842697,23.4101124 7.60449438,22.0719101 C7.76629213,21.9808989 7.94157303,21.8966292 8.08314607,21.8292135 C8.85505618,21.4382022 13.0247191,19.1966292 13.5775281,19.0820225 C14.1077303,18.9929466 14.6235737,18.8330918 15.111236,18.6067416 C16.2606742,18.047191 16.7022472,16.6516854 17.005618,15.2359551 C17.1539326,14.5314607 18.9573034,10.3179775 20.3764045,7.09213483 C20.5044944,11.0561798 20.9696629,14.9932584 20.9460674,15.741573 L20.9460674,15.7752809 C20.8988764,16.4191011 18,20.6258427 17.3764045,21.4213483 C16.405618,22.6550562 15.2629213,24.0438202 15.6134831,25.8033708 C16.0078652,27.7719101 18.0033708,28.5 19.0146067,28.547191 L19.0146067,28.547191 C20.5650792,28.2979821 21.9240936,27.3713814 22.7224719,26.0191011 C22.8303371,25.8674157 22.9550562,25.7258427 23.0595506,25.6044944 C23.588764,24.9303371 26.3831461,21.1078652 26.8348315,20.7640449 C27.2749983,20.456808 27.6718178,20.0917341 28.0146067,19.6786517 C28.7831461,18.6674157 28.5842697,17.2179775 28.2404494,15.8022472 Z" id="Shape" fill="#2A344D"></path>
                    <path d="M4.07191011,24.3404494 C3.54366817,24.3555583 3.0167952,24.2791503 2.51460674,24.1146067 C1.53370787,23.5955056 -0.256179775,21.8426966 0.313483146,19.5741573 C0.802247191,17.6359551 2.56516854,16.7629213 3.98089888,16.0617978 L4.01797753,16.041573 C5.14719101,15.4820225 9.0741573,13.1764045 9.44831461,12.6707865 L9.44831461,12.6539326 C9.8494382,11.8685393 12.694382,5.4741573 14.4134831,1.5505618 L14.9393258,0.353932584 L22.3078652,3.56966292 L21.9707865,4.35842697 C19.6719101,9.5494382 17.1337079,15.4617978 16.9752809,16.2101124 L16.9752809,16.2101124 C16.6382022,17.7606742 16.1595506,19.2842697 14.811236,19.941573 C14.2818241,20.1866685 13.7216887,20.3590178 13.1460674,20.4539326 C12.7449438,20.5516854 9.98426966,22.0044944 8.80786517,22.6247191 L7.79662921,23.1573034 C7.66853933,23.2213483 7.52359551,23.2988764 7.3752809,23.3831461 C6.3901032,24.0154266 5.24250688,24.3479953 4.07191011,24.3404494 Z M2.93258427,23.1910112 C4.27252488,23.5000146 5.6804397,23.2570612 6.83932584,22.5168539 L6.87303371,22.4966292 C7.04157303,22.4022472 7.21011236,22.3179775 7.34494382,22.2438202 L8.35617978,21.7213483 C11.0089888,20.3258427 12.5325843,19.5505618 12.947191,19.4629213 C13.4342585,19.3819454 13.9081884,19.2356847 14.3561798,19.0280899 C15.3101124,18.5629213 15.7044944,17.2955056 15.9707865,15.994382 L15.9707865,15.994382 C16.2067416,14.8820225 20.052809,6.15168539 20.9696629,4.08202247 L15.4685393,1.68539326 L15.347191,1.95842697 C13.6449438,5.84831461 10.7865169,12.2865169 10.3516854,13.1292135 L10.3280899,13.1696629 C9.88651685,14.0325843 4.52022472,16.9247191 4.46629213,16.9516854 L4.42921348,16.9719101 C3.08089888,17.6460674 1.66853933,18.3202247 1.29438202,19.8235955 C0.873033708,21.4955056 2.31910112,22.8539326 2.93258427,23.1910112 Z" id="Shape" fill="#FFFFFF"></path>
                    <path d="M12.2258427,20.2651685 C11.8382022,18.3235955 12.111236,16.8202247 13.0314607,15.7988764 C14.4168539,14.2617978 16.7393258,14.4505618 16.8303371,14.4505618 L16.7359551,15.4617978 L16.7831461,14.9595506 L16.7393258,15.4617978 C16.7191011,15.4617978 14.8213483,15.3067416 13.7797753,16.4730337 C13.088764,17.2449438 12.9,18.4516854 13.2202247,20.0629213 L12.2258427,20.2651685 Z" id="Shape" fill="#FFFFFF"></path>
                    <rect id="Rectangle-path" fill="#FFFFFF" transform="translate(17.298392, 4.778596) rotate(-67.870000) translate(-17.298392, -4.778596) " x="16.7927737" y="1.12634849" width="1.01123596" height="7.30449438"></rect>
                    <rect id="Rectangle-path" fill="#FFFFFF" transform="translate(3.165336, 21.010165) rotate(-30.860000) translate(-3.165336, -21.010165) " x="2.6597182" y="17.7624121" width="1.01123596" height="6.49550562"></rect>
                    <path d="M18.5393258,29.9157303 C17.4337079,29.8752809 15.0573034,29.0561798 14.5988764,26.7640449 C14.2044944,24.8022472 15.4179775,23.258427 16.3955056,22.0179775 L16.4224719,21.9842697 C17.2011236,20.9932584 19.7561798,17.2179775 19.8741573,16.5910112 C19.8741573,16.3179775 19.8134831,15.5089888 19.7258427,14.4842697 C19.5842697,12.7988764 19.3685393,10.2370787 19.294382,7.74269663 L20.305618,7.71235955 C20.3797753,10.1865169 20.5921348,12.7247191 20.7337079,14.4067416 C20.8280899,15.5460674 20.8921348,16.2977528 20.8820225,16.6213483 L20.8820225,16.6651685 C20.8550562,17.6393258 17.2550562,22.5573034 17.2179775,22.6044944 L17.1910112,22.6382022 C16.2573034,23.8280899 15.2898876,25.058427 15.5898876,26.5617978 C15.9269663,28.2235955 17.7134831,28.8573034 18.5191011,28.8977528 C19.8650115,28.6093348 21.0384184,27.791837 21.7752809,26.6292135 L21.7955056,26.5955056 C21.9067416,26.4404494 22.0146067,26.2921348 22.1123596,26.1674157 C22.2101124,26.0426966 22.4797753,25.6786517 22.7865169,25.2640449 C24.6067416,22.8404494 25.6179775,21.4820225 25.9550562,21.2359551 C26.3610628,20.9496877 26.7262126,20.609486 27.0404494,20.2247191 C27.7146067,19.3921348 27.505618,18.0842697 27.1955056,16.7932584 C26.9359551,15.7213483 26.6629213,6.78876404 26.5786517,3.88988764 L21.3539326,4.06516854 L21.3202247,3.05393258 L27.5595506,2.84494382 L27.5865169,3.75168539 C27.7516854,9.59325843 28.0011236,15.8157303 28.1797753,16.5606742 C28.5505618,18.1011236 28.7662921,19.688764 27.8426966,20.858427 C27.4755129,21.3030518 27.0503779,21.6964434 26.5786517,22.0280899 C26.241573,22.2910112 24.3910112,24.7921348 23.5955056,25.8573034 C23.2853933,26.2921348 23.0359551,26.6292135 22.9213483,26.7775281 C22.8067416,26.9258427 22.7393258,27.0235955 22.6382022,27.1617978 C21.7340708,28.628963 20.2393865,29.633204 18.5393258,29.9157303 L18.5393258,29.9157303 Z" id="Shape" fill="#FFFFFF"></path>
                    <path d="M25.6617978,22.247191 C24.4752809,20.6595506 24.0741573,19.1865169 24.4651685,17.8651685 C25.0550562,15.8797753 27.2292135,15.0573034 27.3202247,15.0235955 L27.6573034,15.9707865 L27.4955056,15.505618 L27.6707865,15.9808989 C27.6539326,15.9808989 25.8741573,16.6550562 25.4325843,18.1651685 C25.1393258,19.1595506 25.4898876,20.3292135 26.4707865,21.6438202 L25.6617978,22.247191 Z" id="Shape" fill="#FFFFFF"></path>
                    <rect id="Rectangle-path" fill="#FFFFFF" transform="translate(23.796063, 6.103970) rotate(-3.580000) translate(-23.796063, -6.103970) " x="20.3629166" y="5.59835209" width="6.86629213" height="1.01123596"></rect>
                    <rect id="Rectangle-path" fill="#FFFFFF" transform="translate(17.809809, 26.833961) rotate(-56.360000) translate(-17.809809, -26.833961) " x="17.3041915" y="23.5862077" width="1.01123596" height="6.49550562"></rect>
                </g>
            </g>
        </g>
    </g>
</svg>