<?xml version="1.0" encoding="UTF-8" standalone="no"?>
<svg width="25px" height="24px" viewBox="0 0 25 24" version="1.1" xmlns="http://www.w3.org/2000/svg" xmlns:xlink="http://www.w3.org/1999/xlink">
    <!-- Generator: Sketch 41.2 (35397) - http://www.bohemiancoding.com/sketch -->
    <title>Jobs_General</title>
    <desc>Created with Sketch.</desc>
    <defs></defs>
    <g id="Page-1" stroke="none" stroke-width="1" fill="none" fill-rule="evenodd">
        <g id="Health-Files" transform="translate(-21.000000, -147.000000)">
            <g id="Jobs_General" transform="translate(21.000000, 147.000000)">
                <g id="Layer_1">
                    <polygon id="Shape" fill="#232B40" points="12.7634043 0.921702128 15.4468085 9.1787234 24.1302128 9.1787234 17.106383 14.2825532 19.7897872 22.5395745 12.7634043 17.4357447 5.73957447 22.5395745 8.42297872 14.2825532 1.39914894 9.1787234 10.0825532 9.1787234"></polygon>
                    <path d="M20.2978723,23.8621277 L12.5438298,18.2297872 L4.79234043,23.8621277 L7.75404255,14.747234 L0,9.11489362 L9.58468085,9.11489362 L12.5438298,0 L15.5055319,9.11489362 L25.0902128,9.11489362 L17.3361702,14.747234 L20.2978723,23.8621277 Z M2.35659574,9.88085106 L8.65276596,14.453617 L6.24765957,21.8578723 L12.5438298,17.2825532 L18.84,21.8553191 L16.4348936,14.4510638 L22.7234043,9.88085106 L14.9489362,9.88085106 L12.5438298,2.47659574 L10.1387234,9.88085106 L2.35659574,9.88085106 Z" id="Shape" fill="#FFFFFF"></path>
                </g>
            </g>
        </g>
    </g>
</svg>