<?xml version="1.0" encoding="UTF-8" standalone="no"?>
<svg width="26px" height="24px" viewBox="0 0 26 24" version="1.1" xmlns="http://www.w3.org/2000/svg" xmlns:xlink="http://www.w3.org/1999/xlink">
    <!-- Generator: Sketch 41.2 (35397) - http://www.bohemiancoding.com/sketch -->
    <title>Jobs_Shopping</title>
    <desc>Created with Sketch.</desc>
    <defs></defs>
    <g id="Page-1" stroke="none" stroke-width="1" fill="none" fill-rule="evenodd">
        <g id="0301_Jobs" transform="translate(-23.000000, -545.000000)">
            <g id="Jobs_Shopping" transform="translate(23.000000, 545.000000)">
                <g id="Layer_1">
                    <path d="M11.7261176,1.93976471 C11.8940745,1.519116 11.8248596,1.04081664 11.5445456,0.685037383 C11.2642316,0.329258123 10.8154047,0.150050288 10.3671338,0.214919736 C9.91886293,0.279789184 9.53925098,0.578880703 9.37129412,0.999529412 L5.64705882,10.3369412 L8.37458824,10.3369412 L11.7261176,1.93976471 Z" id="Shape" fill="#232B40"></path>
                    <path d="M16.7943529,0.999529412 C16.5347141,0.349262876 15.7970901,0.0325965367 15.1468235,0.292235337 C14.496557,0.551874137 14.1798906,1.28949815 14.4395294,1.93976471 L17.7882353,10.3369412 L20.5270588,10.3369412 L16.7943529,0.999529412 Z" id="Shape" fill="#232B40"></path>
                    <path d="M19.5896471,9.53223529 L2.19952941,9.53223529 C1.37818312,9.58178685 0.737453139,10.2623368 0.737453139,11.0851765 C0.737453139,11.9080161 1.37818312,12.5885661 2.19952941,12.6381176 L2.63717647,12.6381176 L5.52282353,22.0235294 C5.72733244,22.5954466 6.25724364,22.987023 6.864,23.0145882 L19.3016471,23.0145882 C19.9097202,22.9889071 20.4413999,22.5968492 20.6456471,22.0235294 L23.5312941,12.6494118 L23.9689412,12.6494118 C24.5461019,12.6842317 25.0949626,12.3960933 25.3940665,11.9012561 C25.6931703,11.4064189 25.6931703,10.7865223 25.3940665,10.2916851 C25.0949626,9.79684784 24.5461019,9.50870949 23.9689412,9.54352941 L19.5896471,9.54352941 L19.5896471,9.53223529 Z" id="Shape" fill="#232B40"></path>
                    <path d="M9.37411765,9.22729412 L6.23152941,9.22729412 L9.51811765,1.00517647 C9.81752096,0.255888514 10.6676532,-0.10881505 11.4169412,0.190588256 C12.1662291,0.489991561 12.5309327,1.3401238 12.2315294,2.08941176 L12.2315294,2.08941176 L9.37411765,9.22729412 Z M7.47952941,8.38023529 L8.80094118,8.38023529 L11.4437647,1.776 L11.4437647,1.776 C11.5264478,1.47574215 11.3707342,1.16122625 11.0818245,1.04494011 C10.7929149,0.928653965 10.462734,1.04759734 10.3143529,1.32141176 L7.47952941,8.38023529 Z" id="Shape" fill="#FFFFFF"></path>
                    <path d="M19.6658824,9.22729412 L16.5204706,9.22729412 L13.6658824,2.08941176 C13.3757144,1.34314124 13.7408473,0.502416263 14.4842766,0.20504452 C15.227706,-0.092327222 16.0719229,0.264657818 16.3764706,1.00517647 L19.6658824,9.22729412 Z M17.0936471,8.38023529 L18.4150588,8.38023529 L15.5915294,1.32141176 C15.4431484,1.04759734 15.1129675,0.928653965 14.8240578,1.04494011 C14.5351481,1.16122625 14.3794346,1.47574215 14.4621176,1.776 L17.0936471,8.38023529 Z" id="Shape" fill="#FFFFFF"></path>
                    <path d="M19.1661176,23.7402353 L6.72847059,23.7402353 C5.93460651,23.7143514 5.23918844,23.2009329 4.98070588,22.4498824 L2.18823529,13.3750588 L2.06117647,13.3750588 C0.969601906,13.3750588 0.0847058824,12.4901628 0.0847058824,11.3985882 C0.0847058824,10.3070137 0.969601906,9.42211765 2.06117647,9.42211765 L23.8305882,9.42211765 C24.9221628,9.42211765 25.8070588,10.3070137 25.8070588,11.3985882 C25.8070588,12.4901628 24.9221628,13.3750588 23.8305882,13.3750588 L23.7176471,13.3750588 L20.9138824,22.4498824 C20.6553998,23.2009329 19.9599817,23.7143514 19.1661176,23.7402353 Z M2.064,10.2635294 C1.44024311,10.2635294 0.934588235,10.7691843 0.934588235,11.3929412 C0.934588235,12.0166981 1.44024311,12.5223529 2.064,12.5223529 L2.82352941,12.5223529 L5.79105882,22.2014118 C5.9396296,22.5967901 6.30686314,22.8677907 6.72847059,22.8931765 L19.1661176,22.8931765 C19.5877251,22.8677907 19.9549586,22.5967901 20.1035294,22.2014118 L23.0795294,12.528 L23.8305882,12.528 C24.4543451,12.528 24.96,12.0223451 24.96,11.3985882 C24.96,10.7748313 24.4543451,10.2691765 23.8305882,10.2691765 L2.064,10.2635294 Z" id="Shape" fill="#FFFFFF"></path>
                    <path d="M17.0936471,21.6338824 C16.2880857,21.6323287 15.635436,20.979679 15.6338824,20.1741176 L15.6338824,14.9901176 C15.6338824,14.1839119 16.2874413,13.5303529 17.0936471,13.5303529 C17.8998528,13.5303529 18.5534118,14.1839119 18.5534118,14.9901176 L18.5534118,20.1741176 C18.5518581,20.979679 17.8992084,21.6323287 17.0936471,21.6338824 Z M17.0936471,14.3774118 C16.7552589,14.3774118 16.4809412,14.6517295 16.4809412,14.9901176 L16.4809412,20.1741176 C16.4809412,20.5125058 16.7552589,20.7868235 17.0936471,20.7868235 C17.4320352,20.7868235 17.7063529,20.5125058 17.7063529,20.1741176 L17.7063529,14.9901176 C17.7063529,14.6517295 17.4320352,14.3774118 17.0936471,14.3774118 Z M12.9487059,21.6338824 C12.1431445,21.6323287 11.4904948,20.979679 11.4889412,20.1741176 L11.4889412,14.9901176 C11.4889412,14.1839119 12.1425001,13.530353 12.9487059,13.530353 C13.7549116,13.530353 14.4084706,14.1839119 14.4084706,14.9901176 L14.4084706,20.1741176 C14.4069169,20.979679 13.7542673,21.6323287 12.9487059,21.6338824 Z M12.9487059,14.3774118 C12.7862062,14.3774118 12.630362,14.4419645 12.5154574,14.5568692 C12.4005528,14.6717738 12.336,14.8276179 12.336,14.9901176 L12.336,20.1741176 C12.336,20.5125058 12.6103178,20.7868235 12.9487059,20.7868235 C13.287094,20.7868235 13.5614118,20.5125058 13.5614118,20.1741176 L13.5614118,14.9901176 C13.5614118,14.6517295 13.287094,14.3774118 12.9487059,14.3774118 Z M8.80094118,21.6338824 C7.99537981,21.6323287 7.34273011,20.979679 7.34117647,20.1741176 L7.34117647,14.9901176 C7.34117647,14.1839119 7.99473539,13.5303529 8.80094118,13.5303529 C9.60714696,13.5303529 10.2607059,14.1839119 10.2607059,14.9901176 L10.2607059,20.1741176 C10.2591522,20.979679 9.60650254,21.6323287 8.80094118,21.6338824 Z M8.80094118,14.3774118 C8.63844147,14.3774118 8.48259733,14.4419645 8.36769269,14.5568692 C8.25278805,14.6717738 8.18823529,14.8276179 8.18823529,14.9901176 L8.18823529,20.1741176 C8.18823531,20.5125057 8.46255308,20.7868235 8.80094118,20.7868235 C9.13932928,20.7868235 9.41364704,20.5125057 9.41364706,20.1741176 L9.41364706,14.9901176 C9.41364706,14.6517295 9.13932929,14.3774118 8.80094118,14.3774118 Z" id="Shape" fill="#FFFFFF"></path>
                </g>
            </g>
        </g>
    </g>
</svg>