<?xml version="1.0" encoding="UTF-8" standalone="no"?>
<svg width="39px" height="24px" viewBox="0 0 39 24" version="1.1" xmlns="http://www.w3.org/2000/svg" xmlns:xlink="http://www.w3.org/1999/xlink">
    <!-- Generator: Sketch 41.2 (35397) - http://www.bohemiancoding.com/sketch -->
    <title>Jobs_Meals</title>
    <desc>Created with Sketch.</desc>
    <defs></defs>
    <g id="Page-1" stroke="none" stroke-width="1" fill="none" fill-rule="evenodd">
        <g id="0301_Jobs" transform="translate(-17.000000, -373.000000)">
            <g id="Jobs_Meals" transform="translate(17.000000, 373.000000)">
                <g id="Layer_1">
                    <polygon id="Shape" fill="#2A344D" points="0.158918919 18.9697297 2.82727924 23.8345946 34.8656937 23.8345946 37.5340541 18.9697297"></polygon>
                    <path d="M18.237437,2.59459459 C10.1207975,2.88 3.72879307,10.2486486 3.72879307,19.1772973 L33.9641799,19.1772973 C33.9641799,10.2454054 27.3158923,2.9027027 19.2716151,2.59459459 L18.237437,2.59459459 Z" id="Shape" fill="#2A344D"></path>
                    <path d="M19.2746302,2.59459459 L19.2746302,1.03459459 L20.9872049,1.03459459 C21.0983038,1.03985969 21.2066832,0.996716377 21.2878302,0.914922693 C21.3689772,0.833129009 21.4160363,0.719595192 21.4183637,0.6 C21.4183637,0.311351351 21.1892164,0.194594595 20.9148426,0.194594595 L16.705768,0.194594595 C16.481123,0.194536652 16.2976191,0.387603596 16.2926998,0.629189189 C16.2926998,0.917837838 16.5218472,1.03459459 16.7962209,1.03459459 L18.2464823,1.03459459 L18.2464823,2.59135135" id="Shape" fill="#2A344D"></path>
                    <polygon id="Shape" stroke="#FFFFFF" points="0.924324324 19.4562162 3.59351351 23.3481081 35.6302703 23.3481081 38.2994595 19.4562162"></polygon>
                    <path d="M19.0021622,2.54918919 C10.8940541,2.81513514 4.49189189,9.66486486 4.49189189,17.9675676 L34.7286486,17.9675676 C34.7286486,9.66486486 28.08,2.83783784 20.0367568,2.54918919 L18.9989189,2.54918919 L19.0021622,2.54918919 Z" id="Shape" stroke="#FFFFFF"></path>
                    <path d="M15.7232432,6.07783784 C13.6798554,6.0841096 11.7932904,7.17431699 10.7675676,8.94162162 C10.7017775,9.07725369 10.5656609,9.16470353 10.4149545,9.16816242 C10.2642481,9.17162132 10.1242628,9.09050835 10.0523194,8.95803743 C9.98037608,8.82556651 9.98855747,8.66398601 10.0735135,8.53945946 C11.2424665,6.52407161 13.3933961,5.28068119 15.7232432,5.27351351 C15.9453513,5.27351352 16.1254054,5.45356765 16.1254054,5.67567568 C16.1254054,5.8977837 15.9453513,6.07783783 15.7232432,6.07783784 L15.7232432,6.07783784 Z" id="Shape" fill="#FFFFFF"></path>
                    <path d="M20.04,2.54918919 L20.04,1.1027027 L21.7524324,1.1027027 C21.8622349,1.10619215 21.9688816,1.06567304 22.0486652,0.990152648 C22.1284489,0.91463226 22.1747577,0.81036908 22.1772973,0.700540541 C22.1675676,0.431351351 21.947027,0.324324324 21.6745946,0.324324324 L17.4583784,0.324324324 C17.3485759,0.320834874 17.2419292,0.36135399 17.1621456,0.436874379 C17.0823619,0.512394767 17.0360531,0.616657947 17.0335135,0.726486486 C17.0335135,0.995675676 17.2637838,1.1027027 17.5362162,1.1027027 L18.9859459,1.1027027 L18.9859459,2.54918919" id="Shape" fill="#FFFFFF"></path>
                </g>
            </g>
        </g>
    </g>
</svg>