<?xml version="1.0" encoding="UTF-8" standalone="no"?>
<svg width="25px" height="24px" viewBox="0 0 25 24" version="1.1" xmlns="http://www.w3.org/2000/svg" xmlns:xlink="http://www.w3.org/1999/xlink">
    <!-- Generator: Sketch 41.2 (35397) - http://www.bohemiancoding.com/sketch -->
    <title>Jobs_Cleaning</title>
    <desc>Created with Sketch.</desc>
    <defs></defs>
    <g id="Page-1" stroke="none" stroke-width="1" fill="none" fill-rule="evenodd">
        <g id="0301_Jobs" transform="translate(-25.000000, -459.000000)">
            <g id="Jobs_Cleaning" transform="translate(25.000000, 459.000000)">
                <g id="Layer_1">
                    <path d="M23.6368696,1.13530435 C23.4636061,0.901746276 23.2568624,0.695002624 23.0233043,0.52173913 C22.6346374,0.228200602 22.0887655,0.267446292 21.746087,0.613565217 L12.578087,9.77947826 C12.3064986,9.71527587 12.0209178,9.79394827 11.8205217,9.98817391 L10.9001739,10.9085217 C10.3702414,10.6756526 9.75951707,10.7193873 9.26817391,11.0253913 L9.22852174,11.0525217 C7.70295652,12.2921739 3.25982609,15.4267826 1.06852174,15.1721739 C0.883648736,15.1481645 0.708024829,15.2596857 0.651130435,15.4372174 C0.588521739,15.6313043 0.133565217,17.4198261 3.43304348,20.7193043 C5.90817391,23.1944348 7.53391304,23.5575652 8.27269565,23.5575652 C8.42217549,23.5612775 8.57135286,23.5422785 8.71513043,23.5012174 C8.89266214,23.444323 9.00418332,23.2686991 8.98017391,23.0838261 C8.85704348,22.0153043 9.5186087,20.2747826 10.893913,18.0521739 C11.5684844,16.9696906 12.3013914,15.9246711 13.0893913,14.9217391 L13.1165217,14.882087 C13.4225257,14.3907438 13.4662604,13.7800195 13.2333913,13.250087 L14.1537391,12.3297391 C14.3472594,12.1297933 14.4258788,11.8451913 14.3624348,11.5742609 L23.5283478,2.40834783 C23.8764163,2.07019714 23.9226798,1.52749059 23.6368696,1.13530435 L23.6368696,1.13530435 Z" id="Shape" fill="#2A344D"></path>
                    <path d="M1.46086957,18.6010435 C1.28798043,18.6102642 1.14035121,18.4775848 1.13113045,18.3046957 C1.1219097,18.1318065 1.25458913,17.9841773 1.42747826,17.9749565 C2.63582609,17.8393043 4.70191304,17.3488696 5.10052174,16.6226087 C5.15457758,16.5234442 5.25743086,16.4606509 5.37033776,16.4578823 C5.48324465,16.4551138 5.58905192,16.5127907 5.64790298,16.6091867 C5.70675404,16.7055827 5.70970801,16.8260529 5.65565217,16.9252174 C4.97113043,18.1773913 1.85530435,18.5593043 1.5026087,18.5947826 L1.46086957,18.6010435 Z" id="Shape" fill="#FFFFFF"></path>
                    <path d="M8.20173913,23.858087 C7.4066087,23.858087 5.6973913,23.4782609 3.14086957,20.9363478 C-0.221217391,17.568 0.169043478,15.6751304 0.28173913,15.3286957 C0.385970937,15.0143284 0.695407561,14.8152807 1.02469565,14.8507826 C2.87373913,15.0594783 6.86817391,12.4841739 8.95513043,10.8083478 C8.97841058,10.7895083 9.00280242,10.7720856 9.02817391,10.7561739 C9.54250105,10.4384201 10.170283,10.3621404 10.7457391,10.5474783 L11.522087,9.77113043 C11.7506555,9.54310337 12.0659097,9.4238385 12.3881739,9.44347826 L21.4455652,0.386086957 C21.8983488,-0.0701500344 22.6185211,-0.121845568 23.1318261,0.265043478 C23.3899617,0.456633455 23.618497,0.685168761 23.810087,0.943304348 L23.810087,0.943304348 C24.196976,1.45660936 24.1452805,2.17678163 23.6890435,2.62956522 L14.6316522,11.6869565 C14.651837,12.0093031 14.5324902,12.324774 14.304,12.5530435 L13.5276522,13.3293913 C13.7130613,13.905532 13.6367938,14.5339764 13.3189565,15.0490435 C13.3029959,15.073715 13.2855734,15.0974095 13.2667826,15.12 C12.4848186,16.109845 11.7574755,17.1416411 11.088,18.2107826 C9.76904348,20.3415652 9.1053913,22.0570435 9.20973913,23.042087 C9.25023204,23.3714774 9.05426838,23.6841483 8.74017391,23.7913043 C8.56521517,23.8412068 8.38358777,23.8637343 8.20173913,23.858087 L8.20173913,23.858087 Z M0.947478261,15.4726957 C0.9161573,15.4728986 0.888451976,15.4930479 0.878608696,15.5227826 C0.855652174,15.5916522 0.361043478,17.2633043 3.59165217,20.4855652 C5.97286957,22.8751304 7.51304348,23.232 8.20173913,23.232 C8.3178496,23.2358486 8.43389016,23.2224864 8.54608696,23.1923478 C8.57893879,23.1816874 8.59983389,23.1494742 8.59617391,23.1151304 C8.4626087,21.9589565 9.12208696,20.1933913 10.5558261,17.8831304 C11.237209,16.788957 11.9777881,15.7327783 12.7742609,14.7193043 C13.0303147,14.314845 13.0686394,13.8095843 12.8765217,13.3711304 L12.7888696,13.1749565 L13.8615652,12.1043478 C13.9830961,11.9816133 14.0334762,11.8052831 13.9951304,11.6368696 L13.9575652,11.469913 L23.2445217,2.18295652 C23.4792998,1.94873684 23.505141,1.57715848 23.3050435,1.31269565 C23.1475823,1.10248973 22.9597978,0.91681512 22.7478261,0.76173913 C22.4833633,0.561641634 22.1117849,0.587482814 21.8775652,0.82226087 L12.5906087,10.1092174 L12.4236522,10.0716522 C12.2552173,10.032489 12.0784947,10.0829812 11.9561739,10.2052174 L10.893913,11.2695652 L10.6977391,11.181913 C10.2624339,10.9907758 9.76074049,11.0275041 9.35791304,11.28 C9.29530435,11.330087 3.72313043,15.7773913 0.955826087,15.453913 L0.947478261,15.4726957 Z" id="Shape" fill="#FFFFFF"></path>
                    <path d="M14.0765217,11.7850435 C13.4274783,11.1151304 12.4549565,10.1154783 12.3213913,10.0236522 L12.6761739,9.50817391 C12.8535652,9.62713043 14.0285217,10.8354783 14.5252174,11.3509565 L14.0765217,11.7850435 Z" id="Shape" fill="#FFFFFF"></path>
                    <path d="M12.9662609,13.7238261 C12.5968696,11.7746087 10.4201739,11.1130435 10.3993043,11.1067826 L10.5766957,10.5057391 C10.6810435,10.5370435 13.1415652,11.2841739 13.581913,13.6048696 L12.9662609,13.7238261 Z" id="Shape" fill="#FFFFFF"></path>
                    <path d="M5.74747826,22.8793043 C5.61590589,22.8780555 5.49915785,22.794664 5.45530435,22.6706087 C4.93356522,21.3370435 6.61565217,19.250087 6.80973913,19.0184348 C6.92198174,18.8937183 7.11259425,18.8796737 7.24190407,18.9865922 C7.37121389,19.0935107 7.3932327,19.2833674 7.29182609,19.4170435 C6.8306087,19.9742609 5.70782609,21.6 6.03965217,22.4431304 C6.07335828,22.5384513 6.05895188,22.6441827 6.00097211,22.7270109 C5.94299235,22.8098392 5.84857849,22.8595653 5.74747826,22.8605217 L5.74747826,22.8793043 Z" id="Shape" fill="#FFFFFF"></path>
                    <path d="M3.33913043,20.7923478 C3.1999397,20.7915915 3.07796694,20.6990205 3.03979157,20.5651651 C3.0016162,20.4313097 3.05640892,20.2883254 3.17426087,20.2142609 L4.68730435,19.2751304 C4.83411145,19.1863986 5.02498579,19.2323434 5.11533525,19.3781606 C5.20568471,19.5239777 5.16185288,19.7153483 5.01704348,19.8073043 L3.504,20.7464348 C3.45441977,20.776859 3.39729963,20.7927658 3.33913043,20.7923478 L3.33913043,20.7923478 Z" id="Shape" fill="#FFFFFF"></path>
                </g>
            </g>
        </g>
    </g>
</svg>