<?xml version="1.0" encoding="UTF-8" standalone="no"?>
<svg width="32px" height="24px" viewBox="0 0 32 24" version="1.1" xmlns="http://www.w3.org/2000/svg" xmlns:xlink="http://www.w3.org/1999/xlink">
    <!-- Generator: Sketch 41.2 (35397) - http://www.bohemiancoding.com/sketch -->
    <title>Jobs_Transport</title>
    <desc>Created with Sketch.</desc>
    <defs></defs>
    <g id="Page-1" stroke="none" stroke-width="1" fill="none" fill-rule="evenodd">
        <g id="0301_Jobs" transform="translate(-21.000000, -416.000000)">
            <g id="Jobs_Transport" transform="translate(21.000000, 416.000000)">
                <g id="Layer_1">
                    <path d="M31.0769231,13.0061538 C30.9833492,11.9751094 30.4677763,11.0285934 29.6523077,10.3907692 C29.4184615,9.29230769 28.5230769,7.86461538 27.9046154,7.17230769 C28.0092308,7.17230769 28.0830769,7.34461538 28.2123077,7.35384615 C28.9289862,7.37476023 29.6456511,7.31176808 30.3476923,7.16615385 C30.9292308,7.00307692 30.9815385,5.58153846 30.6769231,5.4 C30.3723077,5.21846154 28.9292308,5.17230769 28.5415385,5.20615385 C28.1538462,5.24 28.12,5.51384615 28.0553846,5.60307692 C28.0063746,5.8709093 27.9867711,6.14329437 27.9969231,6.41538462 C27.9969231,6.62769231 27.5630769,6.44307692 27.3169231,6.41538462 L27.3169231,6.41538462 C26.7692308,4.73230769 25.6092308,1.53846154 24.2861538,0.984615385 C22.6492308,0.307692308 9.23076923,0.307692308 7.58769231,0.984615385 C6.26461538,1.52923077 5.09538462,4.73230769 4.56923077,6.4 L4.56923077,6.4 C4.32,6.44 3.88615385,6.62769231 3.88615385,6.4 C3.89589363,6.12791703 3.87629336,5.85557651 3.82769231,5.58769231 C3.75384615,5.53846154 3.72307692,5.23076923 3.33538462,5.20307692 C2.94769231,5.17538462 1.50461538,5.20307692 1.2,5.39692308 C0.895384615,5.59076923 0.947692308,7.00307692 1.52923077,7.16307692 C2.2312638,7.30874702 2.94793527,7.37173975 3.66461538,7.35076923 C3.79384615,7.35076923 3.93846154,7.07692308 4.04307692,7.07692308 C3.42769231,7.76923077 2.46153846,9.28923077 2.22769231,10.3876923 C1.41222367,11.0255165 0.896650835,11.9720325 0.803076923,13.0030769 C0.72,13.7815385 0.436923077,17.4923077 1.18769231,18.7015385 C1.26461538,18.8246154 1.72,18.9353846 1.72,19.0338462 L1.72,22.7692308 C1.72,23.0153846 2.08615385,23.2276923 2.29846154,23.2276923 L6.04923077,23.2276923 C6.26153846,23.2276923 6.69538462,23.0153846 6.69538462,22.7692308 L6.69538462,19.6092308 C10.5661538,19.8523077 15.2492308,19.8523077 16.0923077,19.8523077 C16.9353846,19.8523077 21.6307692,19.8523077 25.4923077,19.6092308 L25.4923077,22.7692308 C25.4923077,23.0153846 25.6153846,23.2276923 25.8276923,23.2276923 L29.5784615,23.2276923 C29.7907692,23.2276923 29.9138462,23.0153846 29.9138462,22.7692308 L29.9138462,19.0369231 C30.4676923,18.9384615 30.4892308,18.8276923 30.5661538,18.7046154 C31.3230769,17.4923077 31.16,13.7846154 31.0769231,13.0061538 Z" id="Shape" fill="#2A344D"></path>
                    <path d="M29.4615385,23.7446154 L25.7107692,23.7446154 C25.4926324,23.7347471 25.2881923,23.6354616 25.1455589,23.4701232 C25.0029255,23.3047849 24.9346947,23.0879948 24.9569231,22.8707692 L24.9569231,20.1384615 C21.1815385,20.3538462 16.8338462,20.3569231 15.9723077,20.3538462 C15.1107692,20.3507692 10.7661538,20.3538462 6.99076923,20.1384615 L6.99076923,22.8707692 C6.99076923,23.4123077 6.30461538,23.7446154 5.92923077,23.7446154 L2.17846154,23.7446154 C1.78153846,23.7446154 1.18461538,23.3969231 1.18461538,22.8707692 L1.18461538,19.3446154 L1.18461538,19.3446154 C0.999406737,19.2839025 0.83655019,19.1692601 0.716923077,19.0153846 C-0.196923077,17.5384615 0.249230769,13.2307692 0.270769231,13.0492308 C0.370064506,11.9591085 0.896580785,10.9525332 1.73538462,10.2492308 C1.99480245,9.39429771 2.38506928,8.58470161 2.89230769,7.84923077 C2.35691312,7.83542367 1.82413847,7.76947091 1.30153846,7.65230769 C0.88,7.53846154 0.590769231,7.10461538 0.504615385,6.46153846 C0.48,6.28923077 0.390769231,5.41230769 0.867692308,5.12923077 C1.34461538,4.84615385 3.00307692,4.85538462 3.24923077,4.87692308 C3.59702908,4.89357686 3.90337067,5.11101932 4.03384615,5.43384615 L4.03384615,5.43384615 C4.08923077,5.50461538 4.14153846,5.60923077 4.16,6 C4.89230769,3.80923077 5.99384615,1.23076923 7.31076923,0.689230769 C9.06153846,-0.0338461538 22.5784615,-0.0338461538 24.3261538,0.689230769 C25.6461538,1.23076923 26.7476923,3.80615385 27.4707692,6.01230769 C27.4892308,5.62769231 27.5415385,5.52307692 27.5969231,5.45230769 C27.7248589,5.1224978 28.0344198,4.89845761 28.3876923,4.88 C28.6338462,4.85846154 30.3015385,4.85230769 30.7723077,5.13230769 C31.2430769,5.41230769 31.1569231,6.29538462 31.1353846,6.46769231 C31.0492308,7.10769231 30.76,7.53846154 30.3415385,7.65538462 C29.8209674,7.77224781 29.2902636,7.83819935 28.7569231,7.85230769 C29.2652618,8.58627621 29.6536982,9.39638421 29.9076923,10.2523077 C30.7443685,10.9556224 31.2696089,11.9607667 31.3692308,13.0492308 L31.3692308,13.0492308 C31.3692308,13.1323077 31.7415385,17.5046154 30.8030769,19.0123077 C30.678755,19.2378418 30.4636305,19.3991851 30.2123077,19.4553846 L30.2123077,22.8676923 C30.2354266,23.0849084 30.1680164,23.3020524 30.0259516,23.4679888 C29.8838867,23.6339252 29.6797228,23.7339887 29.4615385,23.7446154 Z M2.01538462,22.8215385 C2.06297563,22.8656336 2.12134528,22.8964103 2.18461538,22.9107692 L5.92923077,22.9107692 C6.0133686,22.8929659 6.09231041,22.8561264 6.16,22.8030769 L6.16,19.2553846 L6.6,19.2830769 C10.4430769,19.5230769 15.08,19.5230769 15.9723077,19.5261538 C16.8646154,19.5292308 21.5107692,19.5261538 25.3476923,19.2830769 L25.7876923,19.2553846 L25.7876923,22.8676923 C25.7866859,22.8820336 25.7866859,22.8964279 25.7876923,22.9107692 L29.3784615,22.9107692 C29.3794679,22.8964279 29.3794679,22.8820336 29.3784615,22.8676923 L29.3784615,18.7692308 L29.72,18.7076923 C29.84143,18.6957125 29.9599945,18.6634712 30.0707692,18.6123077 L30.0707692,18.6123077 L30.0953846,18.5753846 C30.7569231,17.5107692 30.6338462,13.9938462 30.5415385,13.1415385 L30.5415385,13.1415385 C30.4604275,12.2172969 29.9976664,11.3687157 29.2646154,10.8 L29.1538462,10.7076923 L29.1230769,10.5692308 C28.9169231,9.61230769 28.1076923,8.25230769 27.4707692,7.53846154 L26.8861538,6.88307692 L26.8523077,6.88307692 L26.7876923,6.61846154 C25.8646154,3.72923077 24.8338462,1.80307692 24.0184615,1.46153846 C22.48,0.830769231 9.16615385,0.830769231 7.63692308,1.46153846 C6.80923077,1.80307692 5.76923077,3.73230769 4.86769231,6.61846154 L4.82769231,6.74461538 L4.88307692,6.74461538 L4.79692308,6.84 L4.78153846,6.88923077 L4.75076923,6.88923077 L4.25230769,7.44615385 C3.65230769,8.09538462 2.73230769,9.53846154 2.51384615,10.5661538 L2.48307692,10.7076923 L2.37230769,10.8 C1.63971315,11.3677588 1.17695929,12.2152116 1.09538462,13.1384615 C0.926153846,14.7323077 0.861538462,17.5661538 1.40307692,18.5230769 L1.53538462,18.5846154 C1.74153846,18.6769231 2.02769231,18.8061538 2.02769231,19.1261538 L2.01538462,22.8215385 Z M28.2,7.03692308 C28.8434821,7.04525752 29.4860381,6.9854369 30.1169231,6.85846154 C30.1833929,6.79797734 30.2295945,6.7184675 30.2492308,6.63076923 C30.3328888,6.37140056 30.3487775,6.09493747 30.2953846,5.82769231 C29.6860703,5.72180539 29.0670353,5.68259984 28.4492308,5.71076923 C28.4279563,5.70599994 28.4058898,5.70599994 28.3846154,5.71076923 C28.3697441,5.73293025 28.3573616,5.75666338 28.3476923,5.78153846 L28.3107692,5.85538462 C28.2983305,6.06953704 28.2973035,6.28419989 28.3076923,6.49846154 C28.3108576,6.65772912 28.2390855,6.80924799 28.1138462,6.90769231 L28.0830769,6.92923077 C28.125073,6.95943184 28.1642112,6.9934203 28.2,7.03076923 L28.2,7.03692308 Z M1.34461538,5.82769231 C1.29094648,6.09491808 1.30683921,6.37145144 1.39076923,6.63076923 C1.41022906,6.71766186 1.45651357,6.79623789 1.52307692,6.85538462 C2.14964561,6.98344768 2.78823989,7.04328366 3.42769231,7.03384615 L3.45230769,7.00615385 C3.48,6.97846154 3.51076923,6.94461538 3.54461538,6.91384615 L3.54461538,6.91384615 C3.42073229,6.81702438 3.34905955,6.66799059 3.35076923,6.51076923 C3.35452395,6.2982326 3.34733495,6.08564359 3.32923077,5.87384615 L3.29230769,5.8 C3.28250827,5.77518415 3.27013287,5.75146463 3.25538462,5.72923077 C3.23405368,5.72500238 3.21210017,5.72500238 3.19076923,5.72923077 C2.5736366,5.69387326 1.9544864,5.7268946 1.34461538,5.82769231 Z M26.7230769,16.8276923 C25.450273,16.8276923 24.4184615,15.7958809 24.4184615,14.5230769 C24.4184615,13.250273 25.450273,12.2184615 26.7230769,12.2184615 C27.9958809,12.2184615 29.0276923,13.250273 29.0276923,14.5230769 C29.0259973,15.7951781 27.9951781,16.8259973 26.7230769,16.8276923 Z M26.7230769,13.0492308 C26.1269618,13.0492308 25.589544,13.4083219 25.3614206,13.9590604 C25.1332972,14.509799 25.2593933,15.1437265 25.6809103,15.5652435 C26.1024274,15.9867606 26.7363549,16.1128566 27.2870934,15.8847332 C27.837832,15.6566098 28.1969231,15.119192 28.1969231,14.5230769 C28.1969231,13.7090942 27.5370597,13.0492308 26.7230769,13.0492308 Z M5.21230769,16.8276923 C3.93950376,16.8276923 2.90769231,15.7958809 2.90769231,14.5230769 C2.90769231,13.250273 3.93950376,12.2184615 5.21230769,12.2184615 C6.48511162,12.2184615 7.51692308,13.250273 7.51692308,14.5230769 C7.51522807,15.7951781 6.48440887,16.8259973 5.21230769,16.8276923 Z M5.21230769,13.0492308 C4.61619257,13.0492308 4.07877478,13.4083219 3.8506514,13.9590604 C3.62252802,14.509799 3.74862404,15.1437265 4.17014108,15.5652435 C4.59165813,15.9867606 5.22558564,16.1128566 5.7763242,15.8847332 C6.32706276,15.6566098 6.68615385,15.119192 6.68615385,14.5230769 C6.68615385,13.7090942 6.02629045,13.0492308 5.21230769,13.0492308 Z M20.3384615,16.5569231 L11.3015385,16.5569231 C10.7753846,16.5569231 10.5846154,15.9415385 10.5846154,15.5076923 L10.5846154,13.6215385 C10.5846154,13.3753846 10.6769231,12.96 11.3015385,12.96 L20.3384615,12.96 C21.2615385,12.96 21.3661538,13.4215385 21.3661538,13.6215385 L21.3661538,15.5046154 C21.2864667,16.0403541 20.8721644,16.4645798 20.3384615,16.5569231 Z M11.4461538,15.7261538 L20.3076923,15.7261538 C20.4051933,15.6593528 20.4870701,15.5722275 20.5476923,15.4707692 L20.5476923,13.8030769 C20.4821253,13.7986684 20.4163362,13.7986684 20.3507692,13.8030769 L11.4276923,13.8030769 L11.4276923,15.5169231 C11.4262682,15.5872859 11.433502,15.6575568 11.4492308,15.7261538 L11.4461538,15.7261538 Z M15.8215385,7.25846154 C15.7446154,7.25846154 8.37538462,7.21846154 6.01230769,7.12307692 L5.46461538,7.10153846 L5.63384615,6.58153846 C5.76,6.19076923 6.89846154,2.74461538 8.01538462,1.94153846 L8.11076923,1.87384615 L8.22769231,1.87384615 C9.09846154,1.80615385 11.2461538,1.69538462 15.8707692,1.69538462 C20.4492308,1.69538462 22.5630769,1.80615385 23.4153846,1.87076923 L23.5323077,1.87076923 L23.6276923,1.93846154 C24.7476923,2.73846154 25.8861538,6.19076923 26.0123077,6.58153846 L26.1815385,7.10153846 L25.6338462,7.12307692 C23.2615385,7.21846154 15.8953846,7.25846154 15.8215385,7.25846154 Z M6.59076923,6.31384615 C9.36,6.39384615 15.7446154,6.42769231 15.8215385,6.42769231 C15.8984615,6.42769231 22.2615385,6.39384615 25.0523077,6.31384615 C24.4369231,4.57846154 23.7261538,3.13230769 23.2307692,2.68307692 C22.3076923,2.61846154 20.2123077,2.52 15.8769231,2.52 C11.4953846,2.52 9.36,2.61846154 8.42461538,2.68615385 C7.92615385,3.13538462 7.20307692,4.58153846 6.6,6.31384615 L6.59076923,6.31384615 Z" id="Shape" fill="#FFFFFF"></path>
                </g>
            </g>
        </g>
    </g>
</svg>