<?xml version="1.0" encoding="UTF-8" standalone="no"?>
<svg width="32px" height="24px" viewBox="0 0 32 24" version="1.1" xmlns="http://www.w3.org/2000/svg" xmlns:xlink="http://www.w3.org/1999/xlink">
    <!-- Generator: Sketch 41.2 (35397) - http://www.bohemiancoding.com/sketch -->
    <title>Jobs_Pets</title>
    <desc>Created with Sketch.</desc>
    <defs></defs>
    <g id="Page-1" stroke="none" stroke-width="1" fill="none" fill-rule="evenodd">
        <g id="0301_Jobs" transform="translate(-21.000000, -502.000000)">
            <g id="Jobs_Pets" transform="translate(21.000000, 502.000000)">
                <g id="Layer_1">
                    <path d="M28.08,10.5293023 C27.8009302,9.33488372 26.5730233,8.36651163 24.6781395,7.66604651 L24.7060465,7.62697674 C25.0044007,7.72364764 25.3161432,7.7726223 25.6297674,7.77209302 C27.2573377,7.79444126 28.594861,6.49315168 28.6172092,4.86558139 C28.6395575,3.2380111 27.338268,1.90048784 25.7106977,1.87813953 C25.2502964,0.790915081 24.1844097,0.0843530949 23.0037209,0.0837209302 C21.8910555,0.0863513669 20.8749216,0.716017763 20.3773212,1.71121872 C19.8797207,2.70641968 19.9856679,3.89712664 20.6511628,4.78883721 L20.16,5.50604651 L19.4260465,6.58046512 C18.2372093,6.46325581 16.9786047,6.38790698 15.6195349,6.38790698 C8.72651163,6.39069767 3.90697674,8.09302326 3.14511628,10.5293023 L0.474418605,17.6986047 C0.474418605,20.7516279 6.84837209,23.2297674 15.6111628,23.2297674 C24.3739535,23.2297674 30.747907,20.7516279 30.747907,17.6986047 L28.08,10.5293023 Z" id="Shape" fill="#2A344D"></path>
                    <path d="M5.43627907,10.6046512 C5.43627907,8.90790698 10.0130233,7.53488372 15.6613953,7.53488372 C16.6855814,7.53488372 17.6539535,7.59348837 18.5832558,7.6772093 L16.8139535,10.2697674 L16.292093,11.0372093 C16.0198966,10.9587729 15.7381535,10.9183897 15.4548837,10.9172093 C14.4186999,10.9146566 13.448234,11.4244384 12.8623256,12.2790698 C12.6119664,12.6481607 12.4444137,13.0670425 12.3711628,13.5069767 C8.34697674,13.08 5.43627907,11.9469767 5.43627907,10.6046512 Z M21.2093023,13.1693023 L21.3181395,13.0102326 L24.1088372,8.89674419 C25.2,9.38511628 25.864186,9.96837209 25.864186,10.5990698 C25.8893023,11.6790698 24.0223256,12.6223256 21.2093023,13.1693023 Z" id="Shape" fill="#2A344D"></path>
                    <path d="M12.3683721,13.495814 C12.3683721,13.495814 17.1293023,14.1125581 21.6055814,13.0827907" id="Shape" fill="#2A344D"></path>
                    <path d="M15.5553488,23.9832558 C6.69767442,23.9832558 0,21.424186 0,18.0334884 L0,17.9581395 L0.0251162791,17.8883721 L2.69581395,10.7190698 C3.53302326,8.0455814 8.58418605,6.30697674 15.5553488,6.30697674 C16.7413953,6.30697674 17.9218605,6.3627907 19.1553488,6.4772093 L20.0930233,5.12372093 C19.1790562,3.50539817 19.7500493,1.45257169 21.3683721,0.538604651 C22.9866948,-0.375362391 25.0395213,0.195630733 25.9534884,1.81395349 C26.5088548,1.87684114 27.0400089,2.07626359 27.4995349,2.3944186 C28.5872352,3.12915896 29.1454027,4.43161189 28.9272733,5.72596693 C28.7091438,7.02032196 27.7549397,8.06790446 26.4865116,8.4055814 C27.5665116,9.05860465 28.2251163,9.8427907 28.44,10.7413953 L31.1246512,17.9581395 L31.1246512,18.0334884 C31.1106977,21.424186 24.424186,23.9832558 15.5553488,23.9832558 Z M0.837209302,18.1060465 C0.954418605,21.2093023 8.53116279,23.1460465 15.5553488,23.1460465 C22.5795349,23.1460465 30.1562791,21.2204651 30.2706977,18.1060465 L27.627907,10.9618605 C27.3851163,9.95162791 26.2995349,9.06418605 24.4855814,8.39162791 L23.9832558,8.20465116 L24.4883721,7.46232558 L24.7869767,7.56 C25.0438921,7.64320553 25.3122725,7.6855814 25.5823256,7.6855814 C26.4856259,7.69804415 27.3269587,7.22765521 27.7894019,6.45160554 C28.2518451,5.67555587 28.2651427,4.71174587 27.8242856,3.92323344 C27.3834285,3.13472102 26.5553934,2.64129996 25.652093,2.62883721 L25.3730233,2.62883721 L25.2697674,2.38046512 C24.8785749,1.44428592 23.96253,0.8354244 22.947907,0.837209302 C21.9889981,0.829150384 21.1091833,1.36780986 20.6803311,2.22551437 C20.2514788,3.08321887 20.3484401,4.11026635 20.9302326,4.87255814 L21.1116279,5.11255814 L19.5767442,7.34511628 L19.3283721,7.32 C18.0334884,7.19162791 16.8,7.13023256 15.5637209,7.13023256 C9.06697674,7.13023256 4.21953488,8.67627907 3.49674419,10.975814 L0.837209302,18.1060465 Z" id="Shape" fill="#FFFFFF"></path>
                    <path d="M12.6586047,14.2855814 L12.2790698,14.2325581 C8.74604651,13.8697674 4.97023256,12.8093023 4.97023256,10.92 C4.97023256,8.65116279 10.4539535,7.42883721 15.6139535,7.42883721 C16.5376744,7.42883721 17.5060465,7.47627907 18.5748837,7.57395349 L19.2837209,7.63813953 L16.4204651,11.824186 L16.1413953,11.7404651 C15.9036768,11.6721434 15.6575743,11.6373885 15.4102326,11.6372093 C14.5177265,11.6390016 13.6830908,12.079272 13.1776744,12.8148837 C12.9610906,13.1344768 12.8163712,13.4972274 12.7534884,13.8781395 L12.6586047,14.2855814 Z M15.6083721,8.28 C12.9153488,8.28 10.3897674,8.59255814 8.49767442,9.16186047 C6.51069767,9.75906977 5.80186047,10.467907 5.80186047,10.9339535 C5.80186047,11.7711628 7.96744186,12.9069767 11.9916279,13.3730233 C12.092923,13.0137655 12.2522305,12.6734696 12.4632558,12.3655814 C13.1258177,11.3995078 14.2220421,10.822163 15.3934884,10.8223256 C15.6164328,10.8223101 15.8388586,10.8438051 16.0576744,10.8865116 L17.7795349,8.37488372 C17.0232558,8.30790698 16.2948837,8.28 15.6083721,8.28 Z M20.2409302,14.1125581 L20.9302326,13.1162791 L23.9274419,8.70697674 L24.2483721,8.84930233 C25.5767442,9.44372093 26.2493023,10.1469767 26.2493023,10.9339535 C26.2493023,12.6753488 23.1125581,13.5488372 21.2455814,13.9144186 L20.2409302,14.1125581 Z M24.2204651,9.76744186 L22.107907,12.8651163 C24.3823256,12.2874419 25.412093,11.5088372 25.412093,10.9339535 C25.4148837,10.5711628 24.9823256,10.1525581 24.2204651,9.76744186 Z" id="Shape" fill="#FFFFFF"></path>
                    <path d="M15.7367442,14.4362791 C14.5746644,14.4372378 13.4135524,14.3692112 12.2595349,14.2325581 L12.3655814,13.3953488 C12.4130233,13.3953488 17.1097674,13.9897674 21.4548837,12.987907 L21.6418605,13.8027907 C19.7029376,14.231469 17.7224754,14.4439288 15.7367442,14.4362791 L15.7367442,14.4362791 Z" id="Shape" fill="#FFFFFF"></path>
                </g>
            </g>
        </g>
    </g>
</svg>