<svg id="Layer_1" data-name="Layer 1" xmlns="http://www.w3.org/2000/svg" viewBox="0 0 146.32 86.07"><defs><style>.cls-1{fill:#2a344d;}.cls-2{fill:#fff;}</style></defs><title>Jobs_Laundry</title><path class="cls-1" d="M118.78,51.88C118,48.44,117,13.59,117,13.45l0-1.05-17,.57-.13.35-18.1-7.9-1,2.18C75.81,18.9,67.23,38.2,66,40.67l0,.09C65,42.47,51.87,50,49.19,51.34c-4.17,2.07-9,4.37-10.34,9.5C37.39,66.62,42.4,71.3,44.4,72.58h0c0,.23,7.09,1.87,13.16-2.1.48-.27,1-.52,1.42-.72,2.29-1.16,14.66-7.81,16.3-8.15a17.82,17.82,0,0,0,4.55-1.41c3.41-1.66,4.72-5.8,5.62-10,.44-2.09,5.79-14.59,10-24.16.38,11.76,1.76,23.44,1.69,25.66v.1C97,53.71,88.4,66.19,86.55,68.55c-2.88,3.66-6.27,7.78-5.23,13,1.17,5.84,7.09,8,10.09,8.14h0a15.66,15.66,0,0,0,11-7.5c.32-.45.69-.87,1-1.23,1.57-2,9.86-13.34,11.2-14.36a17.75,17.75,0,0,0,3.5-3.22C120.39,60.38,119.8,56.08,118.78,51.88Z"/><path class="cls-2" d="M39.08,68.21a13.59,13.59,0,0,1-4.62-.67C31.55,66,26.24,60.8,27.93,54.07c1.45-5.75,6.68-8.34,10.88-10.42l.11-.06c3.35-1.66,15-8.5,16.11-10l0-.05c1.19-2.33,9.63-21.3,14.73-32.94l1.56-3.55L93.18,6.59l-1,2.34c-6.82,15.4-14.35,32.94-14.82,35.16h0c-1,4.6-2.42,9.12-6.42,11.07A19.19,19.19,0,0,1,66,56.68c-1.19.29-9.38,4.6-12.87,6.44l-3,1.58c-.38.19-.81.42-1.25.67A17.93,17.93,0,0,1,39.08,68.21ZM35.7,64.8a15.19,15.19,0,0,0,11.59-2l.1-.06c.5-.28,1-.53,1.4-.75l3-1.55C59.66,56.3,64.18,54,65.41,53.74a16.3,16.3,0,0,0,4.18-1.29c2.83-1.38,4-5.14,4.79-9h0c.7-3.3,12.11-29.2,14.83-35.34L72.89,1l-.36.81C67.48,13.35,59,32.45,57.71,34.95l-.07.12c-1.31,2.56-17.23,11.14-17.39,11.22l-.11.06c-4,2-8.19,4-9.3,8.46C29.59,59.77,33.88,63.8,35.7,64.8Z"/><path class="cls-2" d="M63.27,56.12c-1.15-5.76-.34-10.22,2.39-13.25,4.11-4.56,11-4,11.27-4l-.28,3,.14-1.49-.13,1.49c-.06,0-5.69-.46-8.78,3-2.05,2.29-2.61,5.87-1.66,10.65Z"/><rect class="cls-2" x="76.82" y="-0.65" width="3" height="21.67" transform="translate(39.38 78.89) rotate(-67.87)"/><rect class="cls-2" x="34.89" y="48.7" width="3" height="19.27" transform="translate(-24.77 26.92) rotate(-30.86)"/><path class="cls-2" d="M82,84.75c-3.28-.12-10.33-2.55-11.69-9.35-1.17-5.82,2.43-10.4,5.33-14.08l.08-.1c2.31-2.94,9.89-14.14,10.24-16,0-.81-.18-3.21-.44-6.25-.42-5-1.06-12.6-1.28-20l3-.09c.22,7.34.85,14.87,1.27,19.86.28,3.38.47,5.61.44,6.57v.13c-.08,2.89-10.76,17.48-10.87,17.62l-.08.1c-2.77,3.53-5.64,7.18-4.75,11.64,1,4.93,6.3,6.81,8.69,6.93A15.21,15.21,0,0,0,91.6,75l.06-.1c.33-.46.65-.9.94-1.27s1.09-1.45,2-2.68C100,63.76,103,59.73,104,59a16.24,16.24,0,0,0,3.22-3c2-2.47,1.38-6.35.46-10.18-.77-3.18-1.58-29.68-1.83-38.28l-15.5.52-.1-3,18.51-.62.08,2.69c.49,17.33,1.23,35.79,1.76,38,1.1,4.57,1.74,9.28-1,12.75a19.14,19.14,0,0,1-3.75,3.47c-1,.78-6.49,8.2-8.85,11.36C96.08,74,95.34,75,95,75.44s-.54.73-.84,1.14A17.69,17.69,0,0,1,82,84.75Z"/><path class="cls-2" d="M103.13,62c-3.52-4.71-4.71-9.08-3.55-13,1.75-5.89,8.2-8.33,8.47-8.43l1,2.81L108.57,42l.52,1.41c-.05,0-5.33,2-6.64,6.48-.87,2.95.17,6.42,3.08,10.32Z"/><rect class="cls-2" x="87.41" y="12.6" width="20.37" height="3" transform="translate(-0.69 6.13) rotate(-3.58)"/><rect class="cls-2" x="78.33" y="65.98" width="3" height="19.27" transform="translate(-27.34 100.18) rotate(-56.36)"/></svg>