<svg id="Layer_1" data-name="Layer 1" xmlns="http://www.w3.org/2000/svg" viewBox="0 0 134.45 76.49"><defs><style>.cls-1{fill:#2a344d;}.cls-2{fill:none;stroke:#fff;stroke-miterlimit:10;stroke-width:3px;}.cls-3{fill:#fff;}</style></defs><title>Jobs_Meals</title><polygon class="cls-1" points="10.49 61.49 19.34 76.49 125.6 76.49 134.45 61.49 10.49 61.49"/><path class="cls-1" d="M70.45,11c-26.92.88-48.12,23.6-48.12,51.13H122.61c0-27.54-22.05-50.18-48.73-51.13H70.45Z"/><path class="cls-1" d="M73.89,11V6.19h5.68A1.37,1.37,0,0,0,81,4.85c0-.89-.76-1.25-1.67-1.25H65.37A1.37,1.37,0,0,0,64,4.94c0,.89.76,1.25,1.67,1.25h4.81s0,4.14,0,4.8"/><polygon class="cls-2" points="2.85 58.99 11.08 70.99 109.86 70.99 118.09 58.99 2.85 58.99"/><path class="cls-2" d="M58.59,6.86c-25,.82-44.74,21.94-44.74,47.54h93.23c0-25.6-20.5-46.65-45.3-47.54h-3.2Z"/><path class="cls-3" d="M48.48,17.74A17.73,17.73,0,0,0,33.2,26.57a1.24,1.24,0,1,1-2.14-1.24A20.21,20.21,0,0,1,48.48,15.26a1.24,1.24,0,0,1,0,2.48Z"/><path class="cls-3" d="M61.79,6.86V2.4h5.28a1.27,1.27,0,0,0,1.31-1.24C68.35.33,67.67,0,66.83,0h-13a1.27,1.27,0,0,0-1.31,1.24c0,.83.71,1.16,1.55,1.16h4.47s0,3.85,0,4.46"/></svg>