<svg id="Layer_1" data-name="Layer 1" xmlns="http://www.w3.org/2000/svg" viewBox="0 0 113.18 93.24"><defs><style>.cls-1{fill:#2a344d;}.cls-2{fill:#fff;}</style></defs><title>Jobs_Pets</title><path class="cls-1" d="M103.62,47.73c-1-4.28-5.4-7.75-12.19-10.26l.1-.14a10.68,10.68,0,0,0,3.31.52,10.56,10.56,0,0,0,.29-21.12,10.54,10.54,0,0,0-9.7-6.43A10.55,10.55,0,0,0,77,27.16l-1.76,2.57-2.63,3.85c-4.26-.42-8.77-.69-13.64-.69C34.27,32.9,17,39,14.27,47.73L4.7,73.42c0,10.94,22.84,19.82,54.24,19.82s54.24-8.88,54.24-19.82Z"/><path class="cls-1" d="M22.48,48c0-6.08,16.4-11,36.64-11,3.67,0,7.14.21,10.47.51l-6.34,9.29-1.87,2.75a11,11,0,0,0-3-.43A11.23,11.23,0,0,0,49.09,54a11.08,11.08,0,0,0-1.76,4.4C32.91,56.87,22.48,52.81,22.48,48ZM79,57.19l.39-.57,10-14.74c3.91,1.75,6.29,3.84,6.29,6.1C95.77,51.85,89.08,55.23,79,57.19Z"/><path class="cls-1" d="M47.32,58.36s17.06,2.21,33.1-1.48"/><path class="cls-2" d="M55.74,85.94C24,85.94,0,76.77,0,64.62v-.27l.09-.25L9.66,38.41c3-9.58,21.1-15.81,46.08-15.81,4.25,0,8.48.2,12.9.61L72,18.36a12,12,0,1,1,21-11.86,12.13,12.13,0,0,1,5.54,2.08,12,12,0,0,1-3.63,21.54c3.87,2.34,6.23,5.15,7,8.37l9.62,25.86v.27C111.48,76.77,87.52,85.94,55.74,85.94ZM3,64.88C3.42,76,30.57,82.94,55.74,82.94s52.32-6.9,52.73-18.06L99,39.28c-.87-3.62-4.76-6.8-11.26-9.21l-1.8-.67,1.81-2.66,1.07.35a9.25,9.25,0,0,0,2.85.45,9.06,9.06,0,0,0,.25-18.12l-1,0-.37-.89A9,9,0,0,0,82.23,3,9,9,0,0,0,75,17.46l.65.86-5.5,8-.89-.09c-4.64-.46-9.06-.68-13.49-.68-23.28,0-40.65,5.54-43.24,13.78Z"/><path class="cls-2" d="M45.36,51.19,44,51c-12.66-1.3-26.19-5.1-26.19-11.87,0-8.13,19.65-12.51,38.14-12.51,3.31,0,6.78.17,10.61.52l2.54.23-10.26,15-1-.3a9.51,9.51,0,0,0-2.62-.37,9.73,9.73,0,0,0-8,4.22,9.57,9.57,0,0,0-1.52,3.81ZM55.93,29.67c-9.65,0-18.7,1.12-25.48,3.16-7.12,2.14-9.66,4.68-9.66,6.35,0,3,7.76,7.07,22.18,8.74a12.28,12.28,0,0,1,1.69-3.61,12.73,12.73,0,0,1,10.5-5.53,12.42,12.42,0,0,1,2.38.23l6.17-9C61,29.77,58.39,29.67,55.93,29.67Zm16.6,20.9L75,47,85.74,31.2l1.15.51c4.76,2.13,7.17,4.65,7.17,7.47,0,6.24-11.24,9.37-17.93,10.68ZM86.79,35,79.22,46.1c8.15-2.07,11.84-4.86,11.84-6.92C91.07,37.88,89.52,36.38,86.79,35Z"/><path class="cls-2" d="M56.39,51.73A105.22,105.22,0,0,1,43.93,51l.38-3c.17,0,17,2.13,32.57-1.46l.67,2.92A96.3,96.3,0,0,1,56.39,51.73Z"/></svg>