<svg id="Layer_1" data-name="Layer 1" xmlns="http://www.w3.org/2000/svg" viewBox="0 0 113.18 93.24"><defs><style>.cls-1{fill:#232b40;}.cls-2{fill:#fff;}</style></defs><title>Jobs_Shopping </title><path class="cls-1" d="M56.53,16.87a4.49,4.49,0,0,0-8.34-3.33L35,46.61h9.66Z"/><path class="cls-1" d="M74.48,13.54a4.49,4.49,0,0,0-8.34,3.33L78,46.61H87.7Z"/><path class="cls-1" d="M84.38,43.76H22.79a5.51,5.51,0,0,0,0,11h1.55L34.56,88a5.3,5.3,0,0,0,4.75,3.51H83.36A5.29,5.29,0,0,0,88.12,88l10.22-33.2h1.55a5.51,5.51,0,1,0,0-11H84.38Z"/><path class="cls-2" d="M41.2,33.68H30.07L41.71,4.56A5.17,5.17,0,0,1,51.32,8.4h0Zm-6.71-3h4.68L48.53,7.29h0a2.17,2.17,0,0,0-4-1.61Z"/><path class="cls-2" d="M77.65,33.68H66.51L56.4,8.4A5.17,5.17,0,0,1,66,4.56Zm-9.11-3h4.68l-10-25a2.17,2.17,0,0,0-4,1.61Z"/><path class="cls-2" d="M75.88,85.08H31.83a6.78,6.78,0,0,1-6.19-4.57L15.75,48.37h-.45a7,7,0,1,1,0-14H92.4a7,7,0,1,1,0,14H92L82.07,80.51A6.78,6.78,0,0,1,75.88,85.08ZM15.31,37.35a4,4,0,1,0,0,8H18L28.51,79.63a3.79,3.79,0,0,0,3.32,2.45H75.88a3.79,3.79,0,0,0,3.32-2.45L89.74,45.37H92.4a4,4,0,1,0,0-8Z"/><path class="cls-2" d="M68.54,77.62a5.18,5.18,0,0,1-5.17-5.17V54.09a5.17,5.17,0,0,1,10.34,0V72.45A5.18,5.18,0,0,1,68.54,77.62Zm0-25.7a2.17,2.17,0,0,0-2.17,2.17V72.45a2.17,2.17,0,0,0,4.34,0V54.09A2.17,2.17,0,0,0,68.54,51.92ZM53.86,77.62a5.18,5.18,0,0,1-5.17-5.17V54.09a5.17,5.17,0,0,1,10.34,0V72.45A5.18,5.18,0,0,1,53.86,77.62Zm0-25.7a2.17,2.17,0,0,0-2.17,2.17V72.45a2.17,2.17,0,0,0,4.34,0V54.09A2.17,2.17,0,0,0,53.86,51.92ZM39.17,77.62A5.18,5.18,0,0,1,34,72.45V54.09a5.17,5.17,0,0,1,10.34,0V72.45A5.18,5.18,0,0,1,39.17,77.62Zm0-25.7A2.17,2.17,0,0,0,37,54.09V72.45a2.17,2.17,0,0,0,4.34,0V54.09A2.17,2.17,0,0,0,39.17,51.92Z"/></svg>