<svg id="Layer_1" data-name="Layer 1" xmlns="http://www.w3.org/2000/svg" viewBox="0 0 113.18 93.24"><defs><style>.cls-1{fill:#2a344d;}.cls-2{fill:#fff;}</style></defs><title>Jobs_Transport</title><path class="cls-1" d="M113,55.27a12.19,12.19,0,0,0-4.63-8.5c-.76-3.57-3.67-8.21-5.68-10.46.34,0,.58.56,1,.59a29.88,29.88,0,0,0,6.94-.61c1.89-.53,2.06-5.15,1.07-5.74s-5.68-.74-6.94-.63-1.37,1-1.58,1.29a12.15,12.15,0,0,0-.19,2.64c0,.69-1.41.09-2.21,0h0C99,28.38,95.23,18,90.93,16.2,85.61,14,42,14,36.66,16.2c-4.3,1.77-8.1,12.18-9.81,17.6h0c-.81.13-2.22.74-2.22,0a12.32,12.32,0,0,0-.19-2.64C24.2,31,24.1,30,22.84,29.91s-5.95,0-6.94.63-.82,5.22,1.07,5.74a29.86,29.86,0,0,0,6.94.61c.42,0,.89-.89,1.23-.89-2,2.25-5.14,7.19-5.9,10.76a12.19,12.19,0,0,0-4.63,8.5c-.27,2.53-1.19,14.59,1.25,18.52.25.4,1.73.76,1.73,1.08V87c0,.8,1.19,1.49,1.88,1.49H31.66c.69,0,2.1-.69,2.1-1.49V76.73c12.58.79,27.8.79,30.54.79s18,0,30.55-.79V87c0,.8.4,1.49,1.09,1.49h12.19c.69,0,1.09-.69,1.09-1.49V74.87c1.8-.32,1.87-.68,2.12-1.08C113.8,69.85,113.27,57.8,113,55.27Z"/><path class="cls-2" d="M96.75,81.17H84.56a2.58,2.58,0,0,1-2.45-2.84V69.45c-12.27.7-26.4.71-29.2.7s-16.92,0-29.19-.7v8.88c0,1.76-2.23,2.84-3.45,2.84H8.08c-1.29,0-3.23-1.13-3.23-2.84V66.87h0a3.18,3.18,0,0,1-1.52-1.07C.36,61,1.81,47,1.88,46.41a13.47,13.47,0,0,1,4.76-9.1,28.12,28.12,0,0,1,3.76-7.8,26.79,26.79,0,0,1-5.17-.64C3.86,28.5,2.92,27.09,2.64,25c-.08-.56-.37-3.41,1.18-4.33s6.94-.89,7.74-.82a2.9,2.9,0,0,1,2.55,1.81l0,0c.18.23.35.57.41,1.84C16.9,16.38,20.48,8,24.76,6.24c5.69-2.35,49.62-2.35,55.3,0C84.35,8,87.93,16.37,90.28,23.54c.06-1.25.23-1.59.41-1.82a2.92,2.92,0,0,1,2.57-1.86c.8-.07,6.22-.09,7.75.82s1.25,3.78,1.18,4.34c-.28,2.08-1.22,3.48-2.58,3.86a26.74,26.74,0,0,1-5.15.64,27.38,27.38,0,0,1,3.74,7.8,13.48,13.48,0,0,1,4.75,9.09h0c0,.27,1.21,14.48-1.84,19.38a2.92,2.92,0,0,1-1.92,1.44V78.32A2.58,2.58,0,0,1,96.75,81.17Zm-89.2-3a1.2,1.2,0,0,0,.55.29H20.27a1.83,1.83,0,0,0,.75-.35V66.58l1.43.09c12.49.78,27.56.78,30.46.79s18,0,30.47-.79l1.43-.09V78.32a1,1,0,0,0,0,.14H96.48a1,1,0,0,0,0-.14V65l1.11-.2a3.55,3.55,0,0,0,1.14-.31v0l.08-.12c2.15-3.46,1.75-14.89,1.45-17.66h0a10.83,10.83,0,0,0-4.15-7.61l-.36-.3-.1-.45c-.67-3.11-3.3-7.53-5.37-9.85l-1.9-2.13h-.11l-.21-.86c-3-9.39-6.35-15.65-9-16.76-5-2.05-48.27-2.05-53.24,0-2.69,1.11-6.07,7.38-9,16.76l-.13.41h.18l-.28.31-.05.16h-.1l-1.62,1.81C12.87,30.31,9.88,35,9.17,38.34l-.1.46-.36.3A10.82,10.82,0,0,0,4.56,46.7c-.55,5.18-.76,14.39,1,17.5l.43.2c.67.3,1.6.72,1.6,1.76Zm-2.12-14Zm87.22-37.3a29.63,29.63,0,0,0,6.23-.58,1.42,1.42,0,0,0,.43-.74,5.19,5.19,0,0,0,.15-2.61,27.68,27.68,0,0,0-6-.38.48.48,0,0,0-.21,0,1.18,1.18,0,0,0-.12.23l-.12.24A19.64,19.64,0,0,0,93,25.12a1.65,1.65,0,0,1-.63,1.33l-.1.07A2.75,2.75,0,0,1,92.65,26.85ZM5.37,22.94a5.17,5.17,0,0,0,.15,2.61,1.38,1.38,0,0,0,.43.73,28.79,28.79,0,0,0,6.19.58l.08-.09c.09-.09.19-.2.3-.3l0,0a1.64,1.64,0,0,1-.63-1.31,20.13,20.13,0,0,0-.07-2.07l-.12-.24a1.24,1.24,0,0,0-.12-.23.54.54,0,0,0-.21,0A27.24,27.24,0,0,0,5.37,22.94Zm87.5.37,0,0ZM5.43,22.79Zm94,0ZM14.07,21.62l0,0ZM87.85,58.69a7.49,7.49,0,1,1,7.49-7.49A7.5,7.5,0,0,1,87.85,58.69Zm0-12.28a4.79,4.79,0,1,0,4.79,4.79A4.79,4.79,0,0,0,87.85,46.41ZM17.94,58.69a7.49,7.49,0,1,1,7.49-7.49A7.5,7.5,0,0,1,17.94,58.69Zm0-12.28a4.79,4.79,0,1,0,4.79,4.79A4.79,4.79,0,0,0,17.94,46.41ZM67.1,57.81H37.73c-1.71,0-2.33-2-2.33-3.41V48.27c0-.8.3-2.15,2.33-2.15H67.1c3,0,3.34,1.5,3.34,2.15v6.12A4.08,4.08,0,0,1,67.1,57.81Zm-28.9-2.7H67a2.66,2.66,0,0,0,.78-.83V48.86a4.77,4.77,0,0,0-.64,0h-29v5.57A2.79,2.79,0,0,0,38.21,55.11ZM52.42,27.59c-.25,0-24.2-.13-31.88-.44l-1.78-.07.55-1.69c.41-1.27,4.11-12.47,7.74-15.08l.31-.22.38,0c2.83-.22,9.81-.58,24.84-.58,14.88,0,21.75.36,24.52.57l.38,0,.31.22c3.64,2.6,7.34,13.82,7.75,15.09l.55,1.69-1.78.07C76.6,27.46,52.66,27.59,52.42,27.59Zm-30-3.07c9,.26,29.75.37,30,.37s20.93-.11,30-.37c-2-5.64-4.31-10.34-5.92-11.8-3-.21-9.81-.53-23.9-.53-14.24,0-21.18.32-24.22.54C26.76,14.19,24.41,18.89,22.45,24.52Z"/></svg>