<svg xmlns="http://www.w3.org/2000/svg" viewBox="0 0 673 146.68"><defs><style>.cls-1{fill:#fff;}</style></defs><title>Asset 1</title><g id="Layer_2" data-name="Layer 2"><g id="Layer_1-2" data-name="Layer 1"><path class="cls-1" d="M140.19,50.28c10.5-6.73,22.18-12.09,35.65-12.09,24.36,0,33.86,14.89,29.5,38.85l-11.88,67H152.66L164,81.39c1.38-7.33.59-12.2-6.53-12.2C150.69,69.19,142,73,135,78.77L123.56,144H83L108.51,0h40.6Z"/><path class="cls-1" d="M257.76,61.37c4-6.93,16.83-24.07,42-22.29L293.4,77.14c-34.26,0-44.36,37.49-44.36,37.49L243.1,144h-40.6L220.92,40h40.6Z"/><path class="cls-1" d="M289.64,144,308.05,40h40.6L330.23,144ZM314.39,1h41.78l-5,30h-42Z"/><path class="cls-1" d="M375.57,144l-22-104h42l6.53,58.22L429.24,40h45.15L415.58,144Z"/><path class="cls-1" d="M579.14,84.08c0,31.49-19,60.37-60.4,62.46-35.64,1.8-58.41-14.48-58.41-46s19-60.37,60.4-62.46C556.37,36.32,579.14,52.6,579.14,84.08Zm-40.79,1.66c0-11.68-5.54-17.54-16.63-17-14.26.72-20.59,16.09-20.59,30.15,0,11.68,5.54,17.54,16.64,17C532,115.18,538.35,99.81,538.35,85.75Z"/><path class="cls-1" d="M631,61.37c4-6.93,16.83-24.07,42-22.29l-6.34,38.06c-34.26,0-44.36,37.49-44.36,37.49L616.37,144h-40.6L594.19,40h40.6Z"/><path class="cls-1" d="M10.43,100.74c-6,32.35,12.9,43.26,30,43.26H73.74l6-33H58.44c-4.18,0-8.73-3.12-7.35-11l6-33H85.17l5.28-29H62.2L67.75,8,25.26,19,21.8,38H5.28L0,67H16.46l-6,33.75Z"/></g></g></svg>