<?xml version="1.0" encoding="UTF-8" standalone="no"?>
<svg width="32px" height="24px" viewBox="0 0 32 24" version="1.1" xmlns="http://www.w3.org/2000/svg" xmlns:xlink="http://www.w3.org/1999/xlink">
    <!-- Generator: Sketch 41.2 (35397) - http://www.bohemiancoding.com/sketch -->
    <title>Car_Grey</title>
    <desc>Created with Sketch.</desc>
    <defs></defs>
    <g id="Page-1" stroke="none" stroke-width="1" fill="none" fill-rule="evenodd" fill-opacity="0.4">
        <g id="0405_Calendar" transform="translate(-36.000000, -464.000000)" fill="#27314D">
            <g id="Car_Grey" transform="translate(36.000000, 464.000000)">
                <g id="Layer_1">
                    <path d="M31.4285714,13.52 C31.3323457,12.4551929 30.8010065,11.4772805 29.96,10.8171429 C29.5872585,9.63888804 28.9523043,8.56044285 28.1028571,7.66285714 L28.4685714,7.66285714 C29.2088684,7.68426783 29.9491304,7.6190634 30.6742857,7.46857143 C31.2742857,7.30285714 31.3314286,5.82857143 31.0171429,5.64 C30.2965284,5.4605155 29.5525739,5.39305849 28.8114286,5.44 C28.4114286,5.47428571 28.3771429,5.77142857 28.3085714,5.85142857 C28.2570615,6.12830013 28.2359838,6.4099744 28.2457143,6.69142857 C28.2457143,6.91428571 27.7942857,6.69142857 27.5428571,6.69142857 L27.5428571,6.69142857 C26.9714286,4.97714286 25.7885714,1.65714286 24.4228571,1.09142857 C22.7085714,0.394285714 8.85714286,0.394285714 7.16571429,1.09142857 C5.77142857,1.65714286 4.57142857,4.96571429 4,6.69142857 L4,6.69142857 C3.74285714,6.73142857 3.29142857,6.92571429 3.29142857,6.69142857 C3.30259272,6.41018909 3.28343463,6.12856513 3.23428571,5.85142857 C3.16571429,5.77142857 3.13142857,5.47428571 2.73142857,5.44 C1.99319939,5.39974112 1.25316303,5.47297389 0.537142857,5.65714286 C0.222857143,5.84571429 0.274285714,7.31428571 0.88,7.48571429 C1.60514764,7.63625806 2.34541579,7.70146302 3.08571429,7.68 L3.45714286,7.68 C2.60958986,8.57239743 1.97472173,9.6448362 1.6,10.8171429 C0.756319039,11.4757714 0.222695709,12.4540808 0.125714286,13.52 C0.04,14.3257143 -0.251428571,18.16 0.525714286,19.4285714 C0.605714286,19.5542857 1.09714286,19.6685714 1.09714286,19.7714286 L1.09714286,23.64 C1.09714286,23.8971429 1.47428571,23.8628571 1.66857143,23.8628571 L5.54857143,23.8628571 C5.76571429,23.8628571 6.21714286,23.8971429 6.21714286,23.64 L6.21714286,20.3428571 C10.2171429,20.5942857 15.0571429,20.5942857 15.9314286,20.5942857 C16.8057143,20.5942857 21.6457143,20.5942857 25.6457143,20.3428571 L25.6457143,23.6228571 C25.6457143,23.88 25.7714286,23.8457143 25.9942857,23.8457143 L29.8685714,23.8457143 C30.0914286,23.8457143 30.2171429,23.88 30.2171429,23.6228571 L30.2171429,19.7542857 C30.7885714,19.6514286 30.7885714,19.5371429 30.8914286,19.4114286 C31.6685714,18.16 31.5028571,14.3257143 31.4285714,13.52 Z M7.30857143,2.04 C8.32,1.96 10.7371429,1.83428571 15.8228571,1.83428571 C20.9085714,1.83428571 23.2514286,1.96 24.2285714,2.04 C25.0571429,2.65142857 26.1028571,5.18285714 26.7257143,7.18285714 C24.12,7.29142857 15.9657143,7.33714286 15.7714286,7.33714286 C15.5771429,7.33714286 7.42857143,7.30857143 4.81714286,7.2 C5.44,5.18857143 6.48571429,2.66285714 7.30857143,2.04 Z M21.0742857,16 C21.0742857,16.2171429 20.6628571,16.4057143 20.44,16.4057143 L11.0971429,16.4057143 C10.88,16.4057143 10.7828571,16.2228571 10.7828571,16 L10.7828571,14.0685714 C10.7828571,13.8457143 10.8742857,13.56 11.0971429,13.56 L20.44,13.56 C20.6628571,13.56 21.0742857,13.8457143 21.0742857,14.0685714 L21.0742857,16 Z M27.04,16.9371429 C25.9606778,16.9371429 25.0857143,16.0621793 25.0857143,14.9828571 C25.0857143,13.9035349 25.9606778,13.0285714 27.04,13.0285714 C28.1193222,13.0285714 28.9942857,13.9035349 28.9942857,14.9828571 C28.9973284,15.5031433 28.792775,16.0031645 28.425945,16.3721397 C28.0591151,16.7411149 27.560295,16.9485803 27.04,16.9485714 L27.04,16.9371429 Z M4.81142857,16.9371429 C3.73210637,16.9371429 2.85714286,16.0621793 2.85714286,14.9828571 C2.85714286,13.9035349 3.73210637,13.0285714 4.81142857,13.0285714 C5.89075077,13.0285714 6.76571429,13.9035349 6.76571429,14.9828571 C6.768765,15.5041351 6.56342931,16.0050282 6.19536074,16.3741699 C5.82729216,16.7433116 5.32699895,16.9501046 4.80571429,16.9485714 L4.81142857,16.9371429 Z" id="Shape"></path>
                </g>
            </g>
        </g>
    </g>
</svg>