<?xml version="1.0" encoding="UTF-8" standalone="no"?>
<svg width="30px" height="30px" viewBox="0 0 30 30" version="1.1" xmlns="http://www.w3.org/2000/svg" xmlns:xlink="http://www.w3.org/1999/xlink">
    <!-- Generator: Sketch 41.2 (35397) - http://www.bohemiancoding.com/sketch -->
    <title>Appointments_DrsAppointment_Green</title>
    <desc>Created with Sketch.</desc>
    <defs></defs>
    <g id="Page-1" stroke="none" stroke-width="1" fill="none" fill-rule="evenodd" opacity="0.4">
        <g id="0405_Calendar-Supporter-Accept-of-Reject" transform="translate(-40.000000, -387.000000)" stroke="#27324D" fill="#27324D">
            <g id="Appointments_DrsAppointment_Green" transform="translate(41.000000, 388.000000)">
                <g id="Layer_1">
                    <path d="M14.23,5.5 C14.2272407,2.9283059 12.1416956,0.84499852 9.57,0.845 L9.12,0.845 L9.12,2 L9.57,2 C11.5029966,2 13.07,3.56700338 13.07,5.5 L13.07,6.695 L13.07,6.695 C12.94,10.865 9.995,15.115 7.23,15.145 C4.465,15.175 1.5,10.86 1.37,6.69 L1.37,6.69 L1.37,5.5 C1.37,3.56700338 2.93700338,2 4.87,2 L5.32,2 L5.32,0.84 L4.87,0.84 C3.62976526,0.833346284 2.43804337,1.32137024 1.55870935,2.19601197 C0.679375327,3.07065371 0.184982152,4.25974741 0.185,5.5 L0.185,6.8 L0.185,6.8 C0.365,11.585 3.795,16.26 7.16,16.3 L7.22,16.3 C10.585,16.245 14.01,11.57 14.195,6.8 L14.195,6.8 L14.23,5.5 Z" id="Shape"></path>
                    <path d="M20.3,9.345 C18.4728854,9.39407447 17.0302319,10.9127748 17.075,12.74 L17.075,21.955 C17.0290205,24.4964775 14.9668044,26.5387366 12.425,26.56 L12.335,26.56 C9.80943483,26.5407373 7.7761403,24.4806006 7.79,21.955 L7.79,15.865 L6.625,15.865 L6.625,21.955 C6.61390471,25.1228781 9.16717903,27.7029819 12.335,27.725 L12.425,27.725 C15.6076859,27.6957093 18.1882503,25.1373147 18.245,21.955 L18.245,12.74 C18.2192572,12.1701337 18.4215697,11.6134853 18.8072051,11.1931334 C19.1928404,10.7727815 19.7300308,10.5233537 20.3,10.5 L22.18,10.5 L22.18,9.345 L20.3,9.345 Z" id="Shape"></path>
                    <ellipse id="Oval" cx="24.54" cy="9.66" rx="1.275" ry="1.275"></ellipse>
                    <path d="M24.54,13 C22.6898461,13 21.19,11.5001539 21.19,9.65 C21.19,7.79984609 22.6898461,6.3 24.54,6.3 C26.3901539,6.3 27.89,7.79984609 27.89,9.65 C27.8872464,11.4990121 26.3890121,12.9972464 24.54,13 L24.54,13 Z M24.54,7.575 C23.7007408,7.575 22.9441205,8.08055752 22.62295,8.85593188 C22.3017794,9.63130624 22.4793076,10.5238007 23.0727534,11.1172466 C23.6661993,11.7106924 24.5586938,11.8882206 25.3340681,11.56705 C26.1094425,11.2458795 26.615,10.4892592 26.615,9.65 C26.6094959,8.50791632 25.6820969,7.58498674 24.54,7.585 L24.54,7.575 Z" id="Shape"></path>
                    <ellipse id="Oval" cx="4.79" cy="1.42" rx="1.22" ry="1.08"></ellipse>
                    <ellipse id="Oval" cx="9.625" cy="1.42" rx="1.22" ry="1.08"></ellipse>
                </g>
            </g>
        </g>
    </g>
</svg>