<?xml version="1.0" encoding="UTF-8" standalone="no"?>
<svg width="20px" height="28px" viewBox="0 0 20 28" version="1.1" xmlns="http://www.w3.org/2000/svg" xmlns:xlink="http://www.w3.org/1999/xlink">
    <!-- Generator: Sketch 41.2 (35397) - http://www.bohemiancoding.com/sketch -->
    <title>Appointments_LocationMarker_Green</title>
    <desc>Created with Sketch.</desc>
    <defs></defs>
    <g id="Page-1" stroke="none" stroke-width="1" fill="none" fill-rule="evenodd" opacity="0.4">
        <g id="0405_Calendar-Supporter-Accept-of-Reject" transform="translate(-44.000000, -300.000000)" fill="#27324D">
            <g id="Appointments_LocationMarker_Green" transform="translate(44.000000, 300.000000)">
                <g id="Layer_1">
                    <path d="M9.8245614,0 C4.39860597,-3.32243948e-16 6.64487896e-16,4.39860597 0,9.8245614 C0,15.2575439 9.8245614,27.5775439 9.8245614,27.5775439 C9.8245614,27.5775439 19.6491228,15.2575439 19.6491228,9.8245614 C19.6491228,4.39860597 15.2505168,3.32243948e-16 9.8245614,0 Z M9.8245614,13.002807 C8.00144038,13.002807 6.52350877,11.5248754 6.52350877,9.70175439 C6.52350877,7.87863336 8.00144038,6.40070175 9.8245614,6.40070175 C11.6476824,6.40070175 13.125614,7.87863336 13.125614,9.70175439 C13.125614,10.577248 12.7778256,11.4168836 12.1587581,12.0359511 C11.5396906,12.6550185 10.700055,13.002807 9.8245614,13.002807 L9.8245614,13.002807 Z" id="Shape"></path>
                </g>
            </g>
        </g>
    </g>
</svg>