<svg id="Layer_1" data-name="Layer 1" xmlns="http://www.w3.org/2000/svg" viewBox="0 0 74.93 80.14"><defs><style>.cls-1{opacity:0.7;}.cls-2{fill:#fff;}.cls-3{fill:#2a344d;}</style></defs><title>Home_Appointment-01</title><g class="cls-1"><polygon class="cls-2" points="10.93 14.74 10.93 79.53 74.93 80.14 74.93 14.81 10.93 14.74"/></g><path class="cls-3" d="M48.8,10.18a1.6,1.6,0,0,1-1.6-1.6V2.18a1.6,1.6,0,1,1,3.2,0v6.4A1.6,1.6,0,0,1,48.8,10.18Z"/><polygon class="cls-3" points="66.4 71.11 0 70.63 0 19.86 2.4 19.86 2.4 68.24 64 68.69 64 19.91 66.4 19.91 66.4 71.11"/><path class="cls-3" d="M66.4,22.5,0,22V3.59l66.4.48Zm-64-2.86,61.6.45V6.45L2.4,6Z"/><path class="cls-3" d="M17.6,9.6A1.6,1.6,0,0,1,16,8V1.6a1.6,1.6,0,1,1,3.2,0V8A1.6,1.6,0,0,1,17.6,9.6Z"/><path class="cls-3" d="M32.8,10a1.6,1.6,0,0,1-1.6-1.6V2a1.6,1.6,0,1,1,3.2,0v6.4A1.6,1.6,0,0,1,32.8,10Z"/><path class="cls-3" d="M22.23,35.35c-2.17,0-3.28,1.47-3.37,3.46l-5.51-.11c.43-4.72,3.71-8.18,8.76-8.08,5.39.11,8.65,3.16,8.72,7.77.05,3.2-2.37,5.64-5,8.32L21,51.89l10.32.21.07,4.61-17.75-.36-.05-3.45,8-8.34c2.22-2.4,3.94-4.15,3.91-6.06A3.13,3.13,0,0,0,22.23,35.35Z"/><path class="cls-3" d="M46.53,38a3.46,3.46,0,0,0-3.42-2.56c-3-.06-4.91,3.47-4.86,7v.37c.81-1.56,2.84-2.64,5.34-2.59a8.42,8.42,0,0,1,8.49,8.55c.08,4.82-3.2,8.69-8.92,8.57a8.91,8.91,0,0,1-7.84-4.76,15.66,15.66,0,0,1-1.92-8C33.28,36.62,36.86,30.92,43,31c4.84.1,7.73,2.73,8.71,7ZM43.14,53a3.9,3.9,0,0,0,4.15-4.19A4.28,4.28,0,0,0,43,44.32a3.92,3.92,0,0,0-4.19,4.31A4.23,4.23,0,0,0,43.14,53Z"/></svg>