<?xml version="1.0" encoding="UTF-8"?>
<svg width="75px" height="81px" viewBox="0 0 75 81" version="1.1" xmlns="http://www.w3.org/2000/svg" xmlns:xlink="http://www.w3.org/1999/xlink">
    <!-- Generator: Sketch 41 (35326) - http://www.bohemiancoding.com/sketch -->
    <title>appointment</title>
    <desc>Created with Sketch.</desc>
    <defs></defs>
    <g id="Page-1" stroke="none" stroke-width="1" fill="none" fill-rule="evenodd">
        <g id="appointment" fill="#000000">
            <g id="Group" opacity="0.7" transform="translate(10.000000, 14.000000)">
                <polygon id="Shape" points="0.93 0.74 0.93 65.53 64.93 66.14 64.93 0.81"></polygon>
            </g>
            <path d="M48.8,10.18 C47.9163444,10.18 47.2,9.4636556 47.2,8.58 L47.2,2.18 C47.2,1.2963444 47.9163444,0.58 48.8,0.58 C49.6836556,0.58 50.4,1.2963444 50.4,2.18 L50.4,8.58 C50.4,9.00434638 50.2314291,9.41131264 49.9313708,9.71137085 C49.6313126,10.0114291 49.2243464,10.18 48.8,10.18 L48.8,10.18 Z" id="Shape"></path>
            <polygon id="Shape" points="66.4 71.11 0 70.63 0 19.86 2.4 19.86 2.4 68.24 64 68.69 64 19.91 66.4 19.91"></polygon>
            <path d="M66.4,22.5 L0,22 L0,3.59 L66.4,4.07 L66.4,22.5 Z M2.4,19.64 L64,20.09 L64,6.45 L2.4,6 L2.4,19.64 Z" id="Shape"></path>
            <path d="M17.6,9.6 C16.7163444,9.6 16,8.8836556 16,8 L16,1.6 C16,0.7163444 16.7163444,1.623249e-16 17.6,0 C18.4836556,-1.623249e-16 19.2,0.7163444 19.2,1.6 L19.2,8 C19.2,8.8836556 18.4836556,9.6 17.6,9.6 L17.6,9.6 Z" id="Shape"></path>
            <path d="M32.8,10 C31.9163444,10 31.2,9.2836556 31.2,8.4 L31.2,2 C31.2,1.1163444 31.9163444,0.4 32.8,0.4 C33.6836556,0.4 34.4,1.1163444 34.4,2 L34.4,8.4 C34.4,9.2836556 33.6836556,10 32.8,10 L32.8,10 Z" id="Shape"></path>
            <path d="M22.23,35.35 C20.06,35.35 18.95,36.82 18.86,38.81 L13.35,38.7 C13.78,33.98 17.06,30.52 22.11,30.62 C27.5,30.73 30.76,33.78 30.83,38.39 C30.88,41.59 28.46,44.03 25.83,46.71 L21,51.89 L31.32,52.1 L31.39,56.71 L13.64,56.35 L13.59,52.9 L21.59,44.56 C23.81,42.16 25.53,40.41 25.5,38.5 C25.5063455,37.6415706 25.1598374,36.8182118 24.5415814,36.2226441 C23.9233254,35.6270764 23.0875927,35.3115793 22.23,35.35 L22.23,35.35 Z" id="Shape"></path>
            <path d="M46.53,38 C46.1157885,36.4607533 44.7035908,35.4036696 43.11,35.44 C40.11,35.38 38.2,38.91 38.25,42.44 L38.25,42.81 C39.06,41.25 41.09,40.17 43.59,40.22 C45.8579429,40.2008731 48.0376966,41.0974907 49.6357745,42.7068625 C51.2338525,44.3162343 52.1150976,46.5022481 52.08,48.77 C52.16,53.59 48.88,57.46 43.16,57.34 C39.8679833,57.3235304 36.8532967,55.493185 35.32,52.58 C33.9784359,50.1321139 33.3155591,47.3701273 33.4,44.58 C33.28,36.62 36.86,30.92 43,31 C47.84,31.1 50.73,33.73 51.71,38 L46.53,38 Z M43.14,53 C44.2693087,53.0758811 45.3758775,52.6574044 46.1723722,51.8532326 C46.9688669,51.0490609 47.37671,49.9385289 47.29,48.81 C47.3476204,47.6372062 46.9208765,46.4922457 46.1097094,45.643262 C45.2985424,44.7942783 44.174201,44.3158419 43,44.32 C41.8430464,44.2340126 40.7074317,44.6649193 39.8987475,45.4967638 C39.0900634,46.3286084 38.6913865,47.4759349 38.81,48.63 C38.7711297,49.7934901 39.2134821,50.9215702 40.0328594,51.7485168 C40.8522368,52.5754635 41.9762017,53.0281701 43.14,53 Z" id="Shape"></path>
        </g>
    </g>
</svg>