<svg id="Layer_1" data-name="Layer 1" xmlns="http://www.w3.org/2000/svg" viewBox="0 0 119.68 97.92"><defs><style>.cls-1{fill:#2a344d;}.cls-2{fill:none;stroke:#fff;stroke-miterlimit:10;stroke-width:2.16px;}.cls-3{fill:#fff;}</style></defs><title>Home_Expenses</title><rect class="cls-1" x="14.68" y="14.68" width="105" height="83.24" rx="10" ry="10"/><rect class="cls-2" x="1.08" y="1.08" width="105" height="83.24" rx="10" ry="10"/><rect class="cls-3" x="1.08" y="20.68" width="105" height="16.22"/><path class="cls-3" d="M51.8,69.43c-3.93-.67-6.63-3.09-7.33-6.92l5,0c.69,2,2.34,3,4.58,3s3.73-1,3.72-2.8c0-1.48-.85-2.24-2.94-2.74l-3.94-1c-3.25-.79-5.87-2.6-5.88-6.55,0-3.75,2.66-6.43,6.71-6.92V41.92l4.25,0v3.79a8,8,0,0,1,6.32,6.48l-4.77,0a4.16,4.16,0,0,0-4.26-2.71c-2.13,0-3.49,1-3.48,2.68,0,1.36.89,2.12,2.58,2.58l4.18,1c3.74,1,6,3.16,6,6.75,0,3.87-2.66,6.36-6.51,7v3.87l-4.25,0Z"/></svg>