<svg id="Layer_1" data-name="Layer 1" xmlns="http://www.w3.org/2000/svg" viewBox="0 0 94.17 104.44"><defs><style>.cls-1{fill:#2a344d;}.cls-2{fill:#fff;}</style></defs><title>Home_Forum</title><path class="cls-1" d="M93.45,58.66l-13.16-.18V48.59L9,48.41V78c0,16.43,13.12,26.36,35.65,26.43,27.09.08,35.65-12.9,35.65-26.38v-.2C98.8,77.54,93.45,58.66,93.45,58.66Z"/><path class="cls-2" d="M37.16,96.57h-.25C13.8,96.5,0,86.15,0,68.87V38l73.84.18V68.92c0,7.33-2.45,13.66-7.09,18.28C60.52,93.42,50.56,96.57,37.16,96.57Zm-34.61-56V68.87C2.55,84.56,15.4,94,36.93,94h.24c12.7,0,22-2.9,27.79-8.62,4.15-4.14,6.34-9.84,6.34-16.48V40.72Z"/><path class="cls-2" d="M14.12,70.25a5.2,5.2,0,0,1-4.13-2c-.36-.42-.67-.87-1-1.26-1.5-1.54-3.24-1.58-5.39-.13-.43.29-.84.65-1.27.95s-1.08.34-1.41-.12a1.07,1.07,0,0,1,.27-1.49c2.73-2.45,6.25-3.83,9.07-1.34a13.2,13.2,0,0,1,1.42,1.58c1.74,2.12,3.83,2.15,6.41.09.21-.17.4-.35.62-.49.58-.38,1.08-.35,1.41.12a1.07,1.07,0,0,1-.27,1.49A8.64,8.64,0,0,1,14.12,70.25Z"/><path class="cls-2" d="M31.25,70.56a5.2,5.2,0,0,1-4.13-2c-.36-.42-.67-.87-1-1.26-1.5-1.54-3.24-1.58-5.39-.13-.43.29-.84.65-1.27.95S18.34,68.41,18,68a1.07,1.07,0,0,1,.27-1.49C21,64,24.53,62.63,27.34,65.11a13.2,13.2,0,0,1,1.42,1.58c1.74,2.12,3.83,2.15,6.41.09.21-.17.4-.35.62-.49.58-.38,1.08-.35,1.41.12a1.07,1.07,0,0,1-.27,1.49A8.64,8.64,0,0,1,31.25,70.56Z"/><path class="cls-2" d="M49,70.42a5.2,5.2,0,0,1-4.13-2c-.36-.42-.67-.87-1-1.26-1.5-1.54-3.24-1.58-5.39-.13-.43.29-.84.65-1.27.95s-1.08.34-1.41-.12A1.07,1.07,0,0,1,36,66.32c2.73-2.45,6.25-3.83,9.07-1.34a13.2,13.2,0,0,1,1.42,1.58c1.74,2.12,3.83,2.15,6.41.09.21-.17.4-.35.62-.49.58-.38,1.08-.35,1.41.12a1.07,1.07,0,0,1-.27,1.49A8.64,8.64,0,0,1,49,70.42Z"/><path class="cls-2" d="M66.67,70.28a5.2,5.2,0,0,1-4.13-2c-.36-.42-.67-.87-1-1.26-1.5-1.54-3.24-1.58-5.39-.13-.43.29-.84.65-1.27.95s-1.08.34-1.41-.12a1.07,1.07,0,0,1,.27-1.49c2.73-2.45,6.25-3.83,9.07-1.34a13.2,13.2,0,0,1,1.42,1.58c1.74,2.12,3.83,2.15,6.41.09.21-.17.4-.35.62-.49.58-.38,1.08-.35,1.41.12a1.07,1.07,0,0,1-.27,1.49A8.64,8.64,0,0,1,66.67,70.28Z"/><path class="cls-2" d="M28.43,5.48a9.21,9.21,0,0,1-2.3,5.69c-.46.58-1,1.14-1.39,1.74-1.65,2.34-1.69,4.32-.15,6.12.32.37.7.68,1,1a1.14,1.14,0,0,1-.08,1.65c-.5.6-1.12.79-1.63.4-2.71-2-4.16-5.44-1.57-9.64a22.8,22.8,0,0,1,1.73-2.32c2.48-3.06,2.53-5.38.12-7.55-.16-.14-.43-.27-.44-.45A3,3,0,0,1,23.91.59,1.13,1.13,0,0,1,25.51.17,6.65,6.65,0,0,1,28.43,5.48Z"/><path class="cls-2" d="M52.85,5.64a9.1,9.1,0,0,1-2.25,5.59c-.46.59-1,1.14-1.39,1.74-1.69,2.38-1.74,4.38-.16,6.2.32.37.71.67,1,1a1.16,1.16,0,0,1-.14,1.66c-.51.58-1.13.73-1.64.34-2.67-2.06-4.17-5.47-1.44-9.75a26.45,26.45,0,0,1,1.74-2.31c2.33-2.9,2.37-5.29.12-7.34a5.52,5.52,0,0,1-.54-.5A1.18,1.18,0,0,1,48.33.65,1.15,1.15,0,0,1,50,.31,6.42,6.42,0,0,1,52.85,5.64Z"/><path class="cls-2" d="M40.35,5.63a9.07,9.07,0,0,1-2.23,5.49c-.54.7-1.15,1.38-1.63,2.11-1.39,2.11-1.43,3.88-.15,5.54.37.48.85.87,1.26,1.32a1.16,1.16,0,0,1-.12,1.66c-.51.59-1.13.74-1.64.35-2.57-2-4.22-5.31-1.52-9.65A27.11,27.11,0,0,1,36.19,10c2.23-2.8,2.27-5.18.11-7.19-1-.91-1.11-1.52-.49-2.22s1.35-.71,2.35.23A6.21,6.21,0,0,1,40.35,5.63Z"/><path class="cls-2" d="M73.4,69.76l0-2.06c5-.06,8.59-1.53,10.71-4.37,3.21-4.3,2.23-10.64,1.77-12.79l-13.09-.18,0-2.06,14.67.2.21.74c.11.38,2.57,9.3-1.93,15.32C83.22,67.94,79.07,69.69,73.4,69.76Z"/><path class="cls-2" d="M73.45,64.2l-.06-2.06c3.67-.1,6.14-1,7.34-2.73a5.2,5.2,0,0,0,.76-3.75l-8.69.06V53.65l10.27-.07.24.71a7.6,7.6,0,0,1-.87,6.3C80.83,62.86,77.81,64.08,73.45,64.2Z"/></svg>