<svg id="Layer_1" data-name="Layer 1" xmlns="http://www.w3.org/2000/svg" viewBox="0 0 84.12 79.87"><defs><style>.cls-1{fill:#2a344d;}.cls-2{fill:#fff;}</style></defs><title>Home_Gifts</title><path class="cls-1" d="M47.59,79.87c-3-3.06-5.91-6-8.84-9Q28.18,60.26,17.6,49.64A20.38,20.38,0,1,1,46.8,21.25c.81.89,1.14.73,1.9,0,5.86-5.91,12.89-8,20.9-5.53C77.29,18,82,23.43,83.66,31.33c1.47,7.16-.69,13.37-5.76,18.48C68.15,59.64,58.3,69.39,48.48,79.16,48.28,79.37,48,79.52,47.59,79.87Z"/><path class="cls-2" d="M37.41,68.24,33.84,64.6c-2-2.08-4-4.12-6.07-6.15l-9.09-9.13q-6-6.05-12.06-12.12A21.71,21.71,0,0,1,3.18,10.34,21.35,21.35,0,0,1,19.59.1,21.39,21.39,0,0,1,37.66,7L37.73,7C44,.62,51.69-1.4,59.91,1.13,68,3.61,73.13,9.35,74.85,17.74c1.52,7.41-.53,14-6.1,19.63-7.12,7.19-14.42,14.44-21.48,21.45l-8,7.92a5.69,5.69,0,0,1-.62.52l-.38.29ZM21.73,2.55q-.94,0-1.9.09a18.82,18.82,0,0,0-14.47,9A19.2,19.2,0,0,0,8.43,35.41q6,6.07,12.05,12.11l9.09,9.13c2,2,4,4.08,6.08,6.16l2,2L45.47,57c7.05-7,14.34-14.26,21.46-21.44,4.93-5,6.75-10.8,5.41-17.32-1.54-7.52-6-12.46-13.19-14.69S45.21,3.05,39.54,8.77a2.59,2.59,0,0,1-1.93,1,2.61,2.61,0,0,1-1.82-1A18.8,18.8,0,0,0,21.73,2.55Z"/></svg>