<svg id="Layer_1" data-name="Layer 1" xmlns="http://www.w3.org/2000/svg" viewBox="0 0 129.73 89.17"><defs><style>.cls-1{fill:#232b40;}.cls-2{fill:#fff;}</style></defs><title>Home_Jobs</title><path class="cls-1" d="M84.08,55.09,83.91,25l-24.5-7.36L48.58,24.88H37.38c-2.26-3.75-5.36-9.54-9.45-10.66-6.65-1.82-12.45,6.89-15.25,11.59C8.08,33.55,5.92,43.29,10,51.65,15.39,62.58,29.7,68.09,29.74,81.49a3.14,3.14,0,0,0,3.37,3.19L33,87a145.17,145.17,0,0,0,26.38,2.12C77.79,89.17,85.8,87,85.8,87l-.25-8.23,32.07-48.66s12.29-3.3,12.1-5.12c-.64-6.26-7.47-13.28-13.54-13.28-1.83,0-4.26,12.71-4.26,12.71ZM33.55,70.33a46.07,46.07,0,0,0-7.84-10.14c-3.65-3.8-8.46-7.95-10.48-12.9-1.47-3.61-.89-7.63.13-11.26,1.54-5.5,5.28-12.43,10.51-15.3.07.2.86.55,1.27,1a25.56,25.56,0,0,1,3.78,5.59A52.87,52.87,0,0,1,34.1,34a3.51,3.51,0,0,0,.52.89Z"/><path class="cls-2" d="M52.65,79.56a148.07,148.07,0,0,1-26.6-2.14l-.89-.18L25.24,75a4.39,4.39,0,0,1-2.13-1.13,4.14,4.14,0,0,1-1.21-3c0-7.68-5-12.63-10.33-17.88-3.49-3.45-7.09-7-9.28-11.48C-1.53,33.67-.55,23.88,5,14.58,10.61,5.11,16.15,1.05,21.45,2.5c4.14,1.13,7.21,6.3,9.45,10.07l.33.55H41.49l11-7.35L78.22,13.5l.16,28.13,25.77-28.34C106.73,0,108.68,0,109.42,0h0c6.51,0,13.88,7.19,14.6,14.25.08.74.28,2.69-12.5,6.16l-31.66,48,.26,8.74-.83.22C79,77.49,71,79.56,52.65,79.56ZM27.38,75.47A153.16,153.16,0,0,0,52.65,77.4c14.73,0,22.8-1.39,25.27-1.9l-.23-7.68.19-.29,32.3-49,.4-.11c4.8-1.29,10.32-3.24,11.28-4.2-.74-5.72-7-11.9-12.21-12.07-.9,1-2.47,6.83-3.43,11.83l-.06.3-.21.22L76.25,47.18l-.18-32.07-23.24-7L42.15,15.28H30l-1-1.61C27,10.21,24.17,5.48,20.88,4.58c-4.25-1.16-9,2.57-14,11.1S.74,33.39,4.23,40.49c2,4.14,5.5,7.57,8.86,10.9,5.38,5.33,10.94,10.83,11,19.41a2,2,0,0,0,.57,1.49,2.46,2.46,0,0,0,1.71.62l1.13,0Zm.35-11.7-1.91-3.62a45.72,45.72,0,0,0-7.66-9.9c-.66-.69-1.36-1.39-2.08-2.1C12.86,44.92,9.2,41.26,7.46,37s-.78-8.86.09-12c1.51-5.4,5.17-12.3,10.94-15.48a2.06,2.06,0,0,1,2.61.12,20.78,20.78,0,0,1,3.21,4.92c.27.51.52,1,.78,1.45a54,54,0,0,1,3.25,6.84,2.41,2.41,0,0,0,.37.63l.24.31Zm-8-52.39-.19.09c-5.19,2.86-8.58,9.42-9.9,14.16-1.24,4.44-1.3,7.8-.17,10.56C11,40,14.38,43.39,17.61,46.62c.73.72,1.44,1.43,2.11,2.13A58.32,58.32,0,0,1,25.81,56l1-31.46a4.32,4.32,0,0,1-.44-.84,51.71,51.71,0,0,0-3.12-6.57c-.26-.47-.53-1-.81-1.5A20.65,20.65,0,0,0,19.72,11.37Z"/></svg>