<?xml version="1.0" encoding="UTF-8" standalone="no"?>
<svg width="35px" height="35px" viewBox="0 0 35 35" version="1.1" xmlns="http://www.w3.org/2000/svg" xmlns:xlink="http://www.w3.org/1999/xlink">
    <!-- Generator: Sketch 41.2 (35397) - http://www.bohemiancoding.com/sketch -->
    <title>MENU Appointment</title>
    <desc>Created with Sketch.</desc>
    <defs></defs>
    <g id="Symbols" stroke="none" stroke-width="1" fill="none" fill-rule="evenodd">
        <g id="MENU-Patient" transform="translate(-323.000000, -19.000000)">
            <g id="MENU-Appointment" transform="translate(323.000000, 19.000000)">
                <g id="Layer_1">
                    <g id="Group" transform="translate(1.398860, 1.481481)" fill="#BEC1C9">
                        <polygon id="Shape" points="0.466313985 0.371054131 0.466313985 32.8583476 32.5567388 33.1642165 32.5567388 0.406153846"></polygon>
                    </g>
                    <path d="M26.3925926,5.10450142 C25.949506,5.10450142 25.5903134,4.74530879 25.5903134,4.30222222 L25.5903134,1.09310541 C25.5903134,0.650018845 25.949506,0.290826211 26.3925926,0.290826211 C26.8356792,0.290826211 27.1948718,0.650018845 27.1948718,1.09310541 L27.1948718,4.30222222 C27.1948718,4.5149999 27.1103462,4.71906275 26.9598897,4.86951929 C26.8094331,5.01997582 26.6053703,5.10450142 26.3925926,5.10450142 L26.3925926,5.10450142 Z" id="Shape" fill="#2A344D"></path>
                    <path d="M34.1530765,10.2636575 L0.923076923,10.0134316 L0.923076923,0.80011396 L34.1530765,1.04033082 L34.1530765,10.2636575 Z M1.12416124,8.83236536 L34.3541608,9.05756867 L34.3541608,2.23140611 L1.12416124,2.0062028 L1.12416124,8.83236536 Z" id="Shape" fill="#2A344D"></path>
                    <path d="M10.7481481,4.81367521 C10.3050616,4.81367521 9.94586895,4.45448258 9.94586895,4.01139601 L9.94586895,0.802279202 C9.94586895,0.359192634 10.3050616,8.13936822e-17 10.7481481,0 C11.1912347,-8.13936822e-17 11.5504274,0.359192634 11.5504274,0.802279202 L11.5504274,4.01139601 C11.5504274,4.45448258 11.1912347,4.81367521 10.7481481,4.81367521 L10.7481481,4.81367521 Z" id="Shape" fill="#2A344D"></path>
                    <path d="M18.3698006,5.01424501 C17.926714,5.01424501 17.5675214,4.65505238 17.5675214,4.21196581 L17.5675214,1.002849 C17.5675214,0.559762434 17.926714,0.200569801 18.3698006,0.200569801 C18.8128871,0.200569801 19.1720798,0.559762434 19.1720798,1.002849 L19.1720798,4.21196581 C19.1720798,4.65505238 18.8128871,5.01424501 18.3698006,5.01424501 L18.3698006,5.01424501 Z" id="Shape" fill="#2A344D"></path>
                    <path d="M13.0697436,17.7253561 C11.9816524,17.7253561 11.4250712,18.4624501 11.379943,19.4602849 L8.61709402,19.4051282 C8.83270655,17.0384046 10.4773789,15.3034758 13.0095726,15.3536182 C15.7122507,15.4087749 17.3468946,16.9381197 17.3819943,19.2496866 C17.4070655,20.854245 16.1936182,22.0777208 14.8748718,23.4215385 L12.4529915,26.0189174 L17.6276923,26.1242165 L17.662792,28.4357835 L8.76250712,28.2552707 L8.7374359,26.5253561 L12.7488319,22.3434758 C13.8619943,21.140057 14.7244444,20.2625641 14.7094017,19.3048433 C14.7125835,18.8744058 14.5388358,18.4615535 14.2288271,18.1629213 C13.9188184,17.864289 13.4997616,17.706091 13.0697436,17.7253561 L13.0697436,17.7253561 Z" id="Shape" fill="#2A344D"></path>
                    <path d="M25.254359,19.0541311 C25.0466632,18.282315 24.3385527,17.7522674 23.5394872,17.7704843 C22.0352137,17.7403989 21.0774929,19.5104274 21.1025641,21.2804558 L21.1025641,21.4659829 C21.5087179,20.6837607 22.5266097,20.1422222 23.7801709,20.1672934 C24.9173731,20.1577028 26.010355,20.6072888 26.8116704,21.4142672 C27.6129859,22.2212457 28.0548638,23.3173666 28.037265,24.4544729 C28.0773789,26.871339 26.4327066,28.8118519 23.5645584,28.7516809 C21.9138606,28.7434227 20.4022228,27.8256426 19.6333903,26.3649003 C18.9606972,25.1374702 18.6283145,23.7525425 18.6706553,22.3535043 C18.6104843,18.3621652 20.405584,15.5040456 23.4843305,15.5441595 C25.9112251,15.594302 27.3603419,16.9130484 27.8517379,19.0541311 L25.254359,19.0541311 Z M23.5545299,26.5754986 C24.120793,26.6135472 24.6756537,26.4037128 25.0750357,26.0004813 C25.4744176,25.5972499 25.6789201,25.0404019 25.6354416,24.4745299 C25.6643339,23.8864624 25.450354,23.3123511 25.043615,22.8866499 C24.636876,22.4609487 24.0731036,22.2210489 23.4843305,22.2231339 C22.9042056,22.1800177 22.3347805,22.3960849 21.9292865,22.8131921 C21.5237925,23.2302994 21.3238861,23.805597 21.3833618,24.3842735 C21.3638713,24.9676759 21.5856776,25.5333229 21.9965335,25.9479743 C22.4073894,26.3626256 22.9709729,26.5896238 23.5545299,26.5754986 Z" id="Shape" fill="#2A344D"></path>
                </g>
            </g>
        </g>
    </g>
</svg>