<?xml version="1.0" encoding="UTF-8" standalone="no"?>
<svg width="42px" height="38px" viewBox="0 0 42 38" version="1.1" xmlns="http://www.w3.org/2000/svg" xmlns:xlink="http://www.w3.org/1999/xlink">
    <!-- Generator: Sketch 41.2 (35397) - http://www.bohemiancoding.com/sketch -->
    <title>MENU Jobs Green</title>
    <desc>Created with Sketch.</desc>
    <defs></defs>
    <g id="Symbols" stroke="none" stroke-width="1" fill="none" fill-rule="evenodd">
        <path d="M42.0130904,11.5166283 C42.0130904,5.15752698 36.8578041,0.00224069815 30.4987028,0.00224069815 C26.8357214,0.00224069815 23.5777463,1.71749514 21.4703697,4.38280559 L21.40707,4.41137449 C19.4548617,2.46588832 17.2449732,1.32593313 15.225544,0.654283861 C15.2339466,0.649802465 15.2429094,0.641399847 15.2518722,0.634677752 C14.0811074,0.229671561 12.8268766,0 11.5166283,0 C5.15528628,0 0,5.15528628 0,11.5166283 C0,12.6890736 0.179255852,13.8206262 0.503036736,14.8860782 C0.505277434,14.8838375 0.507518132,14.8799163 0.511999528,14.8776756 C1.42452385,18.1552568 3.30222891,20.2122177 3.88817147,20.7174951 L6.37646677,23.0959962 L6.52491303,23.2405213 L6.36974468,23.3984905 C5.62135149,24.1620084 5.63871691,25.3893508 6.40279498,26.1355033 C7.16631287,26.8816558 8.39141459,26.866531 9.13980777,26.1030131 L9.30169821,25.9433634 C9.3196238,25.9276785 9.34147061,25.9170352 9.36779881,25.9170352 C9.42661714,25.9170352 9.47255145,25.9629695 9.47255145,26.0217878 C9.47255145,26.0458753 9.46414883,26.0677222 9.44846394,26.0850876 L9.45070464,26.0873283 L9.29777699,26.2452975 C8.54938381,27.0088154 8.56674922,28.2361578 9.33026711,28.9800696 C10.0960257,29.7284628 11.3216876,29.7133381 12.0678401,28.9475795 L12.218527,28.798573 C12.2386933,28.7767262 12.266702,28.7616015 12.2975116,28.7616015 C12.3568901,28.7616015 12.4028245,28.8075358 12.4028245,28.8663541 C12.4028245,28.8926824 12.391621,28.9145292 12.3764963,28.9318946 L12.3742556,28.9341353 C12.3720149,28.936376 12.3697742,28.9386167 12.3675335,28.9408574 L12.2207677,29.0898638 C11.4723746,29.8533817 11.4903001,31.0807241 12.253818,31.8268766 C13.0195766,32.5730291 14.2452385,32.5601451 14.991391,31.7943865 L15.1488,31.632496 L15.1510407,31.6369774 C15.1684062,31.6235332 15.190253,31.6128899 15.2143405,31.6128899 C15.273719,31.6128899 15.3196533,31.6588242 15.3196533,31.7176425 C15.3196533,31.7417301 15.3106905,31.7613362 15.2978065,31.7787016 L15.299487,31.7809423 L15.2910844,31.7899051 C15.2888437,31.7921458 15.2888437,31.7921458 15.286603,31.7943865 L15.1443187,31.9411522 C14.3959255,32.7046701 14.4132909,33.9320125 15.1773689,34.678165 C15.9431275,35.4243175 17.1682293,35.4114335 17.9143817,34.6456749 L18.0964385,34.4596969 L18.0437821,34.527478 L20.6172239,36.9782416 C21.31072,37.6370069 22.2165222,38 23.1704994,38 L23.2186745,38 C24.2275488,37.987116 25.1664013,37.5753877 25.8598974,36.8466006 C26.5337874,36.1379798 26.8950999,35.1705584 26.8620496,34.1751283 C26.9012619,34.1773689 26.9455157,34.1796096 26.9953712,34.1773689 C28.0020048,34.1661655 28.9386167,33.7549973 29.6321127,33.0262103 C30.3043222,32.31927 30.6583525,31.3983431 30.6409871,30.4135562 C30.6846807,30.4157969 30.7418185,30.4157969 30.7922342,30.4157969 C31.7988679,30.4023527 32.7371602,29.9934253 33.4334572,29.2623975 C34.1095878,28.5515361 34.4680995,27.5863553 34.4378501,26.5886845 C34.4770623,26.5909252 34.53364,26.5931659 34.5711716,26.5909252 C35.5778053,26.577481 36.5144171,26.1685536 37.2101539,25.4375258 C38.4856713,24.0987087 38.5534524,22.0462291 37.4549502,20.6194646 C40.1443481,18.5098473 42.0130904,15.1857716 42.0130904,11.5166283 Z M35.7178489,24.0107612 C35.4198361,24.3238988 34.9868212,24.5031547 34.527478,24.5031547 C34.0961436,24.5031547 33.6956188,24.350227 33.4026476,24.0701397 L30.6869214,21.5336694 C30.5143876,21.40707 30.3043222,21.3303261 30.0724099,21.3303261 C29.4965505,21.3303261 29.0282446,21.798632 29.0282446,22.3761719 C29.0282446,22.7089156 29.1878943,23.0041276 29.4332508,23.1945869 L31.8862551,25.5209918 C32.5405389,26.1444661 32.5668672,27.1813491 31.9450734,27.835633 C31.6476207,28.1487706 31.2146058,28.3280264 30.7547025,28.3280264 C30.3239283,28.3280264 29.9234035,28.1750988 29.6304322,27.8950115 L27.0088154,25.3787075 L27.0065747,25.3809482 C26.8205967,25.2100949 26.5735598,25.1031016 26.3018751,25.1031016 C25.7265759,25.1031016 25.2582699,25.5708473 25.2582699,26.1489475 C25.2582699,26.426794 25.3697447,26.6783124 25.5467598,26.866531 L25.5450793,26.8687717 L28.0899522,29.2887258 C28.737514,29.9122 28.7616015,30.9496433 28.1442892,31.5994457 C27.8468365,31.9103426 27.4138216,32.0895984 26.9539183,32.0895984 C26.5231441,32.0895984 26.1226193,31.9366708 25.8290878,31.6565835 L23.2405213,29.2142225 L23.2382806,29.2164632 C23.0500619,29.0243234 22.7879002,28.9038858 22.4966095,28.9038858 C21.9190695,28.9038858 21.4530043,29.3721918 21.4530043,29.9497317 C21.4530043,30.2539065 21.5863258,30.525031 21.7941506,30.7154903 L24.3104546,33.1051949 C24.9647385,33.7286691 24.9910667,34.7677929 24.3698331,35.4198361 C24.0723804,35.7329736 23.6388054,35.9122295 23.1794622,35.9122295 C22.7481278,35.9122295 22.3481632,35.7593018 22.0546318,35.4792146 L19.4923934,33.041335 L19.6453211,32.8861666 C20.3937143,32.120408 20.3763488,30.8947462 19.6105902,30.146353 C18.8470724,29.4002005 17.6214105,29.4158854 16.8730173,30.1794033 L16.78563,30.2690312 L16.7833894,30.2645498 C16.7637832,30.2863966 16.737455,30.2998408 16.7044047,30.2998408 C16.6478271,30.2998408 16.5996521,30.2539065 16.5996521,30.194528 C16.5996521,30.1620379 16.6147768,30.133469 16.6388643,30.1138628 L16.7178489,30.0348782 C17.4662421,29.2691196 17.4483165,28.0440179 16.6847986,27.2973053 C15.9212807,26.5494723 14.6933781,26.564597 13.9472257,27.3303556 L13.855357,27.4244649 L13.8531163,27.4222242 C13.8357509,27.4356684 13.8139041,27.4463117 13.7898166,27.4463117 C13.733239,27.4463117 13.685064,27.3981367 13.685064,27.3415591 C13.685064,27.3174715 13.6934666,27.2973053 13.7069108,27.2799399 L13.7046701,27.2776992 L13.7130727,27.2692965 C13.7153134,27.2670558 13.7153134,27.2648151 13.7175541,27.2648151 L13.794298,27.1858305 C14.5426912,26.4200719 14.5253258,25.1949702 13.759007,24.446577 C12.9932484,23.7004246 11.7703874,23.7155493 11.0219942,24.4790672 L10.9211628,24.5754172 C10.9015567,24.6017454 10.8729878,24.6191108 10.838257,24.6191108 C10.7811192,24.6191108 10.7329442,24.5709358 10.7329442,24.5143582 C10.7329442,24.4813079 10.748629,24.452739 10.7721564,24.4331328 L10.8645852,24.3367828 C11.6107377,23.5710242 11.5950528,22.3459225 10.8292942,21.5975293 C10.0657763,20.8513769 8.84011439,20.8665016 8.09172121,21.6300195 L7.99144997,21.7308509 L5.29757061,19.1204375 C5.27124241,19.09635 3.29326611,17.3586886 2.37401969,13.5797512 C2.38074179,13.5775105 2.38746388,13.5730291 2.3958665,13.5713485 C2.24517955,12.9081019 2.15947285,12.2190872 2.15947285,11.5121469 C2.15947285,6.35461997 6.35461997,2.16003302 11.5143876,2.16003302 C12.2823869,2.16003302 13.024058,2.26254496 13.7394009,2.44012029 L13.7394009,2.43787959 C15.5711716,2.94091633 17.6628634,3.86240344 19.5119995,5.55357038 L9.99127307,14.9824282 C9.60419246,15.3459815 9.35883602,15.8602217 9.35883602,16.4310396 C9.35883602,17.5340232 10.2517542,18.4269414 11.3547379,18.4269414 C11.4113155,18.4269414 11.4639719,18.4134973 11.5183089,18.4090159 C11.5205496,18.4134973 11.5205496,18.415738 11.5227903,18.4179787 C11.5664839,18.4134973 11.608497,18.4028539 11.6521906,18.3961318 C11.704847,18.3871691 11.7547025,18.3810071 11.8073589,18.3698036 C13.3915325,18.0566661 16.3806239,14.8754349 19.1008314,13.1708238 C20.6345893,12.2230084 21.5493543,11.9255558 23.2343593,11.9255558 C24.6364762,11.9255558 25.9103131,12.4571614 26.8794151,13.3237514 C26.9953712,13.4094581 27.1180494,13.5142107 27.2536117,13.649773 L33.0743853,19.2386344 L33.0721446,19.2431157 L35.6041335,21.6675512 C36.2600979,22.2932661 36.3390825,23.3564774 35.7178489,24.0107612 Z" id="MENU-Jobs-Green" fill="#7BDBB7"></path>
    </g>
</svg>