<?xml version="1.0" encoding="UTF-8" standalone="no"?>
<svg width="37px" height="37px" viewBox="0 0 37 37" version="1.1" xmlns="http://www.w3.org/2000/svg" xmlns:xlink="http://www.w3.org/1999/xlink">
    <!-- Generator: Sketch 41.2 (35397) - http://www.bohemiancoding.com/sketch -->
    <title>MENU Gift BOx Green</title>
    <desc>Created with Sketch.</desc>
    <defs>
        <polygon id="path-1" points="0.410197183 19.8932958 35.5903099 19.8932958 35.5903099 11.4302535 0.410197183 11.4302535"></polygon>
    </defs>
    <g id="Symbols" stroke="none" stroke-width="1" fill="none" fill-rule="evenodd">
        <g id="MENU-Green" transform="translate(-365.000000, -7.000000)">
            <g id="MENU-Gift-BOx-Green" transform="translate(365.770014, 7.000000)">
                <polygon id="Fill-1" fill="#7BDBB7" points="0.410197183 19.8932958 35.5903099 19.8932958 35.5903099 11.4302535 0.410197183 11.4302535"></polygon>
                <polygon id="Fill-2" stroke="#979797" fill="#7BDBB7" points="2.40033803 35.5740845 33.5991549 35.5740845 33.5991549 20.3075493 2.40033803 20.3075493"></polygon>
                <g id="Fill-1-Copy">
                    <use stroke="#27314D" stroke-width="1.25" xlink:href="#path-1"></use>
                    <use stroke="#979797" stroke-width="1" xlink:href="#path-1"></use>
                </g>
                <polygon id="Fill-2-Copy" stroke="#27314D" stroke-width="1.25" points="2.40033803 35.5740845 33.5991549 35.5740845 33.5991549 20.3075493 2.40033803 20.3075493"></polygon>
                <path d="M16.9859155,5.68242254 C16.4945915,3.51785915 14.9359437,1.02980282 13.5081127,0.305239437 C13.0603944,0.0790985915 11.9829296,0.16428169 11.5017465,0.305239437 C10.5510423,0.584112676 9.27126761,1.73104225 8.2115493,2.51949296 C6.71019718,3.63447887 6.28630986,5.32597183 7.43729577,6.78980282 C8.36011268,7.96411268 9.66523944,8.8691831 11.0023099,9.56433803 C12.8068732,10.5054085 16.9047887,11.0915493 17.5882817,11.2837183 L17.5046197,10.8993803 C17.2749296,9.50704225 17.5720563,8.2571831 16.9859155,5.68242254 Z M10.4460845,3.41847887 C12.2780282,1.88771831 14.9993239,7.94230986 16.7085634,10.6281127 C14.0526761,8.65926761 8.61160563,4.94771831 10.4460845,3.41847887 Z" id="Fill-3" fill="#7BDBB7"></path>
                <path d="M28.1687324,4.20084507 C27.623662,3.56907042 27.0593239,2.94895775 26.4812958,2.34709859 C24.7380845,0.524788732 22.5811268,0.404112676 21.0975211,2.41453521 C19.8856901,4.05633803 17.6770141,11.0956056 17.6770141,11.0956056 C18.1962254,11.0956056 26.1263662,10.0713803 27.5602817,9.21194366 C29.5869296,7.992 29.7172394,5.99323944 28.1687324,4.20084507 Z M18.8832676,10.271662 C20.9849577,7.72073239 24.9677746,2.47588732 26.4016901,4.38490141 C27.8376338,6.29239437 21.6522254,8.70287324 18.8832676,10.271662 Z" id="Fill-4" fill="#7BDBB7"></path>
            </g>
        </g>
    </g>
</svg>