<?xml version="1.0" encoding="UTF-8" standalone="no"?>
<svg width="42px" height="38px" viewBox="0 0 42 38" version="1.1" xmlns="http://www.w3.org/2000/svg" xmlns:xlink="http://www.w3.org/1999/xlink">
    <!-- Generator: Sketch 41.2 (35397) - http://www.bohemiancoding.com/sketch -->
    <title>MENU Jobs</title>
    <desc>Created with Sketch.</desc>
    <defs></defs>
    <g id="Symbols" stroke="none" stroke-width="1" fill="none" fill-rule="evenodd">
        <g id="MENU-Patient" transform="translate(-264.000000, -17.000000)" fill="#BEC1C9">
            <path d="M306.01309,28.5166283 C306.01309,22.157527 300.857804,17.0022407 294.498703,17.0022407 C290.835721,17.0022407 287.577746,18.7174951 285.47037,21.3828056 L285.40707,21.4113745 C283.454862,19.4658883 281.244973,18.3259331 279.225544,17.6542839 C279.233947,17.6498025 279.242909,17.6413998 279.251872,17.6346778 C278.081107,17.2296716 276.826877,17 275.516628,17 C269.155286,17 264,22.1552863 264,28.5166283 C264,29.6890736 264.179256,30.8206262 264.503037,31.8860782 C264.505277,31.8838375 264.507518,31.8799163 264.512,31.8776756 C265.424524,35.1552568 267.302229,37.2122177 267.888171,37.7174951 L270.376467,40.0959962 L270.524913,40.2405213 L270.369745,40.3984905 C269.621351,41.1620084 269.638717,42.3893508 270.402795,43.1355033 C271.166313,43.8816558 272.391415,43.866531 273.139808,43.1030131 L273.301698,42.9433634 C273.319624,42.9276785 273.341471,42.9170352 273.367799,42.9170352 C273.426617,42.9170352 273.472551,42.9629695 273.472551,43.0217878 C273.472551,43.0458753 273.464149,43.0677222 273.448464,43.0850876 L273.450705,43.0873283 L273.297777,43.2452975 C272.549384,44.0088154 272.566749,45.2361578 273.330267,45.9800696 C274.096026,46.7284628 275.321688,46.7133381 276.06784,45.9475795 L276.218527,45.798573 C276.238693,45.7767262 276.266702,45.7616015 276.297512,45.7616015 C276.35689,45.7616015 276.402824,45.8075358 276.402824,45.8663541 C276.402824,45.8926824 276.391621,45.9145292 276.376496,45.9318946 L276.374256,45.9341353 C276.372015,45.936376 276.369774,45.9386167 276.367533,45.9408574 L276.220768,46.0898638 C275.472375,46.8533817 275.4903,48.0807241 276.253818,48.8268766 C277.019577,49.5730291 278.245239,49.5601451 278.991391,48.7943865 L279.1488,48.632496 L279.151041,48.6369774 C279.168406,48.6235332 279.190253,48.6128899 279.21434,48.6128899 C279.273719,48.6128899 279.319653,48.6588242 279.319653,48.7176425 C279.319653,48.7417301 279.31069,48.7613362 279.297806,48.7787016 L279.299487,48.7809423 L279.291084,48.7899051 C279.288844,48.7921458 279.288844,48.7921458 279.286603,48.7943865 L279.144319,48.9411522 C278.395925,49.7046701 278.413291,50.9320125 279.177369,51.678165 C279.943128,52.4243175 281.168229,52.4114335 281.914382,51.6456749 L282.096438,51.4596969 L282.043782,51.527478 L284.617224,53.9782416 C285.31072,54.6370069 286.216522,55 287.170499,55 L287.218674,55 C288.227549,54.987116 289.166401,54.5753877 289.859897,53.8466006 C290.533787,53.1379798 290.8951,52.1705584 290.86205,51.1751283 C290.901262,51.1773689 290.945516,51.1796096 290.995371,51.1773689 C292.002005,51.1661655 292.938617,50.7549973 293.632113,50.0262103 C294.304322,49.31927 294.658352,48.3983431 294.640987,47.4135562 C294.684681,47.4157969 294.741819,47.4157969 294.792234,47.4157969 C295.798868,47.4023527 296.73716,46.9934253 297.433457,46.2623975 C298.109588,45.5515361 298.4681,44.5863553 298.43785,43.5886845 C298.477062,43.5909252 298.53364,43.5931659 298.571172,43.5909252 C299.577805,43.577481 300.514417,43.1685536 301.210154,42.4375258 C302.485671,41.0987087 302.553452,39.0462291 301.45495,37.6194646 C304.144348,35.5098473 306.01309,32.1857716 306.01309,28.5166283 Z M299.717849,41.0107612 C299.419836,41.3238988 298.986821,41.5031547 298.527478,41.5031547 C298.096144,41.5031547 297.695619,41.350227 297.402648,41.0701397 L294.686921,38.5336694 C294.514388,38.40707 294.304322,38.3303261 294.07241,38.3303261 C293.496551,38.3303261 293.028245,38.798632 293.028245,39.3761719 C293.028245,39.7089156 293.187894,40.0041276 293.433251,40.1945869 L295.886255,42.5209918 C296.540539,43.1444661 296.566867,44.1813491 295.945073,44.835633 C295.647621,45.1487706 295.214606,45.3280264 294.754703,45.3280264 C294.323928,45.3280264 293.923404,45.1750988 293.630432,44.8950115 L291.008815,42.3787075 L291.006575,42.3809482 C290.820597,42.2100949 290.57356,42.1031016 290.301875,42.1031016 C289.726576,42.1031016 289.25827,42.5708473 289.25827,43.1489475 C289.25827,43.426794 289.369745,43.6783124 289.54676,43.866531 L289.545079,43.8687717 L292.089952,46.2887258 C292.737514,46.9122 292.761602,47.9496433 292.144289,48.5994457 C291.846836,48.9103426 291.413822,49.0895984 290.953918,49.0895984 C290.523144,49.0895984 290.122619,48.9366708 289.829088,48.6565835 L287.240521,46.2142225 L287.238281,46.2164632 C287.050062,46.0243234 286.7879,45.9038858 286.496609,45.9038858 C285.91907,45.9038858 285.453004,46.3721918 285.453004,46.9497317 C285.453004,47.2539065 285.586326,47.525031 285.794151,47.7154903 L288.310455,50.1051949 C288.964738,50.7286691 288.991067,51.7677929 288.369833,52.4198361 C288.07238,52.7329736 287.638805,52.9122295 287.179462,52.9122295 C286.748128,52.9122295 286.348163,52.7593018 286.054632,52.4792146 L283.492393,50.041335 L283.645321,49.8861666 C284.393714,49.120408 284.376349,47.8947462 283.61059,47.146353 C282.847072,46.4002005 281.62141,46.4158854 280.873017,47.1794033 L280.78563,47.2690312 L280.783389,47.2645498 C280.763783,47.2863966 280.737455,47.2998408 280.704405,47.2998408 C280.647827,47.2998408 280.599652,47.2539065 280.599652,47.194528 C280.599652,47.1620379 280.614777,47.133469 280.638864,47.1138628 L280.717849,47.0348782 C281.466242,46.2691196 281.448317,45.0440179 280.684799,44.2973053 C279.921281,43.5494723 278.693378,43.564597 277.947226,44.3303556 L277.855357,44.4244649 L277.853116,44.4222242 C277.835751,44.4356684 277.813904,44.4463117 277.789817,44.4463117 C277.733239,44.4463117 277.685064,44.3981367 277.685064,44.3415591 C277.685064,44.3174715 277.693467,44.2973053 277.706911,44.2799399 L277.70467,44.2776992 L277.713073,44.2692965 C277.715313,44.2670558 277.715313,44.2648151 277.717554,44.2648151 L277.794298,44.1858305 C278.542691,43.4200719 278.525326,42.1949702 277.759007,41.446577 C276.993248,40.7004246 275.770387,40.7155493 275.021994,41.4790672 L274.921163,41.5754172 C274.901557,41.6017454 274.872988,41.6191108 274.838257,41.6191108 C274.781119,41.6191108 274.732944,41.5709358 274.732944,41.5143582 C274.732944,41.4813079 274.748629,41.452739 274.772156,41.4331328 L274.864585,41.3367828 C275.610738,40.5710242 275.595053,39.3459225 274.829294,38.5975293 C274.065776,37.8513769 272.840114,37.8665016 272.091721,38.6300195 L271.99145,38.7308509 L269.297571,36.1204375 C269.271242,36.09635 267.293266,34.3586886 266.37402,30.5797512 C266.380742,30.5775105 266.387464,30.5730291 266.395867,30.5713485 C266.24518,29.9081019 266.159473,29.2190872 266.159473,28.5121469 C266.159473,23.35462 270.35462,19.160033 275.514388,19.160033 C276.282387,19.160033 277.024058,19.262545 277.739401,19.4401203 L277.739401,19.4378796 C279.571172,19.9409163 281.662863,20.8624034 283.512,22.5535704 L273.991273,31.9824282 C273.604192,32.3459815 273.358836,32.8602217 273.358836,33.4310396 C273.358836,34.5340232 274.251754,35.4269414 275.354738,35.4269414 C275.411316,35.4269414 275.463972,35.4134973 275.518309,35.4090159 C275.52055,35.4134973 275.52055,35.415738 275.52279,35.4179787 C275.566484,35.4134973 275.608497,35.4028539 275.652191,35.3961318 C275.704847,35.3871691 275.754703,35.3810071 275.807359,35.3698036 C277.391533,35.0566661 280.380624,31.8754349 283.100831,30.1708238 C284.634589,29.2230084 285.549354,28.9255558 287.234359,28.9255558 C288.636476,28.9255558 289.910313,29.4571614 290.879415,30.3237514 C290.995371,30.4094581 291.118049,30.5142107 291.253612,30.649773 L297.074385,36.2386344 L297.072145,36.2431157 L299.604133,38.6675512 C300.260098,39.2932661 300.339082,40.3564774 299.717849,41.0107612 Z" id="MENU-Jobs"></path>
        </g>
    </g>
</svg>