<?xml version="1.0" encoding="UTF-8" standalone="no"?>
<svg width="31px" height="39px" viewBox="0 0 31 39" version="1.1" xmlns="http://www.w3.org/2000/svg" xmlns:xlink="http://www.w3.org/1999/xlink">
    <!-- Generator: Sketch 41.2 (35397) - http://www.bohemiancoding.com/sketch -->
    <title>MENU Support Green</title>
    <desc>Created with Sketch.</desc>
    <defs></defs>
    <g id="Symbols" stroke="none" stroke-width="1" fill="none" fill-rule="evenodd">
        <g id="MENU-Green" transform="translate(-66.000000, -4.000000)" fill="#7BDBB7">
            <g id="MENU-Support-Green" transform="translate(54.484069, 1.000000)">
                <path d="M29.74944,12.25 C29.74944,11.28512 28.96656,10.5 28,10.5 C27.03288,10.5 26.24944,11.28512 26.24944,12.25 L26.24944,20.12472 C26.24944,20.60856 25.858,21 25.37472,21 C24.89144,21 24.5,20.60856 24.5,20.12472 L24.5,8.75 C24.5,7.78512 23.71656,7 22.74944,7 C21.78288,7 21,7.78512 21,8.75 L21,20.12472 C21,20.60856 20.608,21 20.12472,21 C19.64144,21 19.24944,20.60856 19.24944,20.12472 L19.24944,5.25 C19.24944,4.28512 18.46656,3.5 17.5,3.5 C16.53288,3.5 15.74944,4.28512 15.74944,5.25 L15.74944,20.12472 C15.74944,20.60856 15.358,21 14.87472,21 C14.39144,21 14,20.60856 14,20.12472 L14,8.75 C14,7.78512 13.21656,7 12.24944,7 C11.28288,7 10.5,7.78512 10.5,8.75 L10.5,27.12472 C10.5,27.42712 10.34208,27.7088 10.08392,27.86896 C9.828,28.02856 9.50208,28.04144 9.23328,27.90816 L3.15616,24.8696 C2.67288,24.62712 2.13248,24.5 1.59208,24.5 C0.71288,24.5 0,25.21288 0,26.09264 C0,26.52776 0.16576,26.92816 0.4676,27.22776 L11.78576,38.54368 C14.01064,40.77304 16.97024,42 20.12248,42 L20.12472,42 C25.43184,42 29.74944,37.68184 29.74944,32.37528 L29.74944,12.25 Z" id="Page-1-Copy-3" transform="translate(21.000000, 21.000000) scale(-1, 1) translate(-21.000000, -21.000000) "></path>
            </g>
        </g>
    </g>
</svg>