<?xml version="1.0" encoding="UTF-8" standalone="no"?>
<svg width="42px" height="32px" viewBox="0 0 42 32" version="1.1" xmlns="http://www.w3.org/2000/svg" xmlns:xlink="http://www.w3.org/1999/xlink">
    <!-- Generator: Sketch 41.2 (35397) - http://www.bohemiancoding.com/sketch -->
    <title>MENU Car Green</title>
    <desc>Created with Sketch.</desc>
    <defs></defs>
    <g id="Symbols" stroke="none" stroke-width="1" fill="none" fill-rule="evenodd">
        <g id="MENU-Green" transform="translate(-123.000000, -11.000000)" fill="#7BDBB7">
            <g id="MENU-Car-Green" transform="translate(123.968139, 11.000000)">
                <g id="Layer_1">
                    <path d="M40.9302326,17.6074419 C40.8049154,16.2207163 40.1129386,14.947156 39.0176744,14.0874419 C38.5322436,12.5529705 37.7053266,11.1484837 36.5990698,9.97953488 L37.0753488,9.97953488 C38.0394565,10.0074186 39.0035187,9.92250117 39.947907,9.72651163 C40.7293023,9.51069767 40.8037209,7.59069767 40.3944186,7.34511628 C39.4559439,7.11136902 38.487073,7.02351803 37.5218605,7.08465116 C37.0009302,7.12930233 36.9562791,7.51627907 36.8669767,7.62046512 C36.7998941,7.98104203 36.7724441,8.34787364 36.7851163,8.7144186 C36.7851163,9.00465116 36.1972093,8.7144186 35.8697674,8.7144186 L35.8697674,8.7144186 C35.1255814,6.48186047 33.5851163,2.15813953 31.8065116,1.42139535 C29.5739535,0.513488372 11.5348837,0.513488372 9.33209302,1.42139535 C7.51627907,2.15813953 5.95348837,6.46697674 5.20930233,8.7144186 L5.20930233,8.7144186 C4.8744186,8.76651163 4.28651163,9.01953488 4.28651163,8.7144186 C4.30105099,8.34815323 4.27610091,7.98138714 4.21209302,7.62046512 C4.1227907,7.51627907 4.07813953,7.12930233 3.5572093,7.08465116 C2.59579456,7.032221 1.63202627,7.1275939 0.699534884,7.36744186 C0.290232558,7.61302326 0.357209302,9.5255814 1.14604651,9.74883721 C2.09042483,9.94489421 3.05449498,10.0298123 4.01860465,10.0018605 L4.50232558,10.0018605 C3.39853563,11.1640525 2.57173063,12.5607169 2.08372093,14.0874419 C0.984973632,14.9451906 0.290022319,16.219268 0.16372093,17.6074419 C0.0520930233,18.6567442 -0.32744186,23.6502326 0.684651163,25.3023256 C0.788837209,25.4660465 1.42883721,25.6148837 1.42883721,25.7488372 L1.42883721,30.7869767 C1.42883721,31.1218605 1.92,31.4046512 2.17302326,31.4046512 L7.22604651,31.4046512 C7.50883721,31.4046512 8.09674419,31.1144186 8.09674419,30.7869767 L8.09674419,26.4930233 C13.3060465,26.8204651 19.6093023,26.8204651 20.747907,26.8204651 C21.8865116,26.8204651 28.1897674,26.8204651 33.3990698,26.4930233 L33.3990698,30.7646512 C33.3990698,31.0995349 33.5627907,31.3823256 33.8530233,31.3823256 L38.8986047,31.3823256 C39.1888372,31.3823256 39.3525581,31.092093 39.3525581,30.7646512 L39.3525581,25.7265116 C40.0967442,25.5925581 40.0967442,25.4437209 40.2306977,25.28 C41.2427907,23.6502326 41.0269767,18.6567442 40.9302326,17.6074419 Z M9.51813953,2.65674419 C10.8353488,2.55255814 13.9832558,2.38883721 20.6065116,2.38883721 C27.2297674,2.38883721 30.2809302,2.55255814 31.5534884,2.65674419 C32.6325581,3.45302326 33.9944186,6.74976744 34.8055814,9.3544186 C31.412093,9.49581395 20.7925581,9.55534884 20.5395349,9.55534884 C20.2865116,9.55534884 9.6744186,9.51813953 6.27348837,9.37674419 C7.08465116,6.7572093 8.44651163,3.46790698 9.51813953,2.65674419 Z M27.4455814,20.8372093 C27.3347302,21.2449873 27.0231348,21.5678114 26.6195349,21.6930233 L14.452093,21.6930233 C14.1693023,21.6930233 14.0427907,21.1274419 14.0427907,20.8372093 L14.0427907,18.3218605 C14.0427907,18.0316279 14.1618605,17.9944186 14.452093,17.9944186 L26.6195349,17.9944186 C26.9097674,17.9944186 27.4455814,18.0390698 27.4455814,18.3218605 L27.4455814,20.8372093 Z M35.2148837,22.0576744 C33.8092548,22.0576744 32.6697674,20.918187 32.6697674,19.5125581 C32.6697674,18.1069292 33.8092548,16.9674419 35.2148837,16.9674419 C36.6205126,16.9674419 37.76,18.1069292 37.76,19.5125581 C37.7639625,20.1901401 37.4975674,20.8413306 37.0198354,21.3218564 C36.5421033,21.8023822 35.8924772,22.0725697 35.2148837,22.0725581 L35.2148837,22.0576744 Z M6.26604651,22.0576744 C4.8604176,22.0576744 3.72093023,20.918187 3.72093023,19.5125581 C3.72093023,18.1069292 4.8604176,16.9674419 6.26604651,16.9674419 C7.67167542,16.9674419 8.81116279,18.1069292 8.81116279,19.5125581 C8.81513582,20.1914318 8.5477219,20.8437577 8.06837677,21.3245003 C7.58903165,21.805243 6.937487,22.0745548 6.25860465,22.0725581 L6.26604651,22.0576744 Z" id="Shape"></path>
                </g>
            </g>
        </g>
    </g>
</svg>