<svg id="Layer_1" data-name="Layer 1" xmlns="http://www.w3.org/2000/svg" viewBox="0 0 82.66 84.56"><defs><style>.cls-1{fill:#fff;opacity:0.7;}.cls-2{fill:none;stroke:#2a344d;stroke-miterlimit:10;stroke-width:2.4px;}</style></defs><title>Home_Support-01</title><path class="cls-1" d="M77.14,61.79c3.4.11,5.6-2.56,5.52-6-.09-3.58-2.39-6.11-5.82-6.3l-1.09-.06c.1-.18.19-.35.28-.52a4.65,4.65,0,0,0,2-1.9c2.5-4.21.11-9.42-4.72-9.82-5.21-.42-10.42-.66-15.63-.85l.36-.64c1.59-2.84,3.4-5.58,4.7-8.55,1.69-3.86,2.48-7.94,1-12.15-.88-2.53-2.45-4.51-5.17-4.91s-4.1,1.65-5.35,3.69c-2.87,4.71-5.6,9.58-9.84,13.23-5.08,4.37-10.33,8.53-15.56,12.73a3.42,3.42,0,0,1-2,.46c-4.76,0-9.53,0-14.29-.06-.62,0-1.25.07-1.85.1V72.47h1.84c3.57,0,7.14.07,10.72,0a2.17,2.17,0,0,1,2.24,1.29c3.87,7,10.36,9.94,18.18,10.34,5.53.28,11.08.25,16.62.21,3.15.18,6.3.24,9.44.16C72.58,84.42,75,82,75,79.13a5.36,5.36,0,0,0-3-4.73q.52-.35,1-.71A5.74,5.74,0,0,0,79.11,68,6.05,6.05,0,0,0,77,63.23a7.77,7.77,0,0,0-1.05-1l.72-.41Z"/><path class="cls-2" d="M55.35,75.61c-7.2,0-14,0-21.17-.36-7.83-.4-14.32-3.3-18.18-10.34a2.17,2.17,0,0,0-2.24-1.29c-3.57,0-7.14,0-10.72,0H1.2V31.39c.61,0,1.23-.11,1.85-.1,4.76,0,9.53.07,14.29.06a3.42,3.42,0,0,0,2-.46c5.23-4.19,10.48-8.36,15.56-12.73,4.24-3.64,7-8.51,9.84-13.22C46,2.9,47.36.85,50.09,1.25s4.3,2.38,5.17,4.91c1.46,4.21.67,8.29-1,12.15-1.3,3-3.78,6.24-5.37,9.09-.16.3.3-.55,0,0,3.68,0,8.22.36,11.58.59"/><path class="cls-2" d="M53.49,64.38c3.67.14,7.35.3,11,.4a5.74,5.74,0,0,0,6.1-5.67,6,6,0,0,0-5.74-6.19q-10.79-.49-21.58-.8A5.93,5.93,0,0,0,42.93,64C46.45,64.16,50,64.25,53.49,64.38Z"/><path class="cls-2" d="M47,64.07c-3.79.15-6.22,2.23-6.43,5.27S42.35,74.75,46,75.1a116.3,116.3,0,0,0,14.26.51c3.84-.1,6.24-2.49,6.25-5.39s-2.48-5.36-6.3-5.74Z"/><path class="cls-2" d="M55.22,40c-4.37-.22-8.75-.45-13.12-.65-3.62-.16-6,2.08-6.12,5.73-.12,3.42,2,6.21,5.39,6.44q13.63.93,27.28,1.38c3.4.11,5.6-2.56,5.52-6-.09-3.58-2.39-6.11-5.82-6.3C64,40.4,59.59,40.2,55.22,40Z"/><path class="cls-2" d="M55.25,40.09l9.17.46h.42a4.84,4.84,0,0,0,4.7-2.4c2.5-4.21.11-9.42-4.72-9.82-6.24-.51-12.5-.76-18.75-1-3.55-.11-5.95,2.52-5.9,6.09a6,6,0,0,0,5.92,6.14C49.14,39.83,52.19,39.94,55.25,40.09Z"/></svg>