<svg id="Layer_1" data-name="Layer 1" xmlns="http://www.w3.org/2000/svg" viewBox="0 0 159.25 62.62"><defs><style>.cls-1{opacity:0.7;}.cls-2{fill:#fff;}.cls-3{fill:#2a344d;}</style></defs><title>Home_Transport</title><g class="cls-1"><path class="cls-2" d="M28.52,15.79c-2.23-.15-9.05-2-12-2.86a1.8,1.8,0,1,1,1-3.45,99.47,99.47,0,0,0,11.2,2.74h0c3-.22,6.15-.56,9.16-.89,2.39-.26,4.79-.52,7.18-.73C64.53,8.91,85,8.43,102.4,16.3c4.92,2.22,9.78,4.76,13.69,6.79s7.68,4,8.68,4.14c.28,0,28.44,5.3,32.06,13.64a20.52,20.52,0,0,1,1.06,3s0,0,.07.29a12.89,12.89,0,0,1-.34,8l1.55,4.38A1.8,1.8,0,0,1,157.53,59c-.5,0-10.48.43-16.12.43-.87,0-1.58,0-2.19,0a12.5,12.5,0,0,1-17.65-.77l-76.5-.67a1.67,1.67,0,0,1-.25-.05,12.54,12.54,0,0,1-20.62-1.36c-2.57-.34-8.84-1.56-9.41-5.27-.08-.49-.16-1-.26-1.55a48.7,48.7,0,0,1-.89-10.92,27.47,27.47,0,0,1,.52-4.65,11.4,11.4,0,0,0,.15-3.88c-.39-5,11.21-13.14,12.82-14.33"/></g><path class="cls-3" d="M145.47,37.22a23,23,0,0,1-21.74-14.41L126,22a20.29,20.29,0,0,0,19.47,12.8h.44l0,2.4Z"/><polygon class="cls-3" points="112.3 20.23 21.65 15.86 14.38 8.03 16.14 6.4 22.74 13.51 112.42 17.83 112.3 20.23"/><rect class="cls-3" x="49.4" y="1.05" width="2.4" height="14.99" transform="translate(-0.56 4.53) rotate(-5.1)"/><path class="cls-3" d="M63.53,25.2h-.11l-8.8-.8A1.2,1.2,0,0,1,54.84,22l8.8.8a1.2,1.2,0,0,1-.11,2.4Z"/><path class="cls-3" d="M22.86,55.62A11.73,11.73,0,1,1,34.6,43.88,11.75,11.75,0,0,1,22.86,55.62Zm0-21.07a9.33,9.33,0,1,0,9.33,9.33A9.34,9.34,0,0,0,22.86,34.55Z"/><path class="cls-3" d="M118.33,55.62a11.73,11.73,0,1,1,11.73-11.73A11.75,11.75,0,0,1,118.33,55.62Zm0-21.07a9.33,9.33,0,1,0,9.33,9.33A9.34,9.34,0,0,0,118.33,34.55Z"/><path class="cls-3" d="M118.37,55.62a13.8,13.8,0,0,1-9.73-4.05L32.92,50.9a13.69,13.69,0,0,1-10.35,4.71,13.86,13.86,0,0,1-11.5-6.22c-3.65-.55-9.24-2.07-9.88-6.2-.07-.48-.16-1-.25-1.53A49.75,49.75,0,0,1,0,30.49a28.51,28.51,0,0,1,.54-4.83A10.33,10.33,0,0,0,.72,22.1C.45,18.71,4.3,14,12.16,8.08c-3.3-.76-7.31-1.89-8.38-2.2A3,3,0,0,1,3.16.37,3,3,0,0,1,5.43.12,104.76,104.76,0,0,0,16.29,2.81c2.94-.21,6-.55,9-.88,2.23-.24,4.76-.52,7.21-.73C52.19-.5,72.81-1,90.49,7c4.94,2.23,9.8,4.77,13.71,6.81,3,1.56,7.48,3.9,8.32,4,.28,0,29,5.17,33,14.35a21.88,21.88,0,0,1,1.12,3.23h0a3.26,3.26,0,0,1,.09.33,14.36,14.36,0,0,1-.24,8.24l1.4,4a3,3,0,0,1-2.7,4c-.1,0-10.33.43-16.17.43l-1.76,0A13.72,13.72,0,0,1,118.37,55.62ZM32.77,48.5l76.91.67.35.38a11.3,11.3,0,0,0,16,.7l.36-.33.49,0c4.69.17,18.11-.39,18.23-.39a.59.59,0,0,0,.47-.26.6.6,0,0,0,.07-.54l-1.7-4.82.18-.43a11.67,11.67,0,0,0,.29-7.22l-.06-.27a19.41,19.41,0,0,0-1-2.87c-3-6.88-26.61-12.17-31.14-12.93-1.07-.15-3.7-1.47-9-4.26-3.92-2-8.75-4.57-13.63-6.77C72.33,1.43,52.07,1.92,32.75,3.59c-2.43.21-4.83.47-7.16.73-3,.33-6.13.67-9.21.89h0c-1.54,0-8.9-2-11.61-2.78a.58.58,0,0,0-.45,0,.6.6,0,0,0,.12,1.1A95.43,95.43,0,0,0,16.2,6.39L16,8.79l-.68-.08-.22.16C4,16.95,3,20.68,3.11,21.91a12.58,12.58,0,0,1-.17,4.2,26.44,26.44,0,0,0-.51,4.49A47.61,47.61,0,0,0,3.3,41.24c.1.57.19,1.1.26,1.59.36,2.37,4.57,3.76,8.38,4.27l.57.08.3.5A11.34,11.34,0,0,0,31.47,48.9l.44-.55.69.11Zm-.12,0h0Z"/></svg>