<svg id="Layer_1" data-name="Layer 1" xmlns="http://www.w3.org/2000/svg" viewBox="0 0 123.95 91.81"><defs><style>.cls-1{fill:#2a344d;}.cls-2{fill:#fff;}</style></defs><title>Home_Wellbeing</title><path class="cls-1" d="M3,44.09c3.26,6,16.88,13.82,23,16.66,6.78,3.16,6.78,3.16,16.32,9.67l1.84,1.26c9,6.14,17.44,11.94,27.49,15.86,8.46,3.3,12.09,3.76,20.31,4.22.46,0,.89,0,1.31,0,6.76,0,9.39-3.28,10.65-4.86.17-.21.32-.4.46-.55,1.41-1.47,2.42-5.28,2.6-6a1.46,1.46,0,0,0,0-.69,2.64,2.64,0,0,0-1-1.58c-.32-1.4-1.57-4.23-6.5-6.56-5.54-2.63-6.43-3.65-9.77-7.43-.88-1-3-4.09-6.29-8.93l-.07-.11c-2-3-4.36-6.58-7.09-10.78-7.34-22.2-8.29-23.72-8.6-24.21-.52-1.62-1.94-4.83-4-4.94h0c-3.18,0-4.18,2.24-4.71,3.44-1.15,2.65-2.74,5.12-6.65,5.12-5.62,0-10.93,0-15.28-3.78-4.11-3.58-4.41-6.19-4.41-6.22-.36-1.93-2-5.29-5.77-5.29-2.84,0-4.76.84-7.67,5.08h0a23.13,23.13,0,0,0-3.22,5,37,37,0,0,0-8,9.83,2,2,0,0,0-.5.43,14.41,14.41,0,0,1-3.78,2.81,11.9,11.9,0,0,0-1.88,1.12C-1.53,35,.3,39,3,44.09Z"/><path class="cls-2" d="M109.12,85.56c-.45,0-.9,0-1.39,0-8.32-.47-12-.93-20.63-4.29-10.16-4-18.67-9.79-27.69-16L57.56,64c-9.47-6.47-9.47-6.47-16.16-9.59C36.47,52.11,21.6,44,17.93,37.28h0c-2.35-4.34-5.29-9.75-.94-12.86a13.07,13.07,0,0,1,2-1.21,13.31,13.31,0,0,0,3.47-2.59A3,3,0,0,1,23,20.2a38.51,38.51,0,0,1,7.9-9.74,25.21,25.21,0,0,1,3.27-5C37.24.95,39.52,0,42.62,0c3.93,0,6.31,3.2,6.85,6.17V6.3h0s.39,2.3,4,5.48c4,3.51,9.15,3.51,14.57,3.51,3.1,0,4.47-1.71,5.66-4.47a5.92,5.92,0,0,1,5.71-4.09c3,.15,4.56,4.13,5,5.56.45.73,1.66,3.23,8.59,24.2,2.84,4.36,5.13,7.84,7,10.65l.06.1c3.3,4.93,5.39,7.9,6.21,8.83,3.31,3.75,4.09,4.64,9.42,7.17,4.93,2.33,6.5,5.21,7,6.93a3.83,3.83,0,0,1,1.08,1.92,2.53,2.53,0,0,1,0,1.21c-.28,1.13-1.3,4.89-2.87,6.52-.08.09-.17.2-.27.32l-.14.17C119.35,81.87,116.41,85.56,109.12,85.56Zm12.69-13.38c-.29-1.27-2.45-4.87-6.93-7-5.74-2.72-6.75-3.87-10.12-7.7-.9-1-3-4-6.38-9l-.06-.09C96.41,45.5,94.09,42,91.21,37.54l-.12-.25c-3.34-10.1-7.52-22.46-8.48-24l-.12-.25c-.65-2-1.92-4.13-3.07-4.19-2.25,0-3,1.33-3.68,2.8-1.23,2.84-3.11,5.76-7.64,5.76-5.83,0-11.34,0-16-4C48,9.82,47.42,7.09,47.35,6.54c-.07-.38-1-4.38-4.71-4.38-2.52,0-4.1.71-6.77,4.61a22.49,22.49,0,0,0-3.12,4.77l-.1.23-.19.17a36,36,0,0,0-7.71,9.52l-.14.25-.24.15a1.19,1.19,0,0,0-.23.18l-.12.13a15.28,15.28,0,0,1-4,3,10.78,10.78,0,0,0-1.74,1c-2.38,1.7-1.38,4.6,1.58,10.07h0C22.94,42,36.57,49.77,42.31,52.45c6.86,3.2,6.86,3.2,16.47,9.76l1.84,1.26C69.55,69.58,78,75.34,87.9,79.22c8.32,3.24,11.89,3.69,20,4.14.45,0,.85,0,1.25,0,6.25,0,8.56-2.9,9.8-4.46l.14-.17c.14-.17.27-.33.39-.46,1-1.06,1.94-4,2.33-5.54a.38.38,0,0,0,0-.18"/><path class="cls-2" d="M111.21,81l-1,0c-11.44-.46-21-4.15-31.91-12.34C70.62,62.9,62.68,56.3,55.67,50.47l-.37-.31C52.72,48,50.23,46,47.85,44c-4-3.27-9.51-7.34-13.93-10.61C25.55,27.19,21.7,24.24,21,23.16a4.78,4.78,0,0,0-.31-.48l1.75-1.12a2.82,2.82,0,0,1,.41.5c.63.91,8,6.35,12.36,9.6s10,7.38,14,10.68c2.38,1.95,4.88,4,7.46,6.17l.35.29C64,54.62,72,61.21,79.6,66.94c10.56,7.91,19.73,11.47,30.67,11.91l1,0c6.89,0,8.62-3.08,8.69-3.21a2.08,2.08,0,0,1,.28-.43l2-4-1.36,7.43-.21-.53C119.17,79.43,116.36,81,111.21,81Z"/><path class="cls-2" d="M82.33,33.86a25.14,25.14,0,0,1-4.4-.43l.38-2.13c5.41,1,7.76,0,8.78-1a3.08,3.08,0,0,0,.94-2.4l2.14-.29a5.26,5.26,0,0,1-1.58,4.25C87.22,33.21,85.12,33.86,82.33,33.86Z"/><path class="cls-2" d="M85.15,42.06a25.14,25.14,0,0,1-4.4-.43l.38-2.13c5.38,1,7.73,0,8.76-.94a3.07,3.07,0,0,0,1-2.44L93,35.84a5.26,5.26,0,0,1-1.58,4.25C90,41.41,87.95,42.06,85.15,42.06Z"/><path class="cls-2" d="M90.31,50.38a25.14,25.14,0,0,1-4.4-.43l.38-2.13c5.41,1,7.76,0,8.78-1a3.08,3.08,0,0,0,.94-2.4l2.14-.29a5.26,5.26,0,0,1-1.58,4.25C95.2,49.72,93.1,50.38,90.31,50.38Z"/><path class="cls-2" d="M95.31,58.57a25.12,25.12,0,0,1-4.4-.43L91.29,56c5.38,1,7.73,0,8.76-.94a3.07,3.07,0,0,0,1-2.43l2.14-.28a5.26,5.26,0,0,1-1.58,4.25C100.2,57.91,98.11,58.57,95.31,58.57Z"/></svg>