<?xml version="1.0" encoding="UTF-8" standalone="no"?>
<svg width="50px" height="51px" viewBox="0 0 50 51" version="1.1" xmlns="http://www.w3.org/2000/svg" xmlns:xlink="http://www.w3.org/1999/xlink">
    <!-- Generator: Sketch 41.2 (35397) - http://www.bohemiancoding.com/sketch -->
    <title>Gift BOx</title>
    <desc>Created with Sketch.</desc>
    <defs></defs>
    <g id="Page-1" stroke="none" stroke-width="1" fill="none" fill-rule="evenodd">
        <g id="0301_Support" transform="translate(-34.000000, -322.000000)">
            <g id="Gift-BOx" transform="translate(35.000000, 323.000000)">
                <polygon id="Fill-1" fill="#27314D" points="0.546929577 27.5243944 47.4537465 27.5243944 47.4537465 16.240338 0.546929577 16.240338"></polygon>
                <polygon id="Fill-2" fill="#27314D" points="3.2004507 48.4321127 44.7988732 48.4321127 44.7988732 28.0767324 3.2004507 28.0767324"></polygon>
                <polygon id="Fill-1-Copy" stroke="#FFFFFF" stroke-width="1.5" points="0.546929577 27.5243944 47.4537465 27.5243944 47.4537465 16.240338 0.546929577 16.240338"></polygon>
                <polygon id="Fill-2-Copy" stroke="#FFFFFF" stroke-width="1.5" points="3.2004507 48.4321127 44.7988732 48.4321127 44.7988732 28.0767324 3.2004507 28.0767324"></polygon>
                <path d="M22.6478873,7.57656338 C21.9927887,4.69047887 19.9145915,1.37307042 18.0108169,0.406985915 C17.4138592,0.105464789 15.9772394,0.219042254 15.335662,0.406985915 C14.0680563,0.778816901 12.3616901,2.30805634 10.9487324,3.35932394 C8.94692958,4.84597183 8.38174648,7.10129577 9.91639437,9.05307042 C11.1468169,10.6188169 12.8869859,11.8255775 14.6697465,12.7524507 C17.075831,14.0072113 22.5397183,14.7887324 23.4510423,15.0449577 L23.339493,14.532507 C23.0332394,12.6760563 23.4294085,11.0095775 22.6478873,7.57656338 Z M13.9281127,4.55797183 C16.3707042,2.51695775 19.9990986,10.5897465 22.2780845,14.1708169 C18.7369014,11.5456901 11.4821408,6.59695775 13.9281127,4.55797183 Z" id="Fill-3" stroke="#FFFFFF" stroke-width="1.5" fill="#27314D"></path>
                <path d="M37.5583099,5.60112676 C36.8315493,4.75876056 36.0790986,3.93194366 35.3083944,3.12946479 C32.9841127,0.69971831 30.108169,0.538816901 28.1300282,3.21938028 C26.5142535,5.4084507 23.5693521,14.7941408 23.5693521,14.7941408 C24.2616338,14.7941408 34.8351549,13.428507 36.7470423,12.2825915 C39.4492394,10.656 39.6229859,7.99098592 37.5583099,5.60112676 Z M25.1776901,13.6955493 C27.9799437,10.2943099 33.2903662,3.3011831 35.2022535,5.84653521 C37.1168451,8.38985915 28.8696338,11.603831 25.1776901,13.6955493 Z" id="Fill-4" stroke="#FFFFFF" stroke-width="1.5" fill="#27314D"></path>
            </g>
        </g>
    </g>
</svg>