<?xml version="1.0" encoding="UTF-8" standalone="no"?>
<svg width="47px" height="52px" viewBox="0 0 47 52" version="1.1" xmlns="http://www.w3.org/2000/svg" xmlns:xlink="http://www.w3.org/1999/xlink">
    <!-- Generator: Sketch 41.2 (35397) - http://www.bohemiancoding.com/sketch -->
    <title>Layer_1</title>
    <desc>Created with Sketch.</desc>
    <defs></defs>
    <g id="Page-1" stroke="none" stroke-width="1" fill="none" fill-rule="evenodd">
        <g id="0301_Support" transform="translate(-39.000000, -133.000000)">
            <g id="Layer_1" transform="translate(39.000000, 133.000000)">
                <path d="M44.8102041,26.3502041 L37.8273469,26.2546939 L37.8273469,21.0069388 L0,20.9114286 L0,36.6122449 C0,45.3302041 6.96163265,50.5991837 18.9163265,50.6363265 C33.2906122,50.6787755 37.8326531,43.7914286 37.8326531,36.6387755 L37.8326531,36.5326531 C47.6489796,36.3681633 44.8102041,26.3502041 44.8102041,26.3502041 Z" id="Shape" fill="#2A344D"></path>
                <path d="M19.717551,51.7718367 L19.584898,51.7718367 C7.32244898,51.7346939 0,46.2428571 0,37.0738776 L0,20.6938776 L39.1804082,20.7893878 L39.1804082,37.1004082 C39.1804082,40.9897959 37.8804082,44.3485714 35.4183673,46.8 C32.1126531,50.1004082 26.8277551,51.7718367 19.717551,51.7718367 Z M1.35306122,22.057551 L1.35306122,37.0738776 C1.35306122,45.3991837 8.17142857,50.4081633 19.5955102,50.4081633 L19.7228571,50.4081633 C26.4616327,50.4081633 31.3963265,48.8693878 34.4685714,45.8342857 C36.6706122,43.637551 37.8326531,40.6130612 37.8326531,37.0897959 L37.8326531,22.1371429 L1.35306122,22.057551 Z" id="Shape" fill="#FFFFFF"></path>
                <path d="M7.4922449,37.8061224 C6.63674932,37.8112468 5.82726924,37.4192467 5.30081633,36.744898 C5.10979592,36.5220408 4.94530612,36.2832653 4.77020408,36.0763265 C3.97428571,35.2591837 3.05102041,35.2379592 1.91020408,36.0073469 C1.68204082,36.1612245 1.4644898,36.3522449 1.23632653,36.5114286 C1.00816327,36.6706122 0.663265306,36.6918367 0.488163265,36.4477551 C0.402214794,36.3239487 0.369019716,36.1710488 0.395892931,36.0227484 C0.422766147,35.8744481 0.507502199,35.7429182 0.631428571,35.6571429 C2.08,34.3571429 3.9477551,33.624898 5.44408163,34.9461224 C5.71735377,35.2048817 5.96932599,35.4852452 6.19755102,35.7844898 C7.12081633,36.9093878 8.22979592,36.9253061 9.59877551,35.8322449 C9.71020408,35.7420408 9.81102041,35.6465306 9.9277551,35.5722449 C10.2355102,35.3706122 10.5008163,35.3865306 10.6759184,35.6359184 C10.7618668,35.7597247 10.7950619,35.9126247 10.7681887,36.060925 C10.7413155,36.2092254 10.6565794,36.3407552 10.5326531,36.4265306 C9.72861614,37.2522078 8.64309399,37.7447659 7.4922449,37.8061224 Z" id="Shape" stroke="#FFFFFF" stroke-width="0.5" fill="#FFFFFF"></path>
                <path d="M16.5816327,37.9706122 C15.7261371,37.9757366 14.916657,37.5837365 14.3902041,36.9093878 C14.1991837,36.6865306 14.0346939,36.4477551 13.8595918,36.2408163 C13.0636735,35.4236735 12.1404082,35.402449 10.9995918,36.1718367 C10.7714286,36.3257143 10.5538776,36.5167347 10.3257143,36.6759184 C10.097551,36.835102 9.73142857,36.8297959 9.55102041,36.6122449 C9.46507194,36.4884385 9.43187686,36.3355386 9.45875007,36.1872382 C9.48562329,36.0389379 9.57035934,35.907408 9.69428571,35.8216327 C11.1428571,34.4897959 13.0159184,33.7628571 14.5069388,35.0787755 C14.7802109,35.3375348 15.0321831,35.6178982 15.2604082,35.9171429 C16.1836735,37.0420408 17.2926531,37.0579592 18.6616327,35.964898 C18.7730612,35.8746939 18.8738776,35.7791837 18.9906122,35.704898 C19.2983673,35.5032653 19.5636735,35.5191837 19.7387755,35.7685714 C19.824724,35.8923778 19.8579191,36.0452778 19.8310458,36.1935781 C19.8041726,36.3418784 19.7194366,36.4734083 19.5955102,36.5591837 C18.8031434,37.3905658 17.7275871,37.8942594 16.5816327,37.9706122 L16.5816327,37.9706122 Z" id="Shape" stroke="#FFFFFF" stroke-width="0.5" fill="#FFFFFF"></path>
                <path d="M26,37.8963265 C25.1445044,37.9014509 24.3350243,37.5094508 23.8085714,36.835102 C23.617551,36.6122449 23.4530612,36.3734694 23.2779592,36.1665306 C22.4820408,35.3493878 21.5587755,35.3281633 20.4179592,36.097551 C20.1897959,36.2514286 19.9722449,36.442449 19.7440816,36.6016327 C19.5159184,36.7608163 19.1710204,36.7820408 18.9959184,36.5379592 C18.8975937,36.4170785 18.8532718,36.2610997 18.8733397,36.1065774 C18.8934075,35.952055 18.9761011,35.8125718 19.1020408,35.7208163 C20.5506122,34.4208163 22.4183673,33.6885714 23.9146939,35.0097959 C24.187966,35.2685552 24.4399382,35.5489186 24.6681633,35.8481633 C25.5914286,36.9730612 26.7004082,36.9889796 28.0693878,35.8959184 C28.1808163,35.8057143 28.2816327,35.7102041 28.3983673,35.6359184 C28.7061224,35.4342857 28.9714286,35.4502041 29.1465306,35.6995918 C29.2324791,35.8233982 29.2656742,35.9762982 29.2388009,36.1245985 C29.2119277,36.2728988 29.1271917,36.4044287 29.0032653,36.4902041 C28.2127033,37.3172386 27.1414736,37.8187862 26,37.8963265 Z" id="Shape" stroke="#FFFFFF" stroke-width="0.5" fill="#FFFFFF"></path>
                <path d="M35.3759184,37.8220408 C34.5204228,37.8271651 33.7109427,37.4351651 33.1844898,36.7608163 C32.9934694,36.5379592 32.8289796,36.2991837 32.6538776,36.0922449 C31.8579592,35.275102 30.9346939,35.2538776 29.7938776,36.0232653 C29.5657143,36.1771429 29.3481633,36.3681633 29.12,36.5273469 C28.8918367,36.6865306 28.5469388,36.7077551 28.3718367,36.4636735 C28.2858883,36.3398671 28.2526932,36.1869671 28.2795664,36.0386668 C28.3064396,35.8903665 28.3911757,35.7588366 28.515102,35.6730612 C29.9636735,34.3730612 31.8314286,33.6408163 33.3277551,34.9620408 C33.6010272,35.2208001 33.8529995,35.5011635 34.0812245,35.8004082 C35.0044898,36.9253061 36.1134694,36.9412245 37.482449,35.8481633 C37.5938776,35.7579592 37.6946939,35.662449 37.8114286,35.5881633 C38.1191837,35.3865306 38.3844898,35.402449 38.5595918,35.6518367 C38.6455403,35.7756431 38.6787354,35.9285431 38.6518622,36.0768434 C38.624989,36.2251437 38.5402529,36.3566736 38.4163265,36.442449 C37.6122896,37.2681262 36.5267675,37.7606843 35.3759184,37.8220408 L35.3759184,37.8220408 Z" id="Shape" stroke="#FFFFFF" stroke-width="0.5" fill="#FFFFFF"></path>
                <path d="M15.0853061,3.43836735 C15.0356445,4.55469117 14.6049141,5.62028086 13.864898,6.45755102 C13.6208163,6.76530612 13.3342857,7.06244898 13.1273469,7.38081633 C12.2518367,8.62244898 12.2306122,9.67306122 13.0477551,10.6281633 C13.217551,10.8244898 13.4191837,10.9889796 13.5783673,11.1587755 C13.6927285,11.2786388 13.7529241,11.440161 13.7449012,11.605634 C13.7368782,11.7711071 13.661339,11.9260482 13.5359184,12.0342857 C13.2706122,12.3526531 12.9416327,12.4534694 12.6710204,12.2465306 C11.2330612,11.1853061 10.4636735,9.36 11.8379592,7.13142857 C12.1175683,6.7020634 12.4241721,6.2908952 12.7559184,5.90040816 C14.0718367,4.27673469 14.0983673,3.04571429 12.8195918,1.89428571 C12.7346939,1.82 12.5914286,1.75102041 12.5861224,1.6555102 C12.5484305,1.38073613 12.5831836,1.10088222 12.6869388,0.843673469 C12.7657105,0.697020536 12.9019057,0.589716989 13.0629201,0.547450716 C13.2239345,0.505184444 13.3952731,0.531760358 13.5359184,0.620816327 C14.4751585,1.25643632 15.0516413,2.3047662 15.0853061,3.43836735 L15.0853061,3.43836735 Z" id="Shape" fill="#2A334D"></path>
                <path d="M28.0428571,3.52326531 C27.9932961,4.61886542 27.5722404,5.66495481 26.8489796,6.48938776 C26.604898,6.80244898 26.3183673,7.09428571 26.1114286,7.41265306 C25.2146939,8.6755102 25.1881633,9.73673469 26.0265306,10.702449 C26.1963265,10.8987755 26.4032653,11.0579592 26.5571429,11.2330612 C26.6665874,11.3586368 26.7204619,11.5232092 26.7064631,11.6891952 C26.6924642,11.8551812 26.6117876,12.0084059 26.4828571,12.1138776 C26.2122449,12.4216327 25.8832653,12.5012245 25.6126531,12.2942857 C24.1959184,11.2012245 23.4,9.39183673 24.8485714,7.12081633 C25.1337432,6.69571329 25.4419589,6.28653039 25.7718367,5.89510204 C27.0081633,4.35632653 27.0293878,3.08816327 25.8355102,2.00040816 C25.7342046,1.91844512 25.6384817,1.82981282 25.5489796,1.73510204 C25.3460134,1.46908115 25.3880792,1.09048922 25.6444898,0.875510204 C25.7323724,0.72736426 25.878775,0.623262464 26.0475638,0.58889827 C26.2163526,0.554534076 26.3918031,0.593108894 26.5306122,0.695102041 C27.4746848,1.32673956 28.0418184,2.38737897 28.0428571,3.52326531 L28.0428571,3.52326531 Z" id="Shape" fill="#2A334D"></path>
                <path d="M21.4102041,3.51795918 C21.3530459,4.59406991 20.9363766,5.61986113 20.2269388,6.43102041 C19.9404082,6.80244898 19.6167347,7.16326531 19.3620408,7.55061224 C18.6244898,8.67020408 18.6032653,9.60938776 19.282449,10.4902041 C19.4787755,10.744898 19.7334694,10.9518367 19.9510204,11.1906122 C20.0617032,11.3148213 20.1173911,11.4785457 20.1053958,11.6444815 C20.0934004,11.8104173 20.0147436,11.9644301 19.8873469,12.0714286 C19.6167347,12.3844898 19.2877551,12.4640816 19.0171429,12.2571429 C17.6534694,11.1959184 16.7779592,9.43959184 18.2106122,7.13673469 C18.5164404,6.68493554 18.8477239,6.25090096 19.2028571,5.83673469 C20.3861224,4.35102041 20.4073469,3.08816327 19.2612245,2.02163265 C18.7306122,1.53877551 18.6722449,1.21510204 19.0012245,0.843673469 C19.3302041,0.472244898 19.717551,0.466938776 20.2481633,0.965714286 C20.996266,1.60095763 21.4222699,2.53661003 21.4102041,3.51795918 L21.4102041,3.51795918 Z" id="Shape" fill="#2A334D"></path>
                <path d="M38.9469388,37.5461224 L38.9469388,36.4530612 C41.6,36.4212245 43.504898,35.6412245 44.6297959,34.1342857 C46.3330612,31.8526531 45.8130612,28.4885714 45.5689796,27.3477551 L38.6232653,27.2522449 L38.6232653,26.1591837 L46.4073469,26.2653061 L46.5187755,26.6579592 C46.5771429,26.8595918 47.882449,31.5926531 45.4946939,34.7869388 C44.157551,36.5804082 41.9555102,37.5089796 38.9469388,37.5461224 Z" id="Shape" fill="#FFFFFF"></path>
                <path d="M38.9734694,34.5959184 L38.9416327,33.5028571 C40.8889796,33.4497959 42.1995918,32.9722449 42.8363265,32.0542857 C43.2187518,31.4663778 43.3629442,30.754902 43.2395918,30.0644898 L38.6285714,30.0963265 L38.6285714,28.9979592 L44.0779592,28.9608163 L44.2053061,29.337551 C44.5474653,30.4657457 44.3787923,31.6871709 43.7436735,32.6804082 C42.8893878,33.884898 41.2869388,34.5322449 38.9734694,34.5959184 Z" id="Shape" stroke="#FFFFFF" stroke-width="0.5" fill="#FFFFFF"></path>
            </g>
        </g>
    </g>
</svg>