<svg id="Layer_1" data-name="Layer 1" xmlns="http://www.w3.org/2000/svg" viewBox="0 0 50 37"><defs><style>.cls-1{fill:#fff;}</style></defs><title>Camera_Small_White</title><g id="Take_or_Send_Photo_or_Video_Button" data-name="Take or Send Photo or Video Button"><rect class="cls-1" x="6" y="2" width="4" height="2"/><circle class="cls-1" cx="25" cy="21" r="9"/><path class="cls-1" d="M47,6H38.07a2,2,0,0,1-1.66-.89L33.59.89A2,2,0,0,0,31.93,0H18.07a2,2,0,0,0-1.66.89L13.59,5.11A2,2,0,0,1,11.93,6H3A3,3,0,0,0,0,9V34a3,3,0,0,0,3,3H47a3,3,0,0,0,3-3V9A3,3,0,0,0,47,6ZM25,32.5A11.5,11.5,0,1,1,36.5,21,11.51,11.51,0,0,1,25,32.5ZM40.75,11A1.73,1.73,0,0,1,39,12.75h0A1.73,1.73,0,0,1,37.25,11v0A1.73,1.73,0,0,1,39,9.25h0A1.73,1.73,0,0,1,40.75,11Z"/></g></svg>