<svg id="Layer_1" data-name="Layer 1" xmlns="http://www.w3.org/2000/svg" viewBox="0 0 55.11 41.17"><defs><style>.cls-1{fill:#84cdb1;}</style></defs><title>Appointments_Car_Green</title><path class="cls-1" d="M55,22.66a6.79,6.79,0,0,0-2.57-4.73,14.31,14.31,0,0,0-3.25-5.52l.64,0a16.63,16.63,0,0,0,3.86-.34c1.05-.29,1.15-2.87.6-3.2a12.66,12.66,0,0,0-3.86-.35c-.7.06-.76.58-.88.72a6.76,6.76,0,0,0-.11,1.47c0,.39-.79,0-1.23,0h0c-1-3-3.07-8.81-5.46-9.8-3-1.22-27.24-1.22-30.2,0C10.1,1.9,8,7.69,7,10.71H7c-.45.07-1.24.41-1.24,0a6.86,6.86,0,0,0-.1-1.47c-.12-.14-.18-.66-.88-.72A12.65,12.65,0,0,0,.94,8.9c-.55.33-.46,2.9.6,3.2a16.62,16.62,0,0,0,3.86.34l.65,0A14.29,14.29,0,0,0,2.8,17.93,6.78,6.78,0,0,0,.22,22.66C.07,24.07-.44,30.78.92,33c.14.22,1,.42,1,.6v6.77c0,.45.66.83,1,.83H9.71c.38,0,1.17-.39,1.17-.83V34.6c7,.44,15.47.44,17,.44s10,0,17-.44v5.74c0,.45.22.83.61.83h6.78c.39,0,.61-.39.61-.83V33.57c1-.18,1-.38,1.18-.6C55.42,30.78,55.13,24.07,55,22.66ZM12.79,2.57c1.77-.14,6-.36,14.9-.36s13,.22,14.71.36c1.45,1.07,3.28,5.5,4.37,9-4.56.19-18.83.27-19.17.27S13,11.79,8.43,11.6C9.52,8.08,11.35,3.66,12.79,2.57ZM36.88,27a1.66,1.66,0,0,1-1.11,1.15H19.42c-.38,0-.55-.76-.55-1.15V23.62c0-.39.16-.44.55-.44H35.77c.39,0,1.11.06,1.11.44Zm10.44,1.64a3.42,3.42,0,1,1,3.42-3.42A3.42,3.42,0,0,1,47.32,28.66Zm-38.9,0a3.42,3.42,0,1,1,3.42-3.42A3.42,3.42,0,0,1,8.41,28.66Z"/></svg>