<svg id="Layer_1" data-name="Layer 1" xmlns="http://www.w3.org/2000/svg" viewBox="0 0 40.02 56.14"><defs><style>.cls-1{fill:#84cdb1;}</style></defs><title>Appointments_DrsAppointment_Green</title><path class="cls-1" d="M20.46,11a9.32,9.32,0,0,0-9.32-9.31h-.9V4h.9a7,7,0,0,1,7,7v2.39h0c-.26,8.34-6.15,16.84-11.68,16.9S-5,21.72-5.26,13.38h0V11a7,7,0,0,1,7-7h.9V1.68h-.9A9.32,9.32,0,0,0-7.63,11v2.6h0c.36,9.57,7.22,18.92,13.95,19h.12c6.73-.11,13.58-9.46,13.95-19h0Z"/><path class="cls-1" d="M32.6,18.69a6.63,6.63,0,0,0-6.45,6.79V43.91a9.38,9.38,0,0,1-9.3,9.21h-.18a9.16,9.16,0,0,1-9.09-9.21V31.73H5.25V43.91A11.5,11.5,0,0,0,16.67,55.45h.18A11.75,11.75,0,0,0,28.49,43.91V25.48A4.29,4.29,0,0,1,32.6,21h3.76V18.69Z"/><circle class="cls-1" cx="41.08" cy="19.32" r="2.55"/><path class="cls-1" d="M41.08,26a6.7,6.7,0,1,1,6.7-6.7A6.71,6.71,0,0,1,41.08,26Zm0-10.85a4.15,4.15,0,1,0,4.15,4.15A4.15,4.15,0,0,0,41.08,15.17Z"/><ellipse class="cls-1" cx="1.58" cy="2.84" rx="2.44" ry="2.16"/><ellipse class="cls-1" cx="11.25" cy="2.84" rx="2.44" ry="2.16"/></svg>