<?xml version="1.0" encoding="UTF-8" standalone="no"?>
<svg width="30px" height="33px" viewBox="0 0 30 33" version="1.1" xmlns="http://www.w3.org/2000/svg" xmlns:xlink="http://www.w3.org/1999/xlink">
    <!-- Generator: Sketch 41.2 (35397) - http://www.bohemiancoding.com/sketch -->
    <title>Jobs_Family Grey</title>
    <desc>Created with Sketch.</desc>
    <defs>
        <path d="M14.65,1.2 C12.9182,1.2 11.5,2.6182 11.5,4.35 C11.5,5.841 12.5518667,7.0898 13.95,7.41226667 L13.95,11.7658 C12.6503333,11.9534 11.5182,12.6459333 10.7561333,13.6469333 L7.10306667,11.3938667 C7.23093333,11.0527333 7.3,10.6845333 7.3,10.3 C7.3,8.5682 5.8818,7.15 4.15,7.15 C2.4182,7.15 1,8.5682 1,10.3 C1,12.0318 2.4182,13.45 4.15,13.45 C4.9942,13.45 5.75953333,13.1107333 6.32653333,12.5642667 L10.0780667,14.8719333 C9.87413333,15.4095333 9.75,15.991 9.75,16.6 C9.75,17.2052667 9.876,17.7811333 10.0780667,18.3173333 L6.3158,20.625 C5.7488,20.0855333 4.9886,19.75 4.15,19.75 C2.4182,19.75 1,21.1682 1,22.9 C1,24.6318 2.4182,26.05 4.15,26.05 C5.8818,26.05 7.3,24.6318 7.3,22.9 C7.3,22.5117333 7.22346667,22.1398 7.09233333,21.7954 L10.7561333,19.5423333 C11.5182,20.5466 12.6484667,21.2466 13.95,21.4342 L13.95,25.7877333 C12.5518667,26.1102 11.5,27.359 11.5,28.85 C11.5,30.5818 12.9182,32 14.65,32 C16.3818,32 17.8,30.5818 17.8,28.85 C17.8,27.359 16.7481333,26.1102 15.35,25.7877333 L15.35,21.4342 C16.6515333,21.2466 17.7818,20.5466 18.5438667,19.5423333 L22.2076667,21.7954 C22.0765333,22.1398 22,22.5117333 22,22.9 C22,24.6318 23.4182,26.05 25.15,26.05 C26.8818,26.05 28.3,24.6318 28.3,22.9 C28.3,21.1682 26.8818,19.75 25.15,19.75 C24.3114,19.75 23.5512,20.0855333 22.9842,20.625 L19.2219333,18.3173333 C19.424,17.7811333 19.55,17.2052667 19.55,16.6 C19.55,15.991 19.4258667,15.4095333 19.2219333,14.8719333 L22.9734667,12.5642667 C23.5404667,13.1107333 24.3058,13.45 25.15,13.45 C26.8818,13.45 28.3,12.0318 28.3,10.3 C28.3,8.5682 26.8818,7.15 25.15,7.15 C23.4182,7.15 22,8.5682 22,10.3 C22,10.6845333 22.0690667,11.0527333 22.1969333,11.3938667 L18.5438667,13.6469333 C17.7818,12.6459333 16.6496667,11.9534 15.35,11.7658 L15.35,7.41226667 C16.7481333,7.0898 17.8,5.841 17.8,4.35 C17.8,2.6182 16.3818,1.2 14.65,1.2 Z" id="path-1"></path>
        <mask id="mask-2" maskContentUnits="userSpaceOnUse" maskUnits="objectBoundingBox" x="-1" y="-1" width="37" height="37">
            <rect x="0" y="-4" width="37" height="37" fill="white"></rect>
            <use xlink:href="#path-1" fill="black"></use>
        </mask>
    </defs>
    <g id="Page-1" stroke="none" stroke-width="1" fill="none" fill-rule="evenodd">
        <g id="Jobs_Family-Grey">
            <use fill="#A9ADB8" fill-rule="evenodd" xlink:href="#path-1"></use>
            <use stroke="#FFFFFF" mask="url(#mask-2)" stroke-width="2" xlink:href="#path-1"></use>
        </g>
    </g>
</svg>