<svg id="Layer_1" data-name="Layer 1" xmlns="http://www.w3.org/2000/svg" viewBox="0 0 100 58"><defs><style>.cls-1{fill:#ee2753;}</style></defs><title>Appointments_Record_Red</title><g id="Voice_Wave_Pattern" data-name="Voice Wave Pattern"><rect class="cls-1" y="28" width="4" height="2"/><rect class="cls-1" x="6" y="21" width="4" height="16"/><rect class="cls-1" x="12" y="7" width="4" height="44"/><rect class="cls-1" x="18" width="4" height="58"/><rect class="cls-1" x="24" y="9" width="4" height="40"/><rect class="cls-1" x="30" y="18" width="4" height="22"/><rect class="cls-1" x="36" y="28" width="4" height="2"/><rect class="cls-1" x="42" y="11" width="4" height="36"/><rect class="cls-1" x="48" y="4" width="4" height="50"/><rect class="cls-1" x="54" y="2" width="4" height="54"/><rect class="cls-1" x="60" y="5" width="4" height="48"/><rect class="cls-1" x="66" y="22" width="4" height="14"/><rect class="cls-1" x="72" y="24" width="4" height="10"/><rect class="cls-1" x="78" y="11" width="4" height="36"/><rect class="cls-1" x="84" y="7" width="4" height="44"/><rect class="cls-1" x="90" y="13" width="4" height="32"/><rect class="cls-1" x="96" y="25" width="4" height="8"/></g></svg>